<svg width="73" height="71" viewBox="0 0 73 71" fill="none" xmlns="http://www.w3.org/2000/svg">
<path fill-rule="evenodd" clip-rule="evenodd" d="M45.9831 5.16554C42.5212 9.23305 41.5031 10.5232 41.5031 10.8436C41.5031 11.1568 42.1205 11.9839 44.0341 14.2349C46.9495 17.6641 47.0248 17.708 47.9964 16.539L48.5556 15.8662L49.7839 17.3027L51.0122 18.7392L51.0219 20.5505L51.0316 22.3617L46.0883 28.1677L41.1452 33.9738L34.1707 25.7781L27.1963 17.5826L27.5325 16.7686C27.7899 16.1458 27.868 15.6793 27.8647 14.7813C27.8578 12.8639 27.6863 12.5987 22.6462 6.71185C20.1882 3.84083 17.9523 1.35232 17.6776 1.18185C16.9271 0.715528 14.9528 0.7457 14.1823 1.23532C13.8604 1.43965 10.7395 4.98418 7.02591 9.36295C0.712001 16.8077 0.430946 17.1656 0.21352 18.0385C-0.0867958 19.2446 -0.0723864 20.0311 0.269874 21.1027C0.520398 21.8871 1.08208 22.6096 5.15625 27.3878C8.56301 31.3832 9.92649 32.8747 10.4016 33.1253C11.1951 33.5437 12.5071 33.5774 13.3979 33.2024C14.0175 32.9414 14.1253 32.9506 16.4652 33.4646C17.799 33.7574 18.9304 34.0484 18.9795 34.1113C19.0285 34.1741 19.6597 35.4323 20.382 36.9074C21.1045 38.3824 21.7752 39.6863 21.8726 39.805C21.9701 39.9239 23.311 40.2963 24.8522 40.6329L27.6547 41.2449L28.9435 43.8807C29.6524 45.3305 30.2324 46.5773 30.2324 46.6514C30.2324 46.7254 27.1538 50.4104 23.391 54.8402C15.8224 63.7504 15.9237 63.6038 15.9237 65.6544C15.9237 68.2913 17.5793 70.2419 19.8176 70.2419C21.5693 70.2419 21.3577 70.4479 29.9471 60.3754L37.7225 51.2573L38.3764 52.6234C38.7361 53.3748 39.1855 54.1202 39.3751 54.2801C39.5818 54.4545 40.6905 54.7775 42.1452 55.0874C43.4791 55.3717 44.6989 55.6687 44.8558 55.7477C45.0178 55.829 45.7275 57.1034 46.4965 58.6933C47.242 60.2346 47.9482 61.5561 48.0659 61.63C48.1836 61.7038 49.3713 62.003 50.7052 62.2948C52.0392 62.5866 53.272 62.8659 53.4447 62.9152C53.6719 62.98 54.1419 63.7908 55.1442 65.8469C55.9062 67.4099 56.6459 68.7621 56.7883 68.8516C57.2364 69.1334 63.0277 70.3452 63.3153 70.2173C63.465 70.1509 64.4287 69.1354 65.4568 67.9611C67.0965 66.0879 67.326 65.759 67.326 65.2818C67.326 64.7852 66.4333 63.6887 57.0542 52.6653L46.7824 40.5925L51.6781 34.8424L56.5736 29.0925L57.5401 29.2901C58.0716 29.3989 58.8377 29.45 59.2426 29.4036C59.9778 29.3195 59.9799 29.3206 61.12 30.4425C63.8883 33.1669 66.3863 34.7594 70.6081 36.4918C72.1362 37.1187 72.6487 37.0941 72.9256 36.38C73.0695 36.0084 73.0245 35.7119 72.614 34.3312C71.1281 29.3329 69.6036 26.0063 67.4543 23.0724L66.5413 21.8261L66.5218 20.2314C66.4791 16.7396 64.9997 13.7774 62.524 12.2271C61.3549 11.4951 60.2186 11.1775 58.7687 11.1775H57.5473L56.2999 9.70507L55.0526 8.23285L55.6253 7.57577C56.6088 6.44751 56.5701 6.35398 53.7369 3.02317C52.1216 1.12402 51.1362 0.0908026 50.8694 0.0160434C50.4864 -0.0912343 50.2047 0.205456 45.9831 5.16554ZM52.3834 4.60032L53.914 6.40427L50.4531 10.4679L46.9923 14.5316L45.4265 12.686L43.8607 10.8407L47.2819 6.81846C49.1634 4.60636 50.7367 2.79638 50.7778 2.79638C50.8191 2.79638 51.5415 3.60817 52.3834 4.60032ZM16.7192 3.19767C16.9727 3.32674 19.1428 5.75021 21.5653 8.60966L25.9524 13.7882V14.7305C25.9524 15.5747 25.8944 15.7579 25.398 16.4844C25.0929 16.9306 22.1878 20.4007 18.9422 24.1956C12.5563 31.6623 12.7348 31.4954 11.4359 31.2131C10.973 31.1125 10.3118 30.4048 6.52471 25.9563C2.80166 21.5829 2.12598 20.7143 1.99701 20.136C1.69826 18.7959 1.65347 18.8602 8.44003 10.8682C11.9121 6.7794 14.9455 3.33126 15.1809 3.20555C15.7341 2.91036 16.1505 2.90818 16.7192 3.19767ZM17.0356 10.4064C16.4913 10.7108 15.3878 11.912 12.3791 15.4753C10.2103 18.0437 8.32204 20.4092 8.18294 20.7319C7.83155 21.5474 7.85167 22.9805 8.2266 23.8397C8.65246 24.8155 10.5404 26.8703 11.2125 27.0896C11.9067 27.3161 12.4663 27.3144 13.1836 27.0837C13.6581 26.931 14.4461 26.0912 17.8595 22.1002C20.4781 19.0386 22.0669 17.0524 22.2466 16.6164C22.5851 15.7949 22.6165 14.4317 22.3162 13.5875C22.0284 12.7781 20.2748 10.7497 19.5108 10.3422C18.6846 9.90185 17.9015 9.92214 17.0356 10.4064ZM55.302 11.7172L56.765 13.4301L58.5144 13.4353C60.1782 13.4402 60.3106 13.4663 61.217 13.9709C62.5435 14.7092 63.3694 15.6593 64.0111 17.1852C64.5266 18.4108 64.5447 18.5153 64.5671 20.3883C64.5798 21.453 64.5958 22.4007 64.6028 22.4941C64.6096 22.5874 65.0672 23.2663 65.6193 24.0027C66.7873 25.5604 68.2258 28.0258 68.9433 29.6996C69.587 31.2013 70.4894 33.8333 70.3975 33.9411C70.2857 34.0725 67.8135 32.8409 66.3281 31.9137C64.7684 30.9405 63.3988 29.8183 61.976 28.3483C61.4267 27.7807 60.8489 27.2415 60.692 27.1501C60.5279 27.0546 60.013 27.0311 59.48 27.0948C56.8592 27.4081 54.5821 25.9679 53.4583 23.2866C53.0127 22.2235 52.9865 22.0579 52.9604 20.1491C52.9452 19.0406 52.9293 18.0662 52.9247 17.9837C52.9203 17.9013 52.2609 17.0509 51.4595 16.0941L50.0026 14.3546L51.8498 12.1793C52.8658 10.983 53.7291 10.0041 53.768 10.0041C53.8071 10.0041 54.4973 10.775 55.302 11.7172ZM19.8854 13.5486C21.1637 15.171 21.3099 14.8542 16.8573 20.1083C14.7582 22.5853 12.8649 24.7209 12.6499 24.8544C12.0639 25.2181 11.6548 25.0039 10.6972 23.8322C9.30374 22.1275 9.15251 22.4694 13.6473 17.1594C15.7463 14.6796 17.6517 12.5541 17.8816 12.4361C18.4937 12.122 18.9693 12.3862 19.8854 13.5486ZM32.8368 27.3957L39.7916 35.5681L35.7536 40.3101L31.7157 45.0521L30.4391 42.4347C29.7369 40.9951 29.0502 39.6753 28.9133 39.5015C28.7763 39.3278 28.4232 39.1349 28.1286 39.0729C27.834 39.0108 26.5758 38.7245 25.3326 38.4366L23.0722 37.9131L21.6835 35.0833C20.7926 33.268 20.171 32.1811 19.9492 32.0514C19.7591 31.9401 18.769 31.6752 17.749 31.4628C16.7289 31.2505 15.865 31.0468 15.8292 31.0103C15.7613 30.9407 25.6827 19.2233 25.8094 19.2233C25.8495 19.2233 29.0117 22.9009 32.8368 27.3957ZM52.2552 25.3834C52.6539 26.1191 53.4188 27.0628 54.1391 27.7083L54.6496 28.1659L37.9113 47.8428C28.7053 58.6651 20.9996 67.628 20.7878 67.7604C20.2827 68.0759 19.3413 68.067 18.8056 67.7415C17.915 67.2004 17.51 65.4427 18.0533 64.4766C18.3405 63.9658 51.6621 24.7548 51.8089 24.7548C51.8668 24.7548 52.0677 25.0377 52.2552 25.3834ZM65.0078 65.3189C64.9881 65.3651 64.4584 65.982 63.8307 66.6895L62.6893 67.976L60.2844 67.4438L57.8796 66.9116L56.4773 64.0677C55.706 62.5035 54.98 61.1422 54.864 61.0425C54.7479 60.9428 53.4245 60.601 51.923 60.2828L49.1932 59.7045L47.8092 56.8761C47.0479 55.3206 46.2968 53.9506 46.1399 53.8318C45.9829 53.7127 44.6353 53.347 43.1453 53.0188C41.6551 52.6906 40.418 52.3632 40.3963 52.2915C40.3745 52.2196 40.0732 51.5952 39.7266 50.9037L39.0966 49.6466L42.2609 45.9165L45.4249 42.1864L55.2342 53.7106C60.6293 60.0488 65.0275 65.2726 65.0078 65.3189Z" fill="#1C1F34"/>
</svg>
