<svg width="335" height="228" viewBox="0 0 335 228" fill="none" xmlns="http://www.w3.org/2000/svg">
<path d="M217.358 24.3244V131.911C217.358 134.826 216.2 137.622 214.139 139.684C212.077 141.745 209.281 142.904 206.366 142.904H115.995L118.394 133.13L114.169 119.004L114.353 108.892L107.918 103.377V92.3466L103.874 104.664L106.879 110.424L102.035 121.21L107.536 134.474L101.667 142.904H11.5461C5.47504 142.904 0.553486 137.982 0.553467 131.911V20.4637" fill="white"/>
<path d="M216.807 24.3245V130.576C216.807 133.087 216.517 135.479 215.083 137.661C212.904 140.978 209.325 142.352 205.504 142.352H115.995L116.527 143.05L117.855 137.641L118.676 134.294C118.833 133.862 118.914 133.407 118.915 132.949C118.808 132.442 118.659 131.944 118.47 131.462L117.509 128.247L115.372 121.103C115.168 120.418 114.94 119.735 114.757 119.044C114.69 118.793 114.722 118.957 114.722 118.95C114.701 118.689 114.731 118.412 114.736 118.151L114.868 110.897C114.938 110.239 114.95 109.577 114.904 108.917C114.812 108.38 114.221 108.055 113.828 107.718C112.111 106.247 110.452 104.605 108.631 103.264C108.588 103.233 108.402 103.021 108.357 103.029C108.317 103.035 108.403 103.388 108.47 103.31C108.569 103.194 108.47 102.566 108.47 102.416V92.3466C108.461 92.0759 108.259 91.8509 107.99 91.8146C107.722 91.7783 107.467 91.9413 107.387 92.2L104.766 100.182C104.333 101.498 103.876 102.81 103.468 104.134C103.206 104.984 103.734 105.587 104.133 106.352L106.403 110.703V110.146L103.196 117.286C102.685 118.424 102.129 119.553 101.659 120.709C101.417 121.304 101.598 121.585 101.838 122.162L105.455 130.884C105.913 131.99 106.295 133.188 106.851 134.249C107.187 134.891 106.786 134.228 107.031 134.238C106.911 134.233 106.39 135.159 106.32 135.26L101.191 142.625L101.667 142.352H13.7371C11.6653 142.352 9.6636 142.406 7.6786 141.616C3.45284 139.933 1.10499 135.849 1.10499 131.419V20.4635C1.09548 20.1658 0.851362 19.9293 0.553464 19.9293C0.255566 19.9293 0.0114457 20.1658 0.00193699 20.4635V130.819C0.00193699 131.183 -0.00242124 131.547 0.00193699 131.911C0.0313892 136.107 2.30757 139.965 5.96578 142.019C8.75354 143.557 11.6603 143.455 14.6939 143.455H99.6905C100.33 143.505 100.972 143.505 101.612 143.455C102.053 143.383 102.185 143.123 102.424 142.78L104.591 139.667L107.186 135.941C107.501 135.488 108.151 134.882 108.054 134.293C107.943 133.625 107.466 132.875 107.209 132.255L105.483 128.093L103.687 123.763C103.386 123.038 103.143 121.866 102.644 121.25C102.395 120.942 102.417 121.536 102.563 121.373C102.771 121.034 102.934 120.67 103.05 120.29L104.845 116.293L106.663 112.243C106.884 111.752 107.505 110.857 107.411 110.278C107.306 109.973 107.16 109.684 106.976 109.419L105.903 107.362L104.877 105.396C104.768 105.187 104.67 104.961 104.545 104.761C104.413 104.546 104.409 104.242 104.381 104.6C104.341 105.092 104.537 104.409 104.572 104.304L105.063 102.809L106.495 98.4471L108.45 92.4935L107.367 92.3469V101.364C107.311 102.022 107.311 102.684 107.367 103.342C107.461 103.857 107.944 104.124 108.328 104.453L111.154 106.875L113.559 108.937C113.612 108.982 113.803 109.2 113.878 109.21C114.162 109.25 113.653 109.059 113.801 108.899C113.728 108.978 113.791 109.463 113.789 109.563L113.66 116.636C113.64 117.76 113.529 118.789 113.85 119.863L117.619 132.466C117.694 132.715 117.763 132.967 117.843 133.215C117.831 133.178 117.931 132.853 117.795 133.258C117.451 134.275 117.273 135.382 117.018 136.424L115.464 142.757C115.421 142.923 115.456 143.099 115.56 143.235C115.664 143.372 115.824 143.453 115.996 143.455H203.645C205.075 143.514 206.506 143.477 207.931 143.345C213.657 142.566 217.851 137.581 217.91 131.859C217.949 128.101 217.91 124.341 217.91 120.583V24.3245C217.9 24.0267 217.656 23.7903 217.358 23.7903C217.061 23.7903 216.816 24.0267 216.807 24.3245H216.807Z" fill="#1C1F34"/>
<path d="M0.553467 24.3511V11.5582C0.553467 8.64274 1.71161 5.84673 3.77313 3.78521C5.83464 1.7237 8.63065 0.565552 11.5461 0.565552H206.366C212.437 0.565552 217.358 5.48711 217.358 11.5582V24.3511H0.553467Z" fill="#1C1F34"/>
<path d="M1.10499 24.3512C1.10499 20.2089 1.09606 16.0665 1.10499 11.9242C1.11778 5.98834 5.61596 1.16702 11.6382 1.11711C14.6391 1.09226 17.6413 1.11711 20.6421 1.11711H205.419C208.279 1.11711 211.012 1.74318 213.235 3.69469C215.672 5.83331 216.807 8.81209 216.807 12.0064V24.3512L217.358 23.7996H9.35427C6.54497 23.7996 3.73117 23.7532 0.922186 23.7996C0.799383 23.8017 0.676368 23.7996 0.55353 23.7996C0.255783 23.8092 0.0193351 24.0533 0.0193351 24.3512C0.0193351 24.6491 0.255783 24.8932 0.55353 24.9027H208.558C211.367 24.9027 214.181 24.9492 216.99 24.9027C217.113 24.9007 217.236 24.9027 217.358 24.9027C217.661 24.8984 217.906 24.654 217.91 24.3512C217.91 20.1841 217.921 16.0168 217.91 11.8497C217.893 5.38708 212.885 0.0875511 206.35 0.0140588C203.55 -0.0175735 200.748 0.0140588 197.947 0.0140588H12.2112C8.71354 0.0140588 5.39373 1.14751 2.99565 3.80308C1.01523 6.03926 -0.0531764 8.93765 0.00203807 11.9242C-0.00239045 14.3276 0.00203807 16.7311 0.00203807 19.1345V24.3512C0.0123784 24.6483 0.256227 24.8838 0.553512 24.8838C0.850797 24.8838 1.09465 24.6483 1.10499 24.3512Z" fill="#1C1F34"/>
<ellipse cx="17.2934" cy="13.0133" rx="3.71451" ry="3.71451" fill="#EA2F2F"/>
<circle cx="31.7013" cy="13.0133" r="3.71451" fill="#FFC41F"/>
<circle cx="46.109" cy="13.0133" r="3.71451" fill="#389B48"/>
<path d="M157.331 227.288H182.957L187.381 220.061C189.137 221.699 190.29 223.881 190.655 226.255L190.814 227.288H197.756L197.785 218.23L197.851 197.835L176.72 192.053L176.677 209.162C176.351 214.222 171.549 217.098 162.891 219.886C160.526 220.644 158.695 222.532 158.009 224.919L157.331 227.288Z" fill="#FC7F3A"/>
<path d="M157.331 227.84H182.439C182.601 227.84 182.766 227.849 182.928 227.84C183.289 227.82 183.42 227.588 183.583 227.322L187.742 220.528L187.857 220.339L186.991 220.451C188.122 221.5 188.998 222.795 189.553 224.235C189.908 225.273 190.153 226.346 190.282 227.435C190.349 227.674 190.566 227.839 190.814 227.84H197.756C198.059 227.835 198.303 227.591 198.308 227.288L198.34 217.415L198.387 202.712L198.403 197.835C198.399 197.588 198.235 197.373 197.998 197.304L190.851 195.348L179.469 192.233L176.867 191.522C176.701 191.478 176.524 191.514 176.388 191.617C176.252 191.721 176.171 191.882 176.169 192.053L176.155 197.518L176.132 206.538L176.125 208.986C176.104 210.076 175.804 211.143 175.254 212.086C174.42 213.547 173.093 214.652 171.687 215.539C169.724 216.719 167.64 217.687 165.471 218.424C164.231 218.875 162.918 219.199 161.723 219.76C160.676 220.255 159.751 220.974 159.014 221.868C157.877 223.253 157.449 224.872 156.968 226.552L156.799 227.142C156.73 227.431 156.902 227.723 157.189 227.803C157.476 227.882 157.774 227.719 157.863 227.435C158.226 226.165 158.493 224.781 159.142 223.62C159.697 222.624 160.491 221.781 161.452 221.167C162.537 220.478 163.802 220.179 165.004 219.759C167.285 219.009 169.49 218.046 171.591 216.885C173.196 216.017 174.603 214.825 175.724 213.386C176.63 212.155 177.153 210.684 177.228 209.158C177.25 208.579 177.231 207.995 177.232 207.416L177.255 198.695L177.266 194.453C177.268 193.702 177.337 192.916 177.272 192.167C177.268 192.13 177.272 192.091 177.272 192.053L176.574 192.585L183.72 194.541L195.103 197.655L197.705 198.367L197.3 197.836L197.261 209.994L197.228 220.006L197.205 227.288L197.756 226.737H190.814L191.346 227.142C191.206 225.96 190.927 224.798 190.514 223.682C189.901 222.162 188.965 220.794 187.771 219.671C187.649 219.553 187.48 219.496 187.311 219.518C187.143 219.54 186.993 219.637 186.905 219.782L183.032 226.109L182.481 227.01L182.957 226.737H157.331C157.034 226.746 156.797 226.99 156.797 227.288C156.797 227.586 157.033 227.83 157.331 227.84Z" fill="#1C1F34"/>
<path d="M176.879 208.571C176.977 208.542 177.076 208.519 177.177 208.503C177.2 208.499 177.223 208.495 177.245 208.491C177.344 208.474 177.237 208.498 177.199 208.497C177.265 208.493 177.331 208.487 177.397 208.477C177.535 208.466 177.674 208.463 177.813 208.468C177.894 208.471 177.974 208.476 178.055 208.484C178.098 208.489 178.203 208.474 178.064 208.484C178.105 208.486 178.145 208.493 178.184 208.504C178.369 208.537 178.55 208.586 178.726 208.649C178.769 208.665 178.812 208.682 178.854 208.699C178.74 208.652 178.87 208.708 178.894 208.72C178.998 208.77 179.098 208.825 179.196 208.885C179.284 208.939 179.37 208.998 179.452 209.061C179.376 209.002 179.495 209.099 179.509 209.111C179.566 209.161 179.621 209.212 179.675 209.264C179.89 209.479 180.24 209.479 180.455 209.264C180.67 209.049 180.67 208.699 180.455 208.484C179.762 207.813 178.849 207.416 177.886 207.369C177.448 207.338 177.008 207.385 176.586 207.508C176.392 207.557 176.239 207.707 176.188 207.9C176.136 208.093 176.193 208.3 176.336 208.439C176.48 208.578 176.688 208.629 176.879 208.572L176.879 208.571Z" fill="#1C1F34"/>
<path d="M176.879 205.998C176.977 205.968 177.076 205.945 177.177 205.929C177.2 205.925 177.223 205.922 177.245 205.918C177.344 205.901 177.237 205.925 177.199 205.923C177.265 205.92 177.331 205.913 177.397 205.903C177.535 205.893 177.674 205.89 177.813 205.895C177.894 205.897 177.974 205.903 178.055 205.911C178.098 205.915 178.203 205.9 178.064 205.911C178.105 205.913 178.145 205.919 178.184 205.93C178.369 205.964 178.55 206.012 178.726 206.076C178.769 206.092 178.812 206.108 178.854 206.125C178.74 206.079 178.87 206.135 178.894 206.146C178.998 206.196 179.098 206.251 179.196 206.312C179.284 206.366 179.37 206.425 179.452 206.488C179.376 206.428 179.495 206.526 179.509 206.538C179.566 206.587 179.621 206.638 179.675 206.691C179.89 206.906 180.24 206.906 180.455 206.691C180.67 206.475 180.67 206.126 180.455 205.911C179.762 205.239 178.849 204.843 177.886 204.795C177.448 204.764 177.008 204.811 176.586 204.934C176.392 204.983 176.239 205.133 176.188 205.327C176.136 205.52 176.193 205.726 176.336 205.865C176.48 206.005 176.688 206.056 176.879 205.998L176.879 205.998Z" fill="#1C1F34"/>
<path d="M176.429 211.744C176.527 211.714 176.626 211.691 176.727 211.675C176.75 211.671 176.773 211.667 176.795 211.663C176.894 211.647 176.787 211.67 176.749 211.669C176.815 211.666 176.881 211.659 176.947 211.649C177.085 211.638 177.224 211.636 177.363 211.64C177.444 211.643 177.524 211.649 177.605 211.657C177.648 211.661 177.753 211.646 177.614 211.656C177.655 211.659 177.695 211.665 177.734 211.676C177.919 211.709 178.1 211.758 178.276 211.822C178.319 211.837 178.362 211.854 178.404 211.871C178.29 211.825 178.42 211.88 178.444 211.892C178.548 211.942 178.648 211.997 178.746 212.057C178.834 212.112 178.92 212.17 179.002 212.233C178.926 212.174 179.045 212.271 179.059 212.284C179.116 212.333 179.171 212.384 179.225 212.436C179.44 212.652 179.79 212.652 180.005 212.436C180.22 212.221 180.22 211.872 180.005 211.656C179.312 210.985 178.399 210.589 177.436 210.541C176.998 210.51 176.558 210.557 176.136 210.68C175.942 210.729 175.789 210.879 175.738 211.072C175.686 211.266 175.743 211.472 175.886 211.611C176.03 211.751 176.238 211.801 176.429 211.744L176.429 211.744Z" fill="#1C1F34"/>
<path d="M181.147 221.714C180.3 222.974 178.882 223.73 177.363 223.73H158.466C158.28 224.112 158.127 224.51 158.009 224.919L157.331 227.288H182.957L187.381 220.06C189.137 221.699 190.29 223.881 190.655 226.255L190.814 227.288H197.756L197.781 219.699H184.931C183.413 219.699 181.994 220.455 181.147 221.714Z" fill="#1C1F34"/>
<path d="M180.671 221.436C179.917 222.525 178.679 223.175 177.355 223.178C177.117 223.181 176.878 223.178 176.64 223.178H158.466C158.27 223.177 158.088 223.281 157.99 223.451C157.439 224.618 157.154 225.905 156.799 227.142C156.756 227.308 156.791 227.484 156.895 227.62C156.999 227.757 157.16 227.838 157.331 227.84H182.439C182.601 227.84 182.766 227.849 182.928 227.84C183.289 227.82 183.42 227.588 183.583 227.322L187.742 220.528L187.857 220.339L186.991 220.451C188.136 221.519 189.021 222.836 189.577 224.3C189.919 225.318 190.155 226.369 190.282 227.435C190.349 227.674 190.566 227.839 190.814 227.84H197.756C198.059 227.836 198.303 227.591 198.308 227.288L198.329 220.664L198.332 219.699C198.328 219.397 198.084 219.152 197.781 219.148H185.202C183.402 219.095 181.697 219.956 180.671 221.436C180.265 222.021 181.221 222.573 181.623 221.993C182.445 220.845 183.791 220.19 185.202 220.251H197.781L197.229 219.699L197.208 226.324L197.205 227.288L197.756 226.737H190.814L191.346 227.142C191.21 225.983 190.939 224.843 190.54 223.747C189.923 222.204 188.978 220.813 187.771 219.671C187.649 219.552 187.48 219.496 187.311 219.518C187.143 219.54 186.993 219.637 186.905 219.782L183.032 226.109L182.481 227.01L182.957 226.737H157.331L157.863 227.435C158.189 226.298 158.436 225.081 158.943 224.008L158.466 224.281H176.547C176.819 224.281 177.091 224.285 177.363 224.281C179.073 224.266 180.667 223.411 181.624 221.993C182.021 221.402 181.066 220.849 180.671 221.436Z" fill="#1C1F34"/>
<path d="M172.022 216.779H175.843C177.865 216.837 179.811 216.009 181.173 214.512C182.324 213.163 182.93 211.433 182.873 209.66V201.596C182.864 201.299 182.62 201.062 182.322 201.062C182.024 201.062 181.78 201.299 181.77 201.596V209.074C181.77 209.394 181.773 209.714 181.77 210.033C181.772 211.546 181.165 212.997 180.086 214.058C179.007 215.12 177.547 215.703 176.034 215.676C174.697 215.68 173.359 215.676 172.022 215.676C171.724 215.686 171.488 215.93 171.488 216.228C171.488 216.526 171.724 216.77 172.022 216.779H172.022Z" fill="#1C1F34"/>
<path d="M193.353 219.338C193.353 218.249 193.351 217.16 193.353 216.071C193.328 214.191 194.395 212.466 196.089 211.648C196.697 211.393 197.321 211.177 197.957 211.001C198.629 210.781 198.341 209.716 197.664 209.937C197.113 210.118 196.549 210.277 196.009 210.49C194.917 210.916 193.975 211.655 193.299 212.612C192.642 213.557 192.277 214.675 192.252 215.826C192.238 216.359 192.25 216.894 192.25 217.427V219.338C192.26 219.636 192.504 219.872 192.802 219.872C193.1 219.872 193.344 219.636 193.353 219.338H193.353Z" fill="#1C1F34"/>
<path d="M325.374 227.388L331.127 202.416L325.077 196.483C327.068 195.14 329.453 194.506 331.848 194.683L332.891 194.76L334.45 187.995L325.629 185.933L305.77 181.29L295.392 200.584L312.053 204.467C316.911 205.92 318.636 211.246 319.409 220.309C319.617 222.783 321.046 224.991 323.218 226.195L325.374 227.388Z" fill="#FC7F3A"/>
<path d="M325.906 227.535L326.88 223.307L328.979 214.194L330.971 205.549L331.543 203.067C331.579 202.909 331.622 202.751 331.653 202.591C331.722 202.226 331.54 202.049 331.313 201.825L325.626 196.248L325.467 196.092L325.356 196.959C326.663 196.073 328.157 195.502 329.721 195.289C330.776 195.187 331.838 195.194 332.891 195.311C333.139 195.31 333.356 195.145 333.423 194.906L334.982 188.141C335.058 187.848 334.887 187.548 334.596 187.463L324.982 185.215L310.666 181.868L305.917 180.758C305.676 180.696 305.423 180.799 305.294 181.012L301.784 187.537L296.193 197.93L294.915 200.305C294.831 200.454 294.82 200.632 294.884 200.79C294.948 200.948 295.081 201.068 295.245 201.115L300.607 202.365L309.414 204.418C311.297 204.857 313.128 205.149 314.606 206.529C315.773 207.702 316.64 209.139 317.134 210.718C317.836 212.854 318.309 215.058 318.545 217.294C318.708 218.597 318.738 219.937 318.984 221.227C319.212 222.406 319.706 223.516 320.429 224.475C321.523 225.922 323.013 226.712 324.559 227.567L325.096 227.864C325.718 228.208 326.275 227.256 325.653 226.912C324.49 226.269 323.184 225.694 322.196 224.791C321.32 223.996 320.664 222.988 320.289 221.866C319.888 220.647 319.884 219.338 319.741 218.073C319.521 215.723 319.082 213.399 318.43 211.131C317.951 209.409 317.128 207.803 316.012 206.408C315.016 205.222 313.689 204.361 312.199 203.935C311.665 203.791 311.119 203.683 310.58 203.558L302.048 201.569L297.906 200.604C297.165 200.431 296.403 200.181 295.649 200.078C295.612 200.072 295.575 200.06 295.538 200.052L295.868 200.862L299.378 194.337L304.968 183.944L306.246 181.568L305.624 181.822L317.463 184.59L327.212 186.869L334.303 188.527L333.918 187.848L332.359 194.613L332.891 194.208C331.738 194.088 330.576 194.093 329.424 194.226C327.768 194.465 326.188 195.073 324.799 196.006C324.654 196.094 324.557 196.244 324.535 196.412C324.513 196.581 324.569 196.75 324.687 196.872L329.983 202.067L330.737 202.806L330.596 202.27L328.65 210.716L325.55 224.168L324.843 227.241C324.683 227.932 325.747 228.227 325.906 227.535Z" fill="#1C1F34"/>
<path d="M314.514 205.311C314.507 205.21 314.507 205.109 314.514 205.007C314.517 204.954 314.521 204.9 314.526 204.846C314.529 204.816 314.533 204.786 314.536 204.756C314.545 204.664 314.51 204.92 314.533 204.781C314.554 204.644 314.583 204.507 314.619 204.372C314.64 204.291 314.665 204.212 314.692 204.133C314.704 204.096 314.718 204.06 314.731 204.025C314.752 203.969 314.813 203.91 314.733 204.015C314.78 203.934 314.82 203.849 314.855 203.761C314.901 203.674 314.952 203.589 315.006 203.506C315.034 203.463 315.063 203.421 315.093 203.379C315.116 203.348 315.159 203.253 315.103 203.366C315.163 203.274 315.237 203.191 315.32 203.12C315.402 203.037 315.489 202.962 315.577 202.886C315.625 202.848 315.623 202.848 315.571 202.888C315.596 202.87 315.621 202.852 315.646 202.834C315.697 202.797 315.749 202.762 315.802 202.727C315.972 202.628 316.076 202.445 316.075 202.248C316.074 202.051 315.968 201.87 315.797 201.772C315.626 201.674 315.416 201.676 315.245 201.775C314.139 202.497 313.453 203.713 313.41 205.034C313.404 205.127 313.405 205.219 313.411 205.311C313.411 205.616 313.658 205.863 313.963 205.863C314.267 205.863 314.514 205.616 314.514 205.311L314.514 205.311Z" fill="#1C1F34"/>
<path d="M311.757 204.208C311.75 204.107 311.75 204.005 311.757 203.904C311.759 203.85 311.763 203.797 311.769 203.743C311.771 203.713 311.775 203.683 311.778 203.653C311.787 203.561 311.753 203.817 311.775 203.678C311.797 203.54 311.826 203.404 311.861 203.269C311.883 203.188 311.908 203.108 311.935 203.029C311.947 202.993 311.96 202.957 311.974 202.921C311.995 202.866 312.056 202.807 311.975 202.912C312.022 202.831 312.063 202.746 312.097 202.658C312.144 202.571 312.194 202.486 312.248 202.403C312.277 202.36 312.306 202.318 312.336 202.276C312.358 202.245 312.402 202.15 312.345 202.262C312.406 202.171 312.479 202.088 312.563 202.017C312.645 201.934 312.732 201.859 312.819 201.783C312.867 201.745 312.866 201.745 312.814 201.785C312.839 201.767 312.863 201.748 312.888 201.73C312.94 201.694 312.992 201.659 313.045 201.624C313.308 201.471 313.397 201.133 313.243 200.87C313.089 200.607 312.751 200.518 312.488 200.672C311.381 201.394 310.696 202.61 310.652 203.931C310.647 204.023 310.648 204.116 310.654 204.208C310.654 204.513 310.901 204.76 311.205 204.76C311.51 204.76 311.757 204.513 311.757 204.208L311.757 204.208Z" fill="#1C1F34"/>
<path d="M309.367 203.473C309.36 203.372 309.36 203.27 309.367 203.169C309.369 203.115 309.373 203.061 309.378 203.008C309.381 202.978 309.385 202.948 309.388 202.918C309.397 202.826 309.362 203.082 309.385 202.943C309.407 202.805 309.436 202.668 309.471 202.534C309.493 202.453 309.517 202.373 309.545 202.294C309.557 202.258 309.57 202.222 309.584 202.186C309.605 202.13 309.666 202.072 309.585 202.177C309.632 202.095 309.673 202.011 309.707 201.923C309.754 201.836 309.804 201.751 309.858 201.668C309.886 201.625 309.916 201.583 309.946 201.541C309.968 201.51 310.012 201.415 309.955 201.527C310.016 201.436 310.089 201.353 310.173 201.282C310.254 201.199 310.342 201.124 310.429 201.048C310.477 201.009 310.475 201.01 310.424 201.05C310.448 201.031 310.473 201.013 310.498 200.995C310.549 200.958 310.602 200.923 310.655 200.889C310.918 200.735 311.006 200.397 310.853 200.134C310.699 199.871 310.361 199.783 310.098 199.937C308.991 200.658 308.306 201.875 308.262 203.196C308.257 203.288 308.257 203.381 308.264 203.473C308.264 203.777 308.511 204.024 308.815 204.024C309.12 204.024 309.367 203.777 309.367 203.473L309.367 203.473Z" fill="#1C1F34"/>
<path d="M325.289 202.929C326.327 204.037 326.745 205.589 326.404 207.068L322.161 225.483C322.492 225.75 322.846 225.989 323.218 226.195L325.374 227.388L331.127 202.416L325.077 196.483C327.068 195.14 329.453 194.506 331.848 194.683L332.891 194.76L334.45 187.995L327.06 186.267L324.175 198.789C323.834 200.268 324.252 201.82 325.289 202.929Z" fill="#1C1F34"/>
<path d="M324.9 203.319C325.796 204.294 326.158 205.645 325.868 206.938C325.813 207.192 325.751 207.445 325.693 207.699L324.758 211.759L322.245 222.665L321.63 225.336C321.576 225.528 321.63 225.733 321.771 225.873C322.824 226.625 323.936 227.291 325.096 227.864C325.244 227.948 325.423 227.96 325.581 227.896C325.739 227.831 325.859 227.698 325.906 227.535L326.88 223.307L328.98 214.194L330.971 205.549L331.543 203.067C331.579 202.909 331.622 202.75 331.653 202.591C331.722 202.226 331.54 202.048 331.313 201.825L325.626 196.248L325.468 196.092L325.356 196.958C326.686 196.062 328.206 195.487 329.796 195.28C330.827 195.188 331.863 195.199 332.892 195.311C333.139 195.31 333.357 195.145 333.423 194.906L334.982 188.141C335.058 187.848 334.887 187.548 334.597 187.463L328.146 185.955L327.207 185.735C326.914 185.659 326.613 185.83 326.528 186.12L323.711 198.351C323.239 200.101 323.687 201.971 324.9 203.319C325.378 203.845 326.156 203.063 325.68 202.539C324.675 201.431 324.455 200.031 324.781 198.615L325.38 196.013L327.141 188.37L327.592 186.414L326.914 186.799L333.364 188.307L334.303 188.527L333.918 187.848L332.36 194.613L332.892 194.208C331.763 194.09 330.626 194.092 329.498 194.216C327.817 194.453 326.211 195.065 324.799 196.006C324.654 196.095 324.557 196.244 324.535 196.413C324.513 196.581 324.569 196.75 324.688 196.873L329.984 202.067L330.738 202.806L330.596 202.27L328.65 210.716L325.551 224.168L324.843 227.241L325.653 226.912C324.619 226.34 323.482 225.827 322.552 225.093L322.693 225.63L324.403 218.208L326.739 208.068C326.804 207.785 326.873 207.503 326.935 207.22C327.314 205.548 326.844 203.797 325.68 202.539C325.193 202.019 324.415 202.801 324.9 203.319Z" fill="#1C1F34"/>
<path d="M318.427 210.736L319.279 207.035C319.738 205.042 319.501 202.985 318.28 201.293C317.225 199.867 315.675 198.886 313.935 198.542L309.699 197.566L306.096 196.736C305.405 196.577 305.11 197.64 305.802 197.799L313.032 199.465C314.358 199.77 315.612 200.108 316.64 201.078C318.115 202.482 318.733 204.565 318.26 206.547C317.964 207.846 317.665 209.144 317.363 210.442C317.204 211.133 318.267 211.428 318.426 210.736H318.427Z" fill="#1C1F34"/>
<path d="M325.737 190.506C324.67 190.26 323.603 190.014 322.536 189.769C320.7 189.375 319.259 187.954 318.84 186.124C318.726 185.477 318.654 184.823 318.624 184.166C318.561 183.465 317.457 183.458 317.521 184.166C317.576 184.777 317.611 185.394 317.7 186.001C318.054 188.323 319.764 190.207 322.041 190.785C322.562 190.917 323.089 191.027 323.613 191.148L325.443 191.57C326.134 191.729 326.429 190.666 325.737 190.506L325.737 190.506Z" fill="#1C1F34"/>
<path d="M212.632 81.2119L201.937 119.041L163.379 108.469L159.438 123.773L196.924 133.875C205.011 136.054 213.501 132.142 217.098 124.578L233.047 87.1039" fill="white"/>
<path d="M212.1 81.0652L211.04 84.8175L208.48 93.8726L205.394 104.788L202.725 114.227L201.844 117.342C201.674 117.83 201.533 118.327 201.423 118.831C201.419 118.853 201.413 118.874 201.406 118.895L202.084 118.509L198.24 117.456L189.013 114.926L177.899 111.878L168.288 109.243C166.727 108.815 165.169 108.318 163.592 107.955C163.57 107.95 163.548 107.943 163.525 107.937C163.232 107.86 162.932 108.031 162.847 108.322L161.512 113.506L159.396 121.724L158.906 123.626C158.831 123.919 159.001 124.219 159.292 124.304L164.329 125.662L175.75 128.74L188.17 132.087L196.072 134.216C197.21 134.54 198.371 134.776 199.545 134.921C202.669 135.251 205.825 134.754 208.697 133.481C212.781 131.677 216.035 128.401 217.81 124.304L220.84 117.186L225.79 105.554L230.634 94.1716L233.393 87.6888L233.523 87.3823C233.666 87.1179 233.58 86.788 233.326 86.6277C233.062 86.4759 232.726 86.5641 232.571 86.8256L230.633 91.3793L226.135 101.949L221.066 113.859L217.369 122.545C217.127 123.113 216.894 123.685 216.644 124.248C215.589 126.539 214.02 128.555 212.058 130.14C207.825 133.56 202.207 134.74 196.955 133.311C194.885 132.755 192.815 132.197 190.746 131.638L178.964 128.463L166.918 125.217L159.922 123.332L159.585 123.241L159.97 123.919L161.305 118.735L163.421 110.517L163.911 108.615L163.232 109L167.076 110.054L176.303 112.584L187.417 115.632L197.028 118.267C198.589 118.695 200.147 119.192 201.724 119.555C201.747 119.56 201.769 119.567 201.791 119.573C202.084 119.649 202.384 119.478 202.469 119.188L203.53 115.436L206.09 106.381L209.176 95.4652L211.844 86.026C212.277 84.4965 212.781 82.969 213.146 81.4217C213.151 81.4004 213.158 81.3795 213.164 81.3584C213.233 81.0692 213.061 80.7772 212.774 80.6982C212.487 80.6192 212.189 80.7814 212.1 81.0652L212.1 81.0652Z" fill="#1C1F34"/>
<path d="M234.244 90.7016L227.311 119.401C224.574 117.877 218.73 115.472 214.731 114.224C212.545 113.542 207.088 108.25 205.102 107.847L213.158 78.5532C214.307 74.3771 218.104 71.4831 222.435 71.4832H229.548" fill="white"/>
<path d="M233.712 90.5549L231.37 100.25L227.637 115.704L226.78 119.254L227.59 118.924C225.988 118.065 224.342 117.29 222.659 116.603C220.717 115.781 218.752 115.01 216.76 114.316C215.998 114.098 215.247 113.84 214.511 113.543C213.949 113.254 213.411 112.921 212.901 112.548C211.565 111.611 210.298 110.579 208.999 109.593C208.326 109.083 207.647 108.577 206.935 108.123C206.423 107.759 205.853 107.486 205.249 107.315L205.634 107.994L207.16 102.446L210.335 90.9016L213.1 80.846C213.291 80.1515 213.482 79.457 213.673 78.7624C214.297 76.4704 215.785 74.5099 217.825 73.2935C219.075 72.5542 220.484 72.1269 221.933 72.0475C222.503 72.018 223.077 72.0345 223.647 72.0345H229.548C229.846 72.025 230.083 71.7809 230.083 71.483C230.083 71.1851 229.846 70.941 229.548 70.9315H224.956C223.102 70.9315 221.23 70.8256 219.433 71.3841C216.565 72.2829 214.236 74.3951 213.062 77.1619C212.757 77.9502 212.504 78.7574 212.304 79.5786L209.76 88.8319L206.475 100.774C205.851 103.045 205.155 105.309 204.599 107.597C204.59 107.632 204.58 107.666 204.57 107.701C204.493 107.994 204.664 108.295 204.955 108.379C205.427 108.512 205.872 108.725 206.272 109.009C206.889 109.394 207.479 109.824 208.062 110.26C209.392 111.254 210.68 112.304 212.028 113.275C212.563 113.674 213.124 114.038 213.706 114.367C214.321 114.664 214.962 114.906 215.62 115.091C217.598 115.751 219.548 116.497 221.476 117.294C223.376 118.049 225.231 118.911 227.033 119.877C227.182 119.961 227.36 119.972 227.518 119.908C227.676 119.844 227.796 119.711 227.844 119.547L230.185 109.853L233.918 94.3982L234.776 90.8482C234.943 90.1584 233.879 89.864 233.712 90.5549H233.712Z" fill="#1C1F34"/>
<path d="M220.312 119.941C220.775 118.46 218.576 116.328 214.783 114.217L211.719 121.417C216.458 121.981 219.822 121.51 220.312 119.941Z" fill="#1C1F34"/>
<path d="M220.844 120.088C221.175 118.936 220.395 117.835 219.645 117.041C218.355 115.676 216.689 114.651 215.062 113.741C214.798 113.589 214.462 113.677 214.307 113.938L211.631 120.227L211.243 121.139C211.15 121.31 211.152 121.517 211.249 121.686C211.346 121.856 211.524 121.962 211.719 121.968C213.759 122.207 215.873 122.352 217.906 121.985C219.064 121.777 220.433 121.312 220.844 120.088C221.07 119.413 220.006 119.124 219.78 119.794C219.728 119.93 219.647 120.052 219.544 120.153C219.388 120.296 219.212 120.414 219.022 120.505C218.479 120.75 217.9 120.907 217.308 120.971C215.448 121.175 213.57 121.14 211.719 120.865L212.195 121.695L214.872 115.407L215.26 114.495L214.505 114.693C216.004 115.472 217.393 116.445 218.636 117.589C219.035 117.954 219.371 118.383 219.632 118.857C219.803 119.138 219.856 119.474 219.78 119.794C219.712 120.083 219.884 120.375 220.171 120.454C220.457 120.533 220.755 120.371 220.844 120.088Z" fill="#1C1F34"/>
<path d="M210.112 112.05C207.926 111.368 207.089 108.25 205.102 107.847L202.638 116.562L201.937 119.041L163.379 108.469L159.438 123.773L194.629 136.922C202.717 139.101 213.501 132.142 217.098 124.578L218.638 120.961L220.415 116.334C217.132 114.567 213.681 113.132 210.112 112.05Z" fill="#FC7272"/>
<path d="M210.259 111.519C208.092 110.799 207.562 107.837 205.249 107.316C204.956 107.241 204.656 107.411 204.57 107.701C203.749 110.606 202.928 113.51 202.106 116.415C201.873 117.242 201.639 118.068 201.405 118.895L202.084 118.51L198.24 117.456L189.013 114.926L177.899 111.878L168.288 109.243C166.727 108.815 165.169 108.318 163.592 107.955C163.57 107.95 163.548 107.943 163.525 107.937C163.232 107.861 162.932 108.031 162.847 108.322L161.512 113.506L159.396 121.724L158.906 123.626C158.834 123.919 159.003 124.217 159.292 124.305L161.587 125.162L167.445 127.351L175.204 130.25L183.29 133.271L190.108 135.819L194.071 137.3C196.33 138.144 198.964 137.989 201.281 137.489C205.396 136.602 209.224 134.384 212.342 131.595C213.885 130.228 215.245 128.668 216.388 126.952C217.096 125.827 217.7 124.639 218.193 123.405C219.037 121.422 219.817 119.424 220.589 117.413L220.947 116.481C221.013 116.24 220.909 115.985 220.694 115.858C217.371 114.064 213.875 112.61 210.259 111.518C209.58 111.306 209.29 112.37 209.966 112.582C213.49 113.645 216.898 115.062 220.137 116.811L219.884 116.188L218.762 119.107L218.174 120.637C218.126 120.763 218.073 120.896 218.153 120.703C218.094 120.847 218.031 120.989 217.97 121.133C217.524 122.181 217.099 123.241 216.631 124.279C215.853 125.92 214.833 127.434 213.604 128.771C210.822 131.925 207.292 134.328 203.337 135.758C201.477 136.441 199.508 136.785 197.526 136.773C196.545 136.781 195.568 136.634 194.632 136.336C191.427 135.189 188.252 133.952 185.063 132.76L169.299 126.87L162.965 124.504C161.892 124.103 160.822 123.639 159.729 123.294C159.68 123.279 159.633 123.258 159.585 123.241L159.97 123.919L161.305 118.735L163.421 110.517L163.911 108.615L163.233 109L167.076 110.054L176.303 112.584L187.417 115.632L197.029 118.267C198.589 118.695 200.147 119.192 201.725 119.555C201.747 119.56 201.769 119.567 201.791 119.573C202.084 119.649 202.384 119.478 202.469 119.188C203.363 116.026 204.257 112.864 205.151 109.701L205.634 107.993L204.956 108.379C205.99 108.612 206.652 109.623 207.276 110.4C208.014 111.32 208.815 112.2 209.966 112.582C210.641 112.806 210.931 111.741 210.259 111.519Z" fill="#1C1F34"/>
<path d="M135.036 130.962L71.065 136.961L67.4442 133.487L70.2781 128.62L65.3076 123.193L69.1499 116.657L134.842 110.762L132.317 120.668L136.008 125.718L135.036 130.962Z" fill="#FFC41F"/>
<path d="M135.037 130.411L133.33 130.571L128.683 131.007L121.81 131.651L113.38 132.442L104.188 133.304L94.9091 134.174L86.2562 134.985L78.9413 135.671L73.6771 136.165C72.8575 136.242 71.9802 136.24 71.1715 136.4C71.1363 136.405 71.1009 136.408 71.0654 136.41L71.4556 136.572L67.8348 133.097L67.921 133.766L70.7549 128.898C70.8765 128.68 70.8414 128.409 70.6687 128.229L65.6982 122.803L65.7845 123.471L69.1383 117.766L69.6266 116.936L69.1504 117.209L70.9087 117.051L75.6936 116.622L82.7704 115.987L91.3621 115.216L100.815 114.367L110.359 113.511L119.257 112.712L126.776 112.038L132.162 111.554C133.007 111.479 133.895 111.472 134.731 111.324C134.767 111.317 134.806 111.317 134.843 111.314L134.311 110.616L132.552 117.516C132.302 118.495 132.014 119.473 131.801 120.461C131.722 120.826 131.882 121.002 132.078 121.27L133.225 122.84L135.532 125.997L135.476 125.572L134.505 130.816C134.376 131.51 135.439 131.807 135.568 131.109L136.487 126.149C136.57 125.914 136.565 125.656 136.472 125.424C136.342 125.22 136.2 125.026 136.046 124.84L134.178 122.284L132.794 120.39L132.849 120.815L135.061 112.136L135.374 110.909C135.418 110.743 135.383 110.566 135.279 110.43C135.175 110.293 135.014 110.213 134.842 110.211L132.662 110.406L126.806 110.932L118.302 111.695L108.177 112.604L97.4585 113.566L87.1748 114.488L78.3529 115.28L72.0206 115.848C71.0825 115.933 70.1421 116.003 69.2053 116.101C68.9681 116.115 68.7535 116.246 68.6317 116.45C68.3611 116.877 68.1182 117.324 67.8622 117.759L65.3509 122.031L64.8315 122.915C64.7099 123.132 64.7449 123.404 64.9177 123.583L69.8882 129.01L69.8019 128.341L66.968 133.209C66.845 133.426 66.8801 133.699 67.0543 133.877L69.7735 136.487C70.1402 136.838 70.6202 137.531 71.1794 137.502C72.1273 137.454 73.0783 137.324 74.0228 137.236L80.0473 136.671L88.3016 135.897L97.9531 134.991L108.019 134.048L117.682 133.141L125.959 132.365L132.019 131.797C132.984 131.706 133.949 131.623 134.914 131.525C134.955 131.521 134.995 131.518 135.037 131.514C135.737 131.448 135.744 130.344 135.037 130.411Z" fill="#1C1F34"/>
<path d="M225.471 71.4508H248.819C251.815 71.4508 253.38 72.6142 254.666 76.7424C254.666 76.7424 262.408 105.504 263.762 119.209C246.137 120.446 217.271 119.149 217.271 119.149L224.22 82.1476" fill="white"/>
<path d="M225.471 72.0024H236.662C240.694 72.0024 244.725 71.9917 248.757 72.0024C249.793 72.0051 250.837 72.1268 251.714 72.7229C253.043 73.6264 253.707 75.4172 254.134 76.8894C254.411 77.8437 254.644 78.8133 254.894 79.7749C256.373 85.4637 257.77 91.1732 259.085 96.9035C260.613 103.602 262.104 110.354 262.977 117.174C263.064 117.852 263.142 118.53 263.21 119.209L263.762 118.657C255.975 119.201 248.151 119.236 240.348 119.175C233.894 119.125 227.442 118.981 220.991 118.744C219.751 118.699 218.511 118.653 217.271 118.598L217.803 119.296L218.494 115.617L220.153 106.783L222.16 96.094L223.896 86.8518C224.177 85.3545 224.483 83.8596 224.74 82.3579C224.744 82.3368 224.748 82.3157 224.752 82.2944C224.882 81.6006 223.819 81.3032 223.688 82.0011L222.997 85.6796L221.338 94.514L219.331 105.203L217.595 114.445C217.314 115.942 217.008 117.437 216.751 118.939C216.747 118.96 216.743 118.981 216.739 119.003C216.697 119.168 216.733 119.344 216.837 119.48C216.94 119.616 217.1 119.697 217.271 119.701C220.878 119.863 224.488 119.972 228.097 120.066C235.732 120.265 243.372 120.364 251.009 120.249C255.262 120.184 259.518 120.057 263.762 119.76C264.065 119.757 264.31 119.512 264.313 119.209C263.641 112.455 262.188 105.763 260.719 99.1456C259.35 92.9778 257.855 86.8377 256.278 80.7198C255.936 79.392 255.599 78.0622 255.236 76.7398C254.545 74.2155 253.192 71.5278 250.379 71.0295C249.046 70.7935 247.614 70.8995 246.266 70.8995H225.471C225.173 70.909 224.937 71.1531 224.937 71.451C224.937 71.7489 225.173 71.993 225.471 72.0025V72.0024Z" fill="#1C1F34"/>
<path d="M238.114 119.758L195.667 120.164C183.973 120.276 174.349 129.397 173.61 141.068L171.765 203.063L200.981 204.205C200.981 204.205 202.477 158.495 201.797 145.19L240.145 144.717" fill="#5E5FB8"/>
<path d="M238.114 119.207L235.872 119.228L230.029 119.284L222.026 119.361L213.175 119.445L204.947 119.524L198.675 119.584C197.694 119.594 196.713 119.603 195.732 119.612C183.803 119.688 173.938 128.923 173.076 140.821C173.032 141.409 173.031 142.002 173.013 142.592L172.885 146.893L172.695 153.281L172.461 161.168L172.203 169.828L171.94 178.65L171.691 187.029L171.477 194.234L171.315 199.662L171.225 202.677L171.214 203.062C171.219 203.365 171.463 203.609 171.765 203.614L181.631 204L197.362 204.615L200.982 204.756C201.284 204.752 201.529 204.508 201.533 204.205C201.584 202.647 201.632 201.088 201.678 199.529C201.793 195.668 201.9 191.806 201.999 187.944C202.128 182.913 202.24 177.882 202.335 172.851C202.428 167.825 202.501 162.797 202.521 157.77C202.537 153.92 202.545 150.065 202.395 146.218C202.382 145.875 202.367 145.533 202.349 145.19L201.798 145.742L205.619 145.695L214.792 145.581L225.841 145.445L235.43 145.326C236.975 145.307 238.534 145.346 240.078 145.269C240.1 145.268 240.123 145.268 240.145 145.268C240.854 145.259 240.856 144.156 240.145 144.165L236.324 144.212L227.151 144.326L216.102 144.462L206.513 144.58C204.968 144.599 203.409 144.561 201.865 144.638C201.843 144.639 201.82 144.638 201.798 144.639C201.495 144.642 201.249 144.887 201.246 145.19C201.431 148.839 201.428 152.5 201.423 156.153C201.416 161.086 201.351 166.019 201.266 170.951C201.178 176.044 201.069 181.137 200.939 186.229C200.838 190.303 200.727 194.377 200.607 198.451C200.569 199.739 200.53 201.028 200.49 202.317C200.436 202.918 200.417 203.521 200.433 204.125C200.433 204.152 200.432 204.178 200.43 204.205L200.982 203.653L191.116 203.268L175.385 202.653L171.765 202.511L172.317 203.063L172.363 201.494L172.491 197.21L172.681 190.813L172.914 183.003L173.17 174.39L173.431 165.609L173.68 157.258L173.894 150.056L174.057 144.598L174.148 141.518C174.222 139.458 174.6 137.42 175.271 135.471C177.854 127.888 184.39 122.333 192.291 121.008C193.802 120.786 195.329 120.685 196.856 120.705L201.764 120.658L209.273 120.586L217.944 120.503L226.453 120.421L233.443 120.355L237.558 120.315L238.113 120.31C238.411 120.3 238.648 120.056 238.648 119.758C238.648 119.461 238.411 119.216 238.113 119.207L238.114 119.207Z" fill="#1C1F34"/>
<path d="M233.578 119.838L234.332 128.024C234.391 128.691 234.37 129.362 234.268 130.024L228.004 170.989C226.236 182.548 233.692 193.512 245.092 196.117L305.986 207.896L311.806 179.243C311.806 179.243 272.278 171.395 259.037 169.929L265.104 137.204C266.347 131.812 264.749 115.783 263.634 110.363L233.578 119.838Z" fill="#5E5FB8"/>
<path d="M233.027 119.838L233.674 126.87C233.813 127.874 233.833 128.892 233.733 129.901C233.69 130.201 233.641 130.5 233.596 130.8L231.591 143.909L228.845 161.864C228.387 164.856 227.921 167.848 227.472 170.842C226.108 179.591 229.917 188.342 237.25 193.306C239.642 194.955 242.34 196.107 245.185 196.695L248.12 197.263L261.418 199.835L279.45 203.323L296.144 206.552L305.41 208.345L305.839 208.428C306.132 208.504 306.432 208.333 306.517 208.043L308.492 198.322L311.617 182.94L312.338 179.39C312.414 179.096 312.244 178.796 311.953 178.711C310.611 178.445 309.268 178.181 307.925 177.92C304.535 177.259 301.143 176.606 297.75 175.961C293.321 175.119 288.889 174.295 284.455 173.486C279.939 172.666 275.42 171.865 270.893 171.116C267.286 170.519 263.673 169.938 260.043 169.495C259.708 169.454 259.373 169.415 259.037 169.377L259.569 170.075L260.811 163.374L263.334 149.77L265.359 138.842C265.49 138.136 265.64 137.431 265.76 136.723C266.184 134.232 266.144 131.653 266.077 129.135C265.938 123.244 265.382 117.37 264.414 111.557C264.338 111.109 264.256 110.662 264.165 110.217C264.082 109.925 263.78 109.753 263.487 109.832L253.263 113.055L237.111 118.146L233.431 119.306C232.756 119.519 233.045 120.584 233.725 120.37L243.948 117.147L260.101 112.055L263.78 110.895L263.102 110.51C263.581 112.85 263.87 115.232 264.135 117.604C264.483 120.731 264.746 123.87 264.894 127.013C265.075 129.764 265.058 132.523 264.845 135.271C264.759 136.169 264.574 137.048 264.41 137.933L262.552 147.955L260.005 161.693C259.513 164.349 258.991 167.002 258.528 169.664C258.521 169.703 258.513 169.743 258.506 169.782C258.465 169.948 258.501 170.123 258.604 170.259C258.708 170.394 258.867 170.476 259.037 170.48C262.459 170.861 265.863 171.406 269.259 171.959C273.698 172.682 278.128 173.46 282.554 174.259C287.048 175.069 291.538 175.901 296.024 176.753C299.567 177.423 303.109 178.103 306.649 178.792C307.773 179.011 308.897 179.231 310.02 179.451C310.536 179.593 311.061 179.696 311.591 179.761C311.614 179.764 311.637 179.769 311.66 179.775L311.274 179.097L309.3 188.817L306.175 204.2L305.454 207.75L306.132 207.365L299.664 206.113L284.292 203.14L266.068 199.615L251.042 196.708C248.667 196.249 246.215 195.918 243.89 195.233C235.501 192.706 229.42 185.432 228.42 176.728C228.013 172.891 228.855 169.048 229.433 165.268L232.05 148.155L234.379 132.925C234.519 132.009 234.664 131.093 234.8 130.175C234.927 129.029 234.915 127.871 234.764 126.728L234.363 122.372L234.129 119.838C234.065 119.137 232.961 119.13 233.027 119.838Z" fill="#1C1F34"/>
<path d="M229.809 120.311L230.2 125.161C230.391 127.528 230.592 129.861 231.347 132.137C231.705 133.216 232.169 134.26 232.603 135.31C232.693 135.597 232.989 135.766 233.282 135.695C233.574 135.613 233.746 135.311 233.667 135.017C233.344 134.238 233.007 133.463 232.706 132.675C232.044 130.941 231.629 129.123 231.473 127.274C231.335 125.609 231.205 123.942 231.07 122.276L230.912 120.311C230.855 119.608 229.752 119.602 229.809 120.311H229.809Z" fill="#1C1F34"/>
<path d="M170.147 127.817L162.693 124.899C160.91 124.2 159.032 123.772 157.122 123.63C152.452 123.281 141.929 125.438 142.481 120.291C142.612 119.067 146.614 117.989 147.905 117.658C149.33 117.274 150.264 115.911 150.106 114.444C146.605 108.165 136.612 115.65 134.014 115.682C132.78 115.697 132.486 114.881 132.518 114.021C132.571 112.913 133.146 111.896 134.069 111.281L133.864 110.981C132.906 109.579 133.145 107.683 134.422 106.563L140.235 102.889C143.095 101.077 146.538 100.424 149.862 101.063L154.063 101.723C157.447 102.373 159.767 103.299 161.748 106.119C162.837 107.669 164.458 108.764 166.301 109.196L169.023 109.834" fill="#FC7272"/>
<path d="M170.294 127.285L166.282 125.714C164.783 125.127 163.291 124.477 161.759 123.98C160.094 123.435 158.362 123.122 156.611 123.05C155.58 123.012 154.546 123.057 153.515 123.101C151.196 123.2 148.836 123.384 146.523 123.102C145.657 123.034 144.813 122.794 144.042 122.394C143.461 122.098 143.074 121.524 143.018 120.874C142.985 120.419 142.984 120.294 143.282 120.036C143.697 119.714 144.158 119.458 144.65 119.275C145.699 118.85 146.777 118.503 147.877 118.235C149.294 117.911 150.378 116.765 150.622 115.332C150.686 115.015 150.695 114.69 150.648 114.371C150.547 114.056 150.382 113.766 150.164 113.518C149.833 113.068 149.434 112.672 148.982 112.345C147.208 111.075 144.859 111.269 142.857 111.783C140.692 112.34 138.662 113.311 136.628 114.217C135.925 114.559 135.195 114.842 134.444 115.06C134.374 115.078 134.304 115.093 134.233 115.108C134.193 115.117 134.021 115.134 134.167 115.121C133.939 115.155 133.705 115.131 133.488 115.053C132.982 114.828 133.027 114.095 133.111 113.646C133.263 112.88 133.706 112.203 134.348 111.758C134.607 111.601 134.695 111.267 134.546 111.003C134.073 110.407 133.822 109.665 133.835 108.904C133.876 108.185 134.195 107.511 134.725 107.024C135.405 106.494 136.219 106.08 136.947 105.62C139.033 104.302 141.132 102.717 143.505 101.97C145.523 101.352 147.659 101.224 149.736 101.598C150.748 101.768 151.763 101.917 152.776 102.076C153.995 102.245 155.2 102.505 156.38 102.855C158.028 103.347 159.504 104.293 160.639 105.584C161.37 106.429 161.936 107.358 162.817 108.071C163.686 108.78 164.688 109.308 165.763 109.625C166.785 109.922 167.841 110.123 168.877 110.366C169.567 110.528 169.862 109.465 169.17 109.303C168.264 109.09 167.356 108.884 166.452 108.665C165.452 108.43 164.513 107.988 163.695 107.368C162.9 106.758 162.356 105.972 161.743 105.197C160.595 103.753 159.071 102.653 157.338 102.02C156.051 101.566 154.72 101.243 153.367 101.058C152.267 100.886 151.164 100.724 150.065 100.54C147.982 100.153 145.839 100.221 143.784 100.74C141.121 101.449 138.87 103.1 136.572 104.552C135.767 105.061 134.917 105.532 134.143 106.087C133.287 106.777 132.772 107.805 132.732 108.904C132.71 109.861 133.014 110.797 133.593 111.56L133.791 110.805C132.541 111.687 131.662 113.278 132.043 114.838C132.338 116.042 133.57 116.398 134.665 116.141C135.469 115.917 136.251 115.619 137 115.251C137.976 114.819 138.944 114.367 139.93 113.959C141.933 113.132 144.23 112.247 146.439 112.531C147.395 112.638 148.284 113.077 148.95 113.772C149.127 113.962 149.287 114.166 149.427 114.384C149.458 114.442 149.492 114.497 149.53 114.55C149.667 114.7 149.592 114.509 149.555 114.444C149.6 114.664 149.597 114.892 149.546 115.111C149.442 115.827 149.029 116.462 148.417 116.847C147.943 117.083 147.438 117.253 146.917 117.351C146.309 117.522 145.704 117.708 145.108 117.921C144.117 118.277 142.785 118.714 142.165 119.635C141.689 120.341 141.889 121.474 142.284 122.176C142.754 122.913 143.469 123.461 144.303 123.723C146.381 124.503 148.816 124.381 150.995 124.309C153.329 124.232 155.692 123.982 158.02 124.27C160.273 124.548 162.34 125.349 164.431 126.168L169.649 128.211L170.001 128.349C170.662 128.608 170.949 127.541 170.294 127.285L170.294 127.285Z" fill="#1C1F34"/>
<path d="M304.263 178.753L299.268 206.055L304.263 178.753Z" fill="#5E5FB8"/>
<path d="M303.732 178.606L302.043 187.837L299.352 202.542L298.736 205.909C298.609 206.603 299.672 206.9 299.8 206.202L301.488 196.971L304.179 182.266L304.795 178.9C304.922 178.206 303.859 177.908 303.732 178.606Z" fill="#1C1F34"/>
<path d="M171.994 195.369L201.22 196.289L171.994 195.369Z" fill="#5E5FB8"/>
<path d="M171.994 195.92L181.863 196.231L197.599 196.726L201.221 196.84C201.931 196.863 201.93 195.76 201.221 195.737L191.352 195.427L175.615 194.931L171.994 194.817C171.284 194.795 171.285 195.898 171.994 195.92Z" fill="#1C1F34"/>
<path d="M142.555 191.318C143.545 189.266 142.833 186.788 140.91 185.595C138.672 184.28 136.72 186.807 135.699 188.53C135.286 189.224 134.924 189.948 134.617 190.696L135.419 190.806C135.271 188.149 134.672 185.537 133.648 183.086C132.911 181.171 131.741 179.457 130.231 178.083C128.86 176.909 126.935 175.917 125.089 176.006C122.275 176.141 122.134 179.328 122.4 181.498C122.84 185.088 124.121 188.582 125.444 191.922C126.338 194.179 127.296 196.421 128.365 198.6L129.007 198.099C127.627 196.482 126.126 194.977 124.515 193.597C122.252 191.639 119.264 189.23 116.116 189.269C114.801 189.255 113.56 189.886 112.785 190.962C112.251 191.907 112.201 193.056 112.651 194.045C113.725 196.916 116.276 199.259 118.483 201.252C120.241 202.85 122.089 204.344 124.017 205.726L124.332 204.97C122.314 204.236 120.182 203.88 118.038 203.917C116.748 203.969 115.329 204.258 114.394 205.234C113.176 206.505 113.187 208.501 113.788 210.061C114.308 211.386 115.113 212.578 116.144 213.549L116.639 212.9C115.908 212.415 115.017 212.241 114.161 212.419C112.002 212.977 111.84 216.016 111.829 217.808L112.129 217.409C111.358 217.646 109.705 218.291 110.046 219.435C110.111 219.648 110.332 219.769 110.544 219.71C110.757 219.651 110.884 219.432 110.833 219.215C110.814 219.15 110.815 219.275 110.833 219.203C110.846 219.133 110.87 219.064 110.906 219.002C111.174 218.542 111.888 218.347 112.346 218.206C112.521 218.154 112.643 217.993 112.646 217.808C112.654 216.451 112.673 213.483 114.509 213.187C115.113 213.121 115.721 213.272 116.226 213.614C116.404 213.712 116.625 213.665 116.748 213.503C116.871 213.341 116.86 213.113 116.721 212.964C115.039 211.391 113.002 207.969 114.935 205.858C115.77 204.947 117.127 204.755 118.292 204.737C119.55 204.739 120.803 204.89 122.026 205.188C122.732 205.342 123.43 205.536 124.115 205.767C124.579 205.929 124.787 205.265 124.43 205.012C122.99 203.986 121.606 202.872 120.261 201.722C117.99 199.778 115.613 197.65 114.056 195.053C113.535 194.185 112.973 193.071 113.209 192.023C113.452 190.946 114.627 190.267 115.638 190.127C116.99 189.94 118.379 190.478 119.559 191.092C120.984 191.861 122.321 192.785 123.548 193.848C125.307 195.317 126.941 196.934 128.43 198.683C128.746 199.058 129.267 198.58 129.071 198.182C128.272 196.554 127.542 194.887 126.846 193.213C125.464 190.057 124.365 186.782 123.561 183.428C123.207 182.051 123.066 180.627 123.142 179.206C123.221 178.347 123.5 177.348 124.36 176.985C125.703 176.418 127.549 177.251 128.671 177.949C130.324 179.061 131.638 180.617 132.466 182.444C133.727 185.057 134.454 187.901 134.603 190.806C134.609 191.008 134.76 191.176 134.958 191.203C135.156 191.231 135.345 191.109 135.405 190.916C135.393 190.945 135.407 190.91 135.454 190.803C135.525 190.641 135.599 190.48 135.675 190.32C135.899 189.852 136.141 189.393 136.405 188.947C137.01 187.925 137.791 186.731 138.902 186.225C140.293 185.591 141.714 187.001 142.055 188.296C142.201 188.887 142.209 189.504 142.08 190.099C142.035 190.31 141.98 190.519 141.912 190.724C141.89 190.794 141.806 191 141.85 190.9C141.637 191.382 142.341 191.803 142.555 191.318L142.555 191.318Z" fill="#1C1F34"/>
<path d="M237.988 82.0514C232.657 82.0514 228.336 77.7302 228.336 72.3996V71.4832H247.64V72.3996C247.64 77.7302 243.318 82.0514 237.988 82.0514Z" fill="#FC7272"/>
<path d="M237.987 81.4999C233.66 81.467 229.942 78.4199 229.061 74.1836C228.912 73.2916 228.854 72.3868 228.887 71.4832L228.336 72.0347H247.639L247.088 71.4832C247.112 72.2272 247.082 72.9721 246.998 73.7117C246.845 74.7538 246.513 75.7615 246.015 76.69C244.438 79.6576 241.348 81.5088 237.987 81.4999C237.69 81.5094 237.453 81.7535 237.453 82.0514C237.453 82.3493 237.69 82.5934 237.987 82.6029C242.786 82.5647 246.924 79.2195 247.966 74.5352C248.146 73.5284 248.222 72.5055 248.191 71.4832C248.186 71.1804 247.942 70.9359 247.639 70.9316H228.336C228.033 70.9359 227.788 71.1804 227.784 71.4832C227.762 72.3459 227.809 73.2089 227.923 74.0643C228.109 75.2169 228.495 76.3283 229.063 77.3484C230.203 79.3863 232.002 80.9765 234.165 81.8583C235.379 82.3516 236.677 82.6045 237.987 82.6029C238.285 82.5934 238.522 82.3493 238.522 82.0514C238.522 81.7535 238.285 81.5094 237.987 81.4999Z" fill="#1C1F34"/>
<path d="M243.73 73.2213L243.73 61.1086L232.196 62.9317L231.858 73.7953" fill="#FC7272"/>
<path d="M244.282 73.2215L244.282 62.6373V61.1087C244.278 60.9378 244.197 60.7779 244.061 60.6743C243.925 60.5708 243.749 60.5349 243.584 60.5769L233.479 62.174L232.05 62.3998C231.811 62.4669 231.646 62.6839 231.645 62.9317L231.349 72.4445L231.307 73.7954C231.285 74.5054 232.388 74.5047 232.41 73.7954L232.706 64.2825L232.748 62.9317L232.343 63.4635L242.448 61.8664L243.877 61.6405L243.179 61.1087L243.179 71.6929V73.2215C243.188 73.5195 243.432 73.7563 243.73 73.7563C244.028 73.7563 244.273 73.5195 244.282 73.2215H244.282Z" fill="#1C1F34"/>
<path d="M243.726 62.8156C244.713 58.5195 248.022 56.1889 248.414 52.8491C248.641 50.9098 245.968 45.3562 245.968 45.3562L226.719 44.6866C226.719 44.6866 219.355 61.7594 230.234 66.2787C230.234 66.2787 235.758 67.7851 238.268 64.4375" fill="#FC7272"/>
<path d="M244.258 62.9623C244.698 61.3168 245.416 59.7584 246.38 58.354C247.187 57.0935 248.065 55.8591 248.588 54.4457C249.002 53.3502 249.056 52.1513 248.741 51.0234C248.407 49.7795 247.981 48.5624 247.465 47.3821C247.142 46.6069 246.808 45.835 246.444 45.078C246.346 44.9085 246.164 44.8044 245.968 44.8048L239.453 44.5782L229.112 44.2186L226.719 44.1353C226.522 44.1321 226.34 44.2369 226.243 44.4085C224.875 47.601 224.045 50.9981 223.788 54.4619C223.602 57.0628 223.839 59.7788 224.994 62.1506C225.556 63.3115 226.355 64.3413 227.341 65.1733C228.17 65.8661 229.231 66.6195 230.301 66.8626C233.237 67.5292 236.782 67.2713 238.745 64.7162C238.896 64.4529 238.808 64.1167 238.547 63.9616C238.283 63.8154 237.951 63.9025 237.792 64.1594C236.207 66.224 233.131 66.3118 230.824 65.8477C229.933 65.6186 229.103 65.1963 228.394 64.6108C227.438 63.8824 226.654 62.9532 226.096 61.8887C224.966 59.7584 224.739 57.2577 224.864 54.8858C225.007 52.6638 225.402 50.4653 226.042 48.3328C226.287 47.4838 226.562 46.6441 226.867 45.8138C226.954 45.5781 227.044 45.3436 227.137 45.1103C227.163 45.0452 227.191 44.9807 227.217 44.9155C227.269 44.7824 227.166 45.0346 227.196 44.9654L226.719 45.2385L233.235 45.4651L243.576 45.8248L245.968 45.9081L245.492 45.6349C246.319 47.3053 247.006 49.0417 247.545 50.8261C247.7 51.3115 247.807 51.8112 247.864 52.3178C247.886 52.8749 247.795 53.4309 247.596 53.9517C247.144 55.2914 246.284 56.4677 245.525 57.6456C244.517 59.2112 243.626 60.8435 243.194 62.6693C243.03 63.3595 244.094 63.6541 244.258 62.9625L244.258 62.9623Z" fill="#1C1F34"/>
<path d="M239.204 47.6707L239.233 55.7647C239.35 53.4069 241.377 50.3075 243.067 50.3915C244.756 50.4755 246.027 51.1092 245.907 53.5284C245.827 55.1297 244.346 57.8542 243.375 58.5383L243.731 65.091L251.368 55.4122C252.371 54.1397 252.836 52.5254 252.664 50.9144V45.3562H239.273L239.204 47.6707Z" fill="#A8542A"/>
<path d="M238.652 47.6706L238.678 54.7365L238.682 55.7647C238.684 56.4799 239.741 56.4684 239.785 55.7647C239.878 54.7289 240.216 53.7302 240.772 52.8513C241.207 52.1277 241.843 51.2547 242.69 50.9926C243.377 50.849 244.093 50.9919 244.673 51.3882C245.361 51.899 245.436 52.9329 245.34 53.7143C245.172 54.6931 244.817 55.6304 244.295 56.4751C244.072 56.8865 243.811 57.2761 243.515 57.6387C243.279 57.917 242.851 58.1574 242.824 58.542C242.822 58.8667 242.84 59.1912 242.877 59.5138L242.99 61.5972L243.179 65.0909C243.202 65.5153 243.801 65.8859 244.121 65.481L249.424 58.7602C250.182 57.7996 250.94 56.8389 251.698 55.8782C252.408 55.0065 252.897 53.9758 253.122 52.8742C253.235 52.014 253.266 51.145 253.216 50.2789V45.3561C253.211 45.0533 252.967 44.8089 252.664 44.8046H239.273C238.971 44.8098 238.727 45.0537 238.721 45.3561L238.652 47.6706C238.631 48.3806 239.734 48.38 239.755 47.6706L239.825 45.3561L239.273 45.9077H252.664L252.112 45.3561V49.6391C252.112 50.2372 252.131 50.8299 252.145 51.4265C252.173 52.7325 251.755 54.009 250.96 55.0451C249.176 57.3783 247.319 59.6589 245.5 61.9645L243.341 64.7009L244.282 65.091L243.927 58.5383L243.654 59.0146C244.686 58.2543 245.355 56.97 245.845 55.8162C246.379 54.5609 246.732 53.1002 246.243 51.7675C245.837 50.6604 244.876 50.0727 243.744 49.9077C243.166 49.7877 242.565 49.8463 242.021 50.0759C241.455 50.359 240.958 50.7617 240.564 51.2562C239.477 52.523 238.818 54.101 238.682 55.7647H239.785L239.759 48.6989L239.755 47.6707C239.746 47.373 239.502 47.1365 239.204 47.1365C238.906 47.1365 238.662 47.3729 238.652 47.6706Z" fill="#1C1F34"/>
<path d="M230.802 59.5804C231.405 59.3068 231.991 58.9992 232.559 58.6591C232.559 58.6591 233.221 59.2785 232.169 59.9979C231.412 60.4882 230.802 59.5804 230.802 59.5804Z" fill="#1C1F34"/>
<path d="M231.081 60.0566C231.685 59.786 232.272 59.4783 232.838 59.1352L232.17 59.049C232.189 59.0674 232.206 59.0873 232.222 59.1083L232.136 58.9967C232.175 59.0476 232.208 59.1031 232.234 59.1619L232.178 59.0302C232.203 59.0883 232.22 59.1494 232.228 59.212L232.209 59.0654C232.215 59.1184 232.215 59.1719 232.209 59.225L232.228 59.0784C232.219 59.1455 232.201 59.2112 232.174 59.2736L232.23 59.1418C232.195 59.2178 232.151 59.2894 232.1 59.3551L232.186 59.2434C232.098 59.35 231.998 59.4458 231.888 59.529L232 59.4428C231.919 59.5069 231.83 59.561 231.736 59.6041L231.868 59.5485C231.799 59.5764 231.728 59.5956 231.655 59.6057L231.802 59.586C231.736 59.5932 231.669 59.5925 231.603 59.5838L231.749 59.6035C231.674 59.5916 231.601 59.5708 231.531 59.5413L231.663 59.5969C231.57 59.5556 231.483 59.5031 231.403 59.4408L231.515 59.527C231.407 59.4422 231.31 59.3447 231.226 59.2365L231.312 59.3481C231.301 59.333 231.289 59.3177 231.278 59.3019C231.203 59.1801 231.086 59.0899 230.949 59.0485C230.733 58.989 230.502 59.0664 230.365 59.2442C230.228 59.4221 230.213 59.6649 230.326 59.8587C230.633 60.3709 231.184 60.6863 231.781 60.6913C232.316 60.6208 232.793 60.3192 233.086 59.8661C233.302 59.5613 233.369 59.1761 233.27 58.8162C233.211 58.6096 233.101 58.4213 232.95 58.269C232.77 58.0961 232.499 58.061 232.281 58.1827C231.715 58.5258 231.128 58.8335 230.524 59.1041C230.399 59.1766 230.309 59.2949 230.27 59.4337C230.232 59.5771 230.252 59.7298 230.326 59.8587C230.399 59.9825 230.517 60.0734 230.656 60.1121C230.799 60.1426 230.949 60.123 231.081 60.0566Z" fill="#1C1F34"/>
<path d="M241.533 56.2131C241.565 56.1133 241.6 56.0146 241.636 55.9163C241.675 55.8089 241.716 55.7021 241.758 55.596C241.77 55.567 241.782 55.5381 241.793 55.5093C241.802 55.489 241.856 55.3584 241.813 55.4619C241.769 55.5654 241.822 55.4421 241.83 55.4222C241.846 55.3859 241.862 55.3497 241.879 55.3136C242.008 55.0201 242.157 54.7354 242.324 54.4612C242.366 54.3927 242.41 54.3252 242.456 54.2588C242.477 54.2282 242.498 54.1978 242.52 54.1678C242.531 54.1529 242.543 54.1385 242.553 54.1234C242.587 54.0757 242.46 54.2385 242.534 54.149C242.625 54.0355 242.725 53.9297 242.834 53.8327C242.943 53.7386 242.762 53.8787 242.824 53.8373C242.856 53.8162 242.886 53.7935 242.919 53.7737C242.951 53.7545 242.984 53.7393 243.016 53.7209C243.079 53.6844 242.863 53.7688 242.992 53.7321C243.022 53.7236 243.052 53.7152 243.082 53.707C243.2 53.6748 242.934 53.7098 243.057 53.7105C243.091 53.7144 243.125 53.7151 243.16 53.7128C243.158 53.7131 243.005 53.6809 243.075 53.7018C243.096 53.7079 243.118 53.7109 243.138 53.7162C243.429 53.7893 243.725 53.6168 243.805 53.3277C243.884 53.0386 243.719 52.7388 243.431 52.6525C242.61 52.4392 241.963 53.0497 241.528 53.6678C241.149 54.2388 240.843 54.855 240.617 55.502C240.565 55.6401 240.514 55.7793 240.47 55.9202C240.392 56.2136 240.563 56.5154 240.855 56.5986C241.148 56.6727 241.447 56.5028 241.533 56.2134L241.533 56.2131Z" fill="#1C1F34"/>
<path d="M232.706 51.1375C232.806 51.0761 232.909 51.0215 233.017 50.9743C233.045 50.9612 233.074 50.9493 233.103 50.9359C232.956 51.0052 233.07 50.9499 233.101 50.9381C233.162 50.9151 233.223 50.8918 233.285 50.8707C233.452 50.8139 233.623 50.7674 233.796 50.7315C234.676 50.5478 235.592 50.718 236.348 51.2052C236.61 51.3496 236.939 51.2587 237.09 51.0003C237.241 50.742 237.159 50.4103 236.905 50.2527C235.915 49.6524 234.74 49.4372 233.602 49.6482C233.088 49.7342 232.596 49.9163 232.149 50.185C231.979 50.2844 231.875 50.4671 231.876 50.6642C231.877 50.8612 231.983 51.0428 232.154 51.1404C232.326 51.238 232.536 51.2369 232.706 51.1375V51.1375Z" fill="#1C1F34"/>
<path d="M225.243 50.8476C225.081 50.9184 225.187 50.8711 225.284 50.8376C225.43 50.7879 225.579 50.7458 225.729 50.7115C226.235 50.5951 226.755 50.5579 227.272 50.6012C228.105 50.6657 228.806 51.2492 229.02 52.0563C229.227 52.8479 228.868 53.7418 228.489 54.4279C228.218 54.9129 227.892 55.3649 227.517 55.7747C227.313 55.9428 227.168 56.1717 227.103 56.4279C227.065 56.6313 227.067 56.8401 227.107 57.043C227.338 58.0505 228.502 58.1044 229.338 58.0212C229.639 58.0126 229.881 57.7706 229.889 57.4696C229.887 57.1658 229.642 56.9199 229.338 56.9181C228.967 56.9784 228.588 56.9583 228.226 56.859C228.132 56.8235 228.218 56.8734 228.203 56.849C228.171 56.7932 228.201 56.8481 228.2 56.8595C228.202 56.8311 228.174 56.7818 228.171 56.7499C228.178 56.8277 228.182 56.6388 228.179 56.6465C228.117 56.8006 228.304 56.5474 228.344 56.5024C229.086 55.7026 229.646 54.7506 229.982 53.7127C230.298 52.8218 230.221 51.8389 229.77 51.0081C229.255 50.1404 228.348 49.5785 227.342 49.5027C226.438 49.4138 225.526 49.5485 224.686 49.8949C224.425 50.0502 224.337 50.3862 224.488 50.6495C224.647 50.9065 224.979 50.9937 225.243 50.8474L225.243 50.8476Z" fill="#1C1F34"/>
<ellipse cx="226.299" cy="53.9252" rx="0.755056" ry="0.755052" fill="#1C1F34"/>
<path d="M226.779 53.9374C226.781 53.9584 226.78 53.9796 226.775 54.0003C226.793 53.9676 226.783 53.9606 226.776 53.9884C226.769 54.0215 226.762 54.0544 226.751 54.0868C226.745 54.1075 226.742 54.1584 226.75 54.0956C226.746 54.1082 226.74 54.1202 226.733 54.1314C226.718 54.1684 226.697 54.2025 226.67 54.2322C226.716 54.1972 226.685 54.2146 226.67 54.23C226.659 54.2416 226.648 54.2542 226.637 54.2657C226.628 54.275 226.618 54.284 226.608 54.2927L226.593 54.3056C226.57 54.3247 226.573 54.3224 226.603 54.299C226.591 54.32 226.539 54.3408 226.519 54.3515C226.508 54.3578 226.496 54.3632 226.484 54.3694C226.437 54.3944 226.534 54.3568 226.467 54.3752C226.434 54.384 226.402 54.3944 226.369 54.4008L226.359 54.4027C226.328 54.4077 226.332 54.4071 226.371 54.4011C226.354 54.4053 226.336 54.4063 226.319 54.4042C226.301 54.4046 226.284 54.4045 226.266 54.4037C226.263 54.4037 226.194 54.4002 226.241 54.4031C226.286 54.4059 226.221 54.3991 226.216 54.398C226.196 54.3938 226.177 54.3888 226.157 54.383C226.137 54.3797 226.118 54.3731 226.1 54.3635C226.103 54.3665 226.158 54.3921 226.111 54.3675C226.082 54.352 226.053 54.3369 226.025 54.3187C226.022 54.3165 225.97 54.278 226.005 54.3057C226.04 54.3334 225.99 54.2921 225.987 54.2895C225.956 54.2656 225.929 54.2367 225.906 54.2039C225.93 54.2531 225.924 54.2276 225.914 54.2123C225.904 54.1954 225.893 54.1794 225.883 54.1622C225.876 54.1508 225.87 54.1392 225.864 54.1274L225.855 54.1096C225.843 54.0819 225.844 54.0855 225.859 54.1206C225.842 54.104 225.835 54.0473 225.83 54.0244C225.827 54.0112 225.825 53.9979 225.822 53.9845C225.811 53.9288 225.825 54.0396 225.821 53.9655C225.82 53.9339 225.822 53.9025 225.822 53.8709C225.822 53.8016 225.808 53.929 225.823 53.8619C225.825 53.8486 225.828 53.8352 225.831 53.8219C225.835 53.7882 225.845 53.7555 225.861 53.7257L225.849 53.7547C225.854 53.7426 225.86 53.7306 225.866 53.7189C225.875 53.7012 225.885 53.684 225.895 53.6672C225.904 53.6536 225.916 53.6403 225.923 53.6261C225.939 53.5923 225.879 53.6723 225.922 53.6277C225.945 53.6039 225.966 53.5796 225.991 53.5574C225.994 53.5544 226.045 53.5163 226.008 53.5416C225.971 53.5672 226.025 53.531 226.028 53.5289C226.06 53.5045 226.095 53.4854 226.133 53.4724C226.126 53.4738 226.074 53.4925 226.123 53.4782C226.142 53.4724 226.161 53.4656 226.18 53.4606C226.193 53.4571 226.207 53.4541 226.22 53.4514C226.226 53.45 226.288 53.4462 226.244 53.4466C226.197 53.4472 226.265 53.4466 226.269 53.4463C226.287 53.4457 226.304 53.4457 226.322 53.4463C226.34 53.4444 226.357 53.4455 226.374 53.4496C226.335 53.4437 226.331 53.4433 226.362 53.4484L226.383 53.4523C226.423 53.4558 226.463 53.4675 226.499 53.4868C226.462 53.4527 226.473 53.4738 226.497 53.4873C226.517 53.4986 226.538 53.5088 226.557 53.521C226.568 53.528 226.579 53.5358 226.59 53.5427C226.615 53.5604 226.612 53.5578 226.582 53.5351C226.592 53.5434 226.602 53.552 226.611 53.5608C226.636 53.5829 226.657 53.6074 226.68 53.6313C226.724 53.679 226.651 53.5821 226.684 53.6381C226.695 53.655 226.706 53.671 226.716 53.6881C226.726 53.7053 226.734 53.7233 226.744 53.7409C226.769 53.7901 226.73 53.6906 226.746 53.7487C226.757 53.788 226.768 53.826 226.777 53.8659C226.784 53.8976 226.791 53.8787 226.775 53.8538C226.786 53.8701 226.779 53.9184 226.779 53.9375C226.779 54.0898 226.902 54.2133 227.054 54.2133C227.207 54.2133 227.33 54.0898 227.33 53.9375C227.33 53.5027 227.061 53.1131 226.655 52.9588C226.255 52.8118 225.807 52.9257 225.526 53.2454C225.225 53.5885 225.185 54.0887 225.429 54.4747C225.672 54.8607 226.141 55.0404 226.58 54.9163C227.019 54.7922 227.325 54.3939 227.33 53.9375C227.329 53.7857 227.206 53.663 227.054 53.6617C226.903 53.6646 226.781 53.7863 226.779 53.9374Z" fill="#1C1F34"/>
<ellipse cx="233.005" cy="54.04" rx="0.75504" ry="0.755069" fill="#1C1F34"/>
<path d="M233.485 54.0521C233.487 54.0732 233.486 54.0944 233.481 54.115C233.499 54.0824 233.489 54.0754 233.482 54.1032C233.475 54.1363 233.468 54.1692 233.457 54.2016C233.451 54.2222 233.448 54.2732 233.456 54.2104C233.452 54.223 233.446 54.235 233.439 54.2463C233.424 54.2832 233.403 54.3173 233.376 54.347C233.422 54.312 233.391 54.3294 233.376 54.3447C233.365 54.3564 233.354 54.369 233.343 54.3805C233.334 54.3898 233.324 54.3988 233.314 54.4075L233.299 54.4204C233.276 54.4395 233.279 54.4372 233.309 54.4137C233.297 54.4348 233.245 54.4556 233.225 54.4662C233.214 54.4726 233.202 54.478 233.19 54.4842C233.143 54.5092 233.24 54.4716 233.173 54.49C233.14 54.4988 233.108 54.5092 233.075 54.5156L233.065 54.5175C233.034 54.5225 233.038 54.5219 233.077 54.5159C233.06 54.5201 233.042 54.5211 233.025 54.5189C233.007 54.5194 232.99 54.5193 232.972 54.5185C232.969 54.5185 232.9 54.515 232.947 54.5179C232.992 54.5207 232.927 54.5139 232.922 54.5128C232.902 54.5086 232.883 54.5036 232.863 54.4978C232.843 54.4945 232.824 54.4879 232.806 54.4783C232.809 54.4813 232.864 54.5069 232.817 54.4823C232.788 54.4668 232.759 54.4517 232.731 54.4335C232.727 54.4313 232.676 54.3928 232.711 54.4205C232.746 54.4482 232.696 54.4069 232.693 54.4043C232.662 54.3804 232.635 54.3515 232.612 54.3187C232.636 54.3679 232.63 54.3424 232.62 54.3271C232.61 54.3102 232.599 54.2942 232.589 54.277C232.582 54.2656 232.576 54.254 232.57 54.2422L232.561 54.2244C232.549 54.1967 232.55 54.2003 232.565 54.2353C232.548 54.2188 232.541 54.1621 232.536 54.1392C232.533 54.1259 232.531 54.1126 232.528 54.0993C232.517 54.0436 232.531 54.1544 232.527 54.0803C232.526 54.0487 232.528 54.0173 232.528 53.9857C232.528 53.9164 232.514 54.0438 232.529 53.9767C232.531 53.9634 232.534 53.95 232.537 53.9367C232.541 53.903 232.551 53.8703 232.567 53.8405L232.555 53.8695C232.56 53.8574 232.566 53.8454 232.572 53.8336C232.581 53.816 232.591 53.7988 232.601 53.7819C232.61 53.7684 232.622 53.7551 232.629 53.7409C232.645 53.7071 232.585 53.7871 232.628 53.7425C232.651 53.7187 232.672 53.6944 232.697 53.6722C232.7 53.6692 232.751 53.6311 232.714 53.6563C232.677 53.682 232.731 53.6458 232.735 53.6437C232.766 53.6192 232.801 53.6002 232.839 53.5872C232.832 53.5885 232.78 53.6073 232.829 53.5929C232.848 53.5872 232.867 53.5804 232.886 53.5754C232.899 53.5719 232.913 53.5689 232.926 53.5661C232.932 53.5648 232.994 53.5609 232.95 53.5614C232.903 53.562 232.971 53.5612 232.975 53.5611C232.993 53.5604 233.01 53.5604 233.028 53.5609C233.046 53.559 233.063 53.5601 233.08 53.5642C233.041 53.5583 233.037 53.5579 233.068 53.563L233.089 53.5669C233.129 53.5704 233.169 53.5822 233.205 53.6014C233.168 53.5673 233.179 53.5884 233.203 53.6019C233.223 53.6132 233.244 53.6234 233.263 53.6356C233.274 53.6427 233.285 53.6504 233.296 53.6573C233.321 53.675 233.318 53.6724 233.288 53.6497C233.298 53.6581 233.308 53.6666 233.317 53.6754C233.342 53.6975 233.363 53.722 233.386 53.746C233.43 53.7937 233.357 53.6968 233.39 53.7526C233.401 53.7696 233.412 53.7856 233.422 53.8028C233.432 53.82 233.44 53.8379 233.45 53.8555C233.475 53.9045 233.436 53.8053 233.452 53.8633C233.463 53.9026 233.474 53.9406 233.483 53.9805C233.49 54.0122 233.497 53.9934 233.481 53.9684C233.492 53.9847 233.485 54.0331 233.485 54.0521C233.485 54.2044 233.608 54.3279 233.76 54.3279C233.913 54.3279 234.036 54.2044 234.036 54.0521C234.036 53.6173 233.767 53.2277 233.361 53.0735C232.961 52.9264 232.513 53.0403 232.232 53.3601C231.931 53.7031 231.891 54.2034 232.135 54.5893C232.378 54.9753 232.847 55.155 233.286 55.0309C233.725 54.9068 234.031 54.5085 234.036 54.0521C234.035 53.9003 233.912 53.7776 233.76 53.7763C233.609 53.7792 233.487 53.901 233.485 54.0521Z" fill="#1C1F34"/>
<path d="M252.737 47.0184L224.977 46.8656L224.993 43.9312L225.006 41.6642C225.037 36.1042 231.291 28.7788 238.957 28.821C246.622 28.8632 252.796 36.2571 252.765 41.8171L252.737 47.0184Z" fill="#FFC41F"/>
<path d="M252.737 46.4669L243.352 46.4152L228.4 46.3329L224.978 46.3141L225.529 46.8656L225.545 43.9268C225.552 42.7651 225.467 41.5541 225.67 40.4051C226.331 36.6613 229.065 33.3303 232.235 31.362C234.012 30.2304 236.041 29.555 238.141 29.3957C240.227 29.2764 242.308 29.6966 244.183 30.616C247.655 32.3 250.645 35.4817 251.795 39.2032C252.117 40.3558 252.257 41.5518 252.209 42.7476L252.187 46.7178L252.186 47.0184C252.195 47.3163 252.439 47.5531 252.737 47.5531C253.035 47.5531 253.279 47.3163 253.289 47.0184L253.308 43.5558C253.37 42.3432 253.307 41.1273 253.119 39.9276C252.314 35.9461 249.37 32.4044 245.957 30.3275C244.067 29.1611 241.925 28.4649 239.71 28.2971C237.492 28.1698 235.277 28.6012 233.269 29.5518C229.525 31.2782 226.345 34.6481 225.008 38.5679C224.508 40.0326 224.456 41.4881 224.447 43.0145L224.429 46.3572L224.426 46.8656C224.43 47.1684 224.675 47.4128 224.978 47.4171L234.363 47.4688L249.314 47.5511L252.737 47.5699C253.035 47.5604 253.271 47.3163 253.271 47.0184C253.271 46.7205 253.035 46.4764 252.737 46.4669Z" fill="#1C1F34"/>
<path d="M240.285 46.9374H218.592C218.592 44.9561 219.896 43.3358 221.532 43.2846L239.918 42.709" fill="#FFC41F"/>
<path d="M240.286 46.3856H218.592L219.144 46.9371C219.144 45.6739 219.817 44.2265 221.136 43.8926C221.421 43.8378 221.711 43.8138 222.001 43.8212L225.839 43.701L237.094 43.3486L239.918 43.2602C240.626 43.2381 240.629 42.1349 239.918 42.1572L231.991 42.4054L221.986 42.7186C221.433 42.706 220.883 42.801 220.366 42.9983C218.85 43.6545 218.041 45.3451 218.041 46.9371C218.045 47.2399 218.289 47.4843 218.592 47.4886H240.286C240.583 47.4791 240.82 47.235 240.82 46.9371C240.82 46.6392 240.583 46.3951 240.286 46.3856H240.286Z" fill="#1C1F34"/>
<path d="M182.304 116.15C181.715 116.515 181.005 116.631 180.331 116.473C179.656 116.314 179.073 115.894 178.708 115.306L161.924 88.2126L166.365 85.4615L183.149 112.554C183.514 113.143 183.629 113.853 183.471 114.527C183.312 115.202 182.893 115.786 182.304 116.15Z" fill="#A8542A"/>
<path d="M182.025 115.674C180.936 116.349 179.705 115.868 179.073 114.848L178.158 113.372L174.297 107.138L169.229 98.9584L164.676 91.6089L163.159 89.1601C162.944 88.7531 162.701 88.3611 162.432 87.9868C162.42 87.97 162.41 87.9524 162.4 87.9341L162.202 88.6887L166.643 85.9376L165.888 85.7397L167.723 88.7021L172.063 95.7079L177.16 103.936L181.267 110.563L182.402 112.396C182.792 113.026 183.128 113.651 182.925 114.436C182.792 114.948 182.471 115.39 182.025 115.674C181.433 116.06 181.985 117.016 182.582 116.627C184.073 115.678 184.519 113.705 183.582 112.207C183.321 111.78 183.055 111.356 182.791 110.931L179.011 104.829L173.875 96.5383L169.2 88.9913C168.426 87.742 167.689 86.4586 166.873 85.2357C166.862 85.2186 166.851 85.2006 166.841 85.183C166.684 84.9238 166.35 84.8361 166.086 84.9852L161.645 87.7362C161.386 87.8928 161.298 88.2272 161.447 88.4908L163.359 91.5759L167.847 98.8212L173.045 107.212L177.085 113.733L178.089 115.354C178.742 116.408 179.776 117.16 181.072 117.09C181.606 117.064 182.125 116.904 182.582 116.627C183.184 116.253 182.631 115.299 182.025 115.674Z" fill="#1C1F34"/>
<path d="M160.557 87.642L166.61 83.8924L168.622 87.1405L162.569 90.89L160.557 87.642Z" fill="white"/>
<path d="M168.344 86.664L163.052 89.9418L162.291 90.4135L163.046 90.6114L161.034 87.3633L160.836 88.1179L166.127 84.8401L166.888 84.3684L166.134 84.1706L168.146 87.4186C168.519 88.0209 169.473 87.4676 169.098 86.8618L167.086 83.6138C166.93 83.3546 166.595 83.2669 166.332 83.416L161.04 86.6939L160.279 87.1655C160.02 87.3221 159.932 87.6565 160.081 87.9201L162.093 91.1681C162.25 91.4274 162.584 91.5151 162.848 91.366L168.139 88.0882L168.9 87.6165C169.503 87.2434 168.949 86.2887 168.344 86.664Z" fill="#1C1F34"/>
<path d="M161.452 77.5859L155.044 81.5555C155.297 82.9381 154.677 84.3345 153.482 85.0747C152.287 85.8148 150.761 85.7479 149.636 84.9059L147.304 86.3501L151.786 93.584L154.117 92.1398C153.864 90.7572 154.484 89.3608 155.679 88.6207C156.874 87.8805 158.4 87.9474 159.525 88.7894L166.395 84.5334L167.026 84.1545C169.969 82.3877 173.381 81.5615 176.805 81.7866C177.063 81.8035 177.301 81.6506 177.394 81.4095C177.486 81.1684 177.41 80.8954 177.207 80.7362L176.676 80.3202C172.654 77.1682 167.419 76.0115 162.443 77.1756C162.093 77.2577 161.758 77.3962 161.452 77.5859Z" fill="#1C1F34"/>
<path d="M161.174 77.1097L155.566 80.5837L154.766 81.0793C154.556 81.2107 154.454 81.4616 154.512 81.7021C154.687 82.7956 154.221 83.8927 153.314 84.5274C152.276 85.2235 150.911 85.1843 149.914 84.4297C149.743 84.3268 149.529 84.3268 149.357 84.4297L147.026 85.8738C146.767 86.0304 146.679 86.3648 146.828 86.6284L150.742 92.9464L151.31 93.8623C151.466 94.1215 151.801 94.2092 152.064 94.0602L154.396 92.616C154.605 92.4845 154.707 92.2337 154.649 91.9931C154.475 90.8996 154.94 89.8026 155.847 89.1679C156.885 88.4717 158.251 88.511 159.247 89.2656C159.418 89.3684 159.632 89.3684 159.804 89.2656C162.21 87.7753 164.599 86.2551 167.026 84.7984C168.443 83.9277 169.977 83.265 171.583 82.8308C172.481 82.5938 173.398 82.4357 174.324 82.3582C174.787 82.3204 175.251 82.3017 175.717 82.302C176.11 82.3024 176.519 82.3635 176.91 82.3366C177.25 82.3122 177.561 82.1395 177.761 81.8646C177.962 81.5896 178.031 81.2403 177.95 80.9098C177.829 80.4515 177.417 80.2034 177.066 79.9303C175.685 78.8484 174.153 77.9754 172.518 77.3394C169.813 76.2956 166.888 75.95 164.014 76.3344C163.041 76.4631 162.032 76.605 161.174 77.1098C160.919 77.2673 160.837 77.599 160.988 77.8573C161.139 78.1157 161.468 78.2066 161.73 78.0622C162.445 77.7083 163.222 77.4963 164.018 77.4379C168.055 76.8756 172.158 77.8437 175.518 80.1519C175.967 80.4368 176.393 80.7561 176.792 81.1068C176.889 81.199 176.929 81.2032 176.806 81.2352C176.65 81.2435 176.493 81.2354 176.339 81.211C176.106 81.2021 175.873 81.1982 175.639 81.1992C172.371 81.2409 169.176 82.1709 166.396 83.8896C165.324 84.5336 164.266 85.2037 163.203 85.8626L159.247 88.3133H159.804C158.425 87.327 156.573 87.3177 155.184 88.2901C153.928 89.2043 153.306 90.7578 153.585 92.2866L153.839 91.6637L151.508 93.1079L152.262 93.3057L148.348 86.9878L147.781 86.0719L147.583 86.8265L149.914 85.3823H149.358C150.737 86.3686 152.588 86.3779 153.977 85.4055C155.234 84.4913 155.855 82.9378 155.576 81.409L155.322 82.0319L160.93 78.558L161.73 78.0624C162.333 77.689 161.779 76.7344 161.174 77.1097Z" fill="#1C1F34"/>
<path d="M228.52 43.0765C228.52 43.0765 228.711 28.9206 237.922 27.266H240.801C243.78 27.2259 246.423 29.17 247.272 32.0258L245.802 31.9341C240.271 31.5889 235.484 35.5808 235.079 40.8766L234.928 42.8448L228.52 43.0765Z" fill="#FFC41F"/>
<path d="M229.071 43.0765C229.125 40.3027 229.655 37.5587 230.636 34.9638C231.39 32.9508 232.507 31.0101 234.165 29.608C235.011 28.8933 235.995 28.3596 237.056 28.0396C237.43 27.9034 237.823 27.8284 238.221 27.8175H239.704C241.022 27.8175 242.299 27.833 243.52 28.4206C245.083 29.1505 246.256 30.5173 246.74 32.1725L247.272 31.4743C246.265 31.3751 245.252 31.3502 244.242 31.3998C242.691 31.5273 241.184 31.9814 239.82 32.7322C237.162 34.19 235.282 36.7452 234.681 39.7165C234.523 40.7529 234.421 41.7972 234.377 42.8446L234.928 42.293L228.52 42.525C227.812 42.5506 227.808 43.6538 228.52 43.6281L234.928 43.3961C235.23 43.3885 235.472 43.146 235.48 42.8446C235.536 42.1084 235.577 41.3694 235.652 40.6349C235.804 39.2492 236.283 37.9194 237.048 36.7547C238.615 34.4059 241.133 32.8626 243.937 32.5328C245.047 32.4481 246.163 32.4629 247.271 32.5771C247.443 32.5753 247.604 32.4945 247.708 32.358C247.812 32.2216 247.847 32.0448 247.803 31.879C246.923 28.7243 243.909 26.7218 240.703 26.7142C239.792 26.712 238.862 26.6593 237.952 26.7142C236.807 26.7832 235.569 27.3469 234.604 27.9382C230.694 30.3363 229.024 35.1816 228.331 39.486C228.123 40.6724 228.002 41.8723 227.968 43.0763C227.958 43.7866 229.061 43.7869 229.071 43.0765Z" fill="#1C1F34"/>
<path d="M250.039 83.8007L239.244 109.288C241.298 109.986 243.316 110.788 245.289 111.691C249.1 113.428 257.313 121.67 259.838 123.523L274.071 89.9081C275.796 85.834 275.364 81.1664 272.92 77.4782C270.477 73.79 266.347 71.5722 261.923 71.5723H247.639" fill="white"/>
<path d="M249.563 83.5223L245.901 92.1692L240.104 105.855L238.768 109.01C238.686 109.158 238.676 109.336 238.74 109.493C238.803 109.65 238.935 109.77 239.097 109.82C240.301 110.228 241.491 110.672 242.667 111.153C243.63 111.52 244.572 111.939 245.491 112.407C246.678 113.084 247.804 113.865 248.855 114.739C251.521 116.857 254.021 119.175 256.556 121.446C257.532 122.321 258.504 123.219 259.56 123.999C259.823 124.152 260.161 124.064 260.314 123.801L261.446 121.129L264.25 114.506L267.841 106.024L271.334 97.7752L273.851 91.831C274.466 90.3771 275.118 88.9438 275.421 87.3818C276.198 83.3525 275.136 79.1866 272.525 76.0215C269.913 72.8563 266.024 71.0225 261.921 71.0207C259.905 71.0129 257.89 71.0207 255.875 71.0207H247.639C247.341 71.0302 247.105 71.2743 247.105 71.5722C247.105 71.8701 247.341 72.1142 247.639 72.1237H261.289C262.365 72.0992 263.441 72.1852 264.5 72.3803C266.45 72.7786 268.277 73.6378 269.827 74.8863C272.877 77.3601 274.626 81.0944 274.574 85.0212C274.533 87.0605 273.926 88.8473 273.157 90.6632L270.947 95.8838L267.62 103.741L264.026 112.228L261.015 119.341L259.434 123.074L259.362 123.245L260.117 123.047C259.812 122.822 259.39 122.469 259.027 122.157C258.529 121.731 258.039 121.295 257.55 120.858C256.305 119.745 255.07 118.621 253.82 117.514C252.517 116.358 251.201 115.215 249.841 114.125C248.728 113.193 247.545 112.347 246.302 111.597C245.37 111.098 244.407 110.657 243.42 110.279C242.094 109.726 240.751 109.218 239.39 108.756L239.72 109.566L243.382 100.919L249.179 87.2336L250.515 84.0789C250.658 83.8145 250.571 83.4847 250.317 83.3243C250.054 83.1725 249.717 83.2607 249.563 83.5222L249.563 83.5223Z" fill="#1C1F34"/>
<path d="M259.748 123.596C260.391 122.185 258.477 119.795 254.977 117.227L251.038 123.988C255.669 125.139 259.066 125.092 259.748 123.596Z" fill="#1C1F34"/>
<path d="M260.224 123.875C260.71 122.738 260.141 121.578 259.458 120.654C258.316 119.111 256.789 117.882 255.255 116.751C254.991 116.6 254.656 116.688 254.5 116.948L251.059 122.857L250.561 123.71C250.477 123.858 250.466 124.037 250.53 124.195C250.594 124.353 250.727 124.473 250.891 124.52C252.877 125.009 254.977 125.44 257.034 125.329C258.169 125.268 259.67 125.022 260.224 123.875C260.531 123.238 259.581 122.678 259.272 123.318C259.103 123.639 258.81 123.875 258.461 123.972C257.895 124.156 257.304 124.246 256.71 124.238C254.842 124.219 252.984 123.956 251.184 123.456L251.514 124.267L254.956 118.358L255.453 117.505L254.698 117.703C256.069 118.655 257.31 119.784 258.387 121.059C258.722 121.455 258.993 121.902 259.19 122.382C259.256 122.553 259.299 122.732 259.317 122.914C259.331 123.051 259.315 123.188 259.272 123.318C259.129 123.582 259.215 123.912 259.47 124.072C259.733 124.224 260.069 124.136 260.224 123.875Z" fill="#1C1F34"/>
<path d="M245.289 111.691C243.316 110.788 241.298 109.986 239.244 109.288L235.712 117.627L234.707 120L197.77 104.698L191.95 119.391L234.933 143.119C242.685 146.291 247.952 136.324 252.465 129.268L258.135 119.9L254.977 117.227C251.939 115.064 248.694 113.209 245.289 111.691Z" fill="#FC7272"/>
<path d="M245.567 111.214C243.548 110.297 241.491 109.467 239.39 108.756C239.149 108.69 238.894 108.794 238.768 109.01C237.59 111.789 236.413 114.569 235.236 117.349L234.231 119.721L234.853 119.468L231.171 117.942L222.332 114.281L211.685 109.87L202.478 106.056L199.42 104.789C198.945 104.592 198.469 104.35 197.98 104.192C197.958 104.185 197.937 104.175 197.916 104.166C197.62 104.043 197.336 104.303 197.238 104.551L195.266 109.528L192.141 117.418L191.418 119.244C191.352 119.485 191.456 119.74 191.671 119.867L194.133 121.226L200.463 124.72L209.036 129.453L218.342 134.591L226.734 139.224L232.701 142.517C233.837 143.144 234.873 143.8 236.159 144.085C240.722 145.092 244.424 141.729 247.034 138.41C249.436 135.354 251.466 131.983 253.477 128.661L258.22 120.824L258.611 120.178C258.736 119.962 258.701 119.688 258.525 119.51L255.686 117.108C254.06 115.731 252.146 114.634 250.291 113.599C248.75 112.738 247.172 111.948 245.567 111.214C244.926 110.921 244.365 111.872 245.01 112.167C247.676 113.369 250.25 114.763 252.714 116.339C253.435 116.779 254.129 117.263 254.79 117.789L256.399 119.15L257.745 120.29L257.659 119.622L253.609 126.312C251.916 129.11 250.215 131.908 248.4 134.628C247.107 136.672 245.592 138.567 243.883 140.279C242.451 141.644 240.711 142.852 238.706 143.122C237.475 143.292 236.221 143.103 235.094 142.579C234.714 142.376 234.339 142.162 233.962 141.954L228.681 139.038L220.712 134.639L211.57 129.593L202.784 124.742L195.858 120.918L192.384 119L192.228 118.914L192.481 119.537L194.453 114.56L197.578 106.67L198.301 104.844L197.623 105.229L201.305 106.755L210.144 110.417L220.791 114.827L229.998 118.642L233.056 119.909C233.531 120.105 234.007 120.347 234.496 120.505C234.518 120.512 234.539 120.523 234.56 120.532C234.801 120.599 235.058 120.495 235.183 120.278L239.028 111.201L239.72 109.566L239.097 109.82C241.108 110.501 243.078 111.289 245.01 112.167C245.652 112.458 246.213 111.508 245.567 111.214Z" fill="#1C1F34"/>
<path d="M208.604 128.522L200.666 124.055C198.831 123.023 196.892 122.188 194.88 121.567L190.259 120.139C187.562 119.321 185.147 116.352 184.23 114.419L182.759 111.315C182.07 109.855 180.752 108.788 179.18 108.418C177.608 108.048 175.953 108.415 174.685 109.415L175.464 110.438C176.252 111.474 176.123 112.939 175.166 113.821C174.668 114.279 174.006 114.518 173.33 114.484C171.227 114.378 169.369 113.083 168.542 111.148C168.237 110.436 167.901 109.645 167.553 108.821C167.178 107.931 166.789 107.002 166.412 106.09C165.195 103.142 164.624 102.017 164.542 101.355C164.527 101.24 166.533 97.4198 169.33 95.041C173.56 91.4426 179.769 91.4197 184.026 94.9869L190.568 100.468C191.743 101.453 193.042 102.282 194.431 102.932L209.121 109.424" fill="#FC7272"/>
<path d="M208.883 128.046L203.492 125.012C200.852 123.527 198.241 122.065 195.336 121.132C194.314 120.804 193.285 120.497 192.26 120.18C191.174 119.844 190.035 119.578 189.051 118.993C187.314 117.906 185.893 116.383 184.929 114.576C184.404 113.611 183.971 112.589 183.501 111.598C183.246 111.01 182.925 110.454 182.544 109.94C181.575 108.72 180.159 107.937 178.61 107.766C177.061 107.594 175.508 108.047 174.295 109.025C174.117 109.201 174.081 109.477 174.209 109.693C174.914 110.62 175.842 111.6 175.223 112.843C174.363 114.571 172.043 113.913 170.787 113.061C169.169 111.963 168.617 109.939 167.896 108.226C167.141 106.432 166.387 104.637 165.634 102.841C165.446 102.423 165.283 101.992 165.148 101.554C165.106 101.405 165.045 101 165.08 101.474C165.083 101.505 165.024 101.582 165.086 101.465C165.129 101.384 165.168 101.301 165.21 101.221C165.855 100.009 166.613 98.8606 167.474 97.791C168.584 96.3184 169.981 95.0857 171.58 94.167C173.126 93.3369 174.85 92.8948 176.604 92.8786C179.418 92.8526 181.926 93.9436 184.055 95.7272L188.892 99.7811C190.549 101.17 192.208 102.526 194.199 103.428C195.431 103.987 196.675 104.523 197.914 105.07L208.621 109.802L208.842 109.901C209.486 110.185 210.048 109.235 209.399 108.948L199.273 104.472C197.799 103.821 196.324 103.175 194.853 102.519C192.918 101.656 191.305 100.369 189.7 99.024L184.72 94.851C182.345 92.8609 179.483 91.6835 176.35 91.7807C174.487 91.8396 172.664 92.3305 171.024 93.2145C169.34 94.1763 167.868 95.4675 166.694 97.011C165.762 98.1555 164.942 99.3867 164.245 100.688C164.052 100.97 163.976 101.317 164.036 101.654C164.139 102.067 164.279 102.469 164.456 102.857C165.213 104.7 165.998 106.532 166.77 108.369C167.539 110.199 168.133 112.322 169.722 113.63C171.053 114.725 173.202 115.536 174.855 114.702C175.649 114.285 176.223 113.545 176.43 112.673C176.637 111.802 176.457 110.883 175.936 110.154C175.686 109.809 175.419 109.475 175.162 109.136L175.075 109.805C176.109 109.013 177.423 108.68 178.709 108.885C179.995 109.089 181.141 109.812 181.879 110.885C182.134 111.291 182.358 111.715 182.549 112.154C183.019 113.146 183.451 114.168 183.977 115.132C184.925 116.862 186.246 118.359 187.843 119.517C188.917 120.289 190.095 120.665 191.336 121.048C192.428 121.386 193.521 121.724 194.614 122.061C196.621 122.68 198.558 123.509 200.392 124.533C201.011 124.88 201.628 125.227 202.246 125.576L208.326 128.998C208.946 129.347 209.502 128.394 208.883 128.046L208.883 128.046Z" fill="#1C1F34"/>
<path d="M218.592 112.753L224.22 82.1476L225.881 71.028C226.023 70.0788 226.85 69.3841 227.809 69.4081C228.347 69.4215 228.854 69.6624 229.205 70.0709C229.555 70.4794 229.716 71.0173 229.648 71.5511L227.049 91.795H241.572L246.115 70.7377C246.334 69.7229 247.232 68.9984 248.27 68.9984C248.902 68.9984 249.503 69.2696 249.922 69.7431C250.34 70.2167 250.535 70.847 250.457 71.4741L248.191 87.5666L234.77 119.923L218.592 112.753Z" fill="#5E5FB8"/>
<path d="M219.124 112.9L219.736 109.572L221.177 101.736L222.881 92.4664L224.264 84.95C224.434 84.0244 224.627 83.0997 224.771 82.1694C225.159 79.6522 225.523 77.1309 225.9 74.6118L226.378 71.4072C226.398 70.9468 226.61 70.5158 226.963 70.2192C227.348 69.9467 227.846 69.8919 228.281 70.0741C228.716 70.2564 229.026 70.65 229.101 71.1154C229.117 71.6481 229.066 72.1806 228.949 72.7004L228.537 75.9095L227.368 85.0101L226.54 91.4627L226.497 91.7953C226.499 92.0989 226.745 92.3444 227.049 92.3468H241.572C241.82 92.3444 242.036 92.1797 242.104 91.9419L243.337 86.2265L245.577 75.8424L246.391 72.0691C246.549 71.341 246.617 70.4147 247.23 69.9153C247.678 69.5642 248.275 69.4659 248.812 69.6546C249.35 69.8433 249.754 70.293 249.884 70.8474C249.94 71.1476 249.933 71.456 249.865 71.7536L249.366 75.2955L247.947 85.376C247.893 86.0628 247.797 86.7456 247.659 87.4204C247.539 87.7676 247.398 88.1072 247.237 88.4373L244.47 95.1084L240.394 104.936L236.515 114.288L234.343 119.525L234.238 119.777L235.048 119.447L229.599 117.032L220.866 113.162L218.87 112.277C218.227 111.992 217.665 112.942 218.313 113.23L223.763 115.645L232.496 119.515L234.492 120.399C234.64 120.48 234.818 120.49 234.975 120.427C235.132 120.363 235.252 120.232 235.302 120.07L236.895 116.23L240.591 107.318L244.827 97.1042L247.986 89.4887C248.215 88.9372 248.466 88.3898 248.674 87.8302C248.781 87.4464 248.847 87.0523 248.871 86.6545L250.252 76.8555L250.849 72.6118C250.893 72.3018 250.937 71.9918 250.98 71.6818C251.249 70.1845 250.254 68.7526 248.757 68.4835C247.259 68.2144 245.827 69.2099 245.558 70.7071C245.379 71.5185 245.208 72.3317 245.033 73.144L242.861 83.2103L241.132 91.2254L241.04 91.6485L241.572 91.2436H227.049L227.6 91.7952L228.222 86.9543L229.417 77.6424C229.673 75.6533 229.938 73.6653 230.183 71.675C230.384 70.3476 229.479 69.1059 228.154 68.8907C226.829 68.6754 225.578 69.5669 225.348 70.8896C225.303 71.1442 225.272 71.4019 225.233 71.6576L223.968 80.1315C223.818 81.1305 223.666 82.123 223.483 83.1159L222.304 89.5299L220.605 98.7688L219 107.497L218.102 112.378L218.06 112.607C217.932 113.301 218.995 113.598 219.124 112.9Z" fill="#1C1F34"/>
<path d="M175.446 108.91L173.366 110.363L175.446 108.91Z" fill="#FC7272"/>
<path d="M175.167 108.433L173.346 109.707L173.088 109.887C172.966 109.963 172.876 110.08 172.834 110.217C172.775 110.433 172.852 110.664 173.03 110.8C173.208 110.937 173.451 110.953 173.645 110.84L175.466 109.566L175.724 109.386C175.845 109.31 175.935 109.193 175.977 109.056C176.037 108.84 175.959 108.609 175.781 108.472C175.604 108.336 175.361 108.32 175.167 108.433Z" fill="#1C1F34"/>
<path d="M134.024 111.283L141.279 107.353C142.309 106.795 143.462 106.503 144.634 106.503H146.525" fill="#FC7272"/>
<path d="M134.302 111.759L138.353 109.564L140.861 108.206C141.569 107.783 142.33 107.456 143.123 107.232C144.225 106.965 145.399 107.054 146.525 107.054C146.823 107.045 147.06 106.8 147.06 106.503C147.06 106.205 146.823 105.961 146.525 105.951C145.591 105.913 144.655 105.933 143.723 106.01C142.624 106.17 141.566 106.537 140.604 107.091L135.424 109.897L133.746 110.806C133.121 111.145 133.677 112.097 134.302 111.759L134.302 111.759Z" fill="#1C1F34"/>
<path d="M138.628 114.947C137.438 115.137 136.406 115.874 135.839 116.937C135.21 118.117 134.276 119.108 133.135 119.806L124.906 122.975C124.545 123.114 124.285 123.435 124.225 123.818C124.164 124.2 124.312 124.585 124.613 124.829L124.739 124.931L134.552 122.472C135.765 122.162 137.037 122.168 138.247 122.488C139.574 122.843 140.989 122.466 141.963 121.498C142.937 120.53 143.324 119.117 142.977 117.788C142.468 115.868 140.591 114.642 138.628 114.947Z" fill="#E2E2E2"/>
<path d="M138.481 114.415C137.305 114.627 136.263 115.302 135.589 116.289C135.232 116.807 134.971 117.37 134.562 117.855C134.167 118.33 133.71 118.75 133.204 119.104C132.493 119.594 131.461 119.862 130.621 120.186L126.348 121.831C125.488 122.163 124.16 122.434 123.783 123.376C123.59 123.854 123.632 124.395 123.898 124.837C124.106 125.177 124.468 125.525 124.889 125.461C125.142 125.423 125.396 125.334 125.644 125.272L129.664 124.265L133.763 123.238C134.065 123.162 134.367 123.085 134.669 123.011C135.85 122.741 137.078 122.757 138.252 123.058C140.622 123.598 142.983 122.119 143.53 119.75C144.076 117.381 142.603 115.017 140.235 114.464C139.659 114.338 139.064 114.321 138.481 114.415C138.189 114.498 138.017 114.8 138.096 115.093C138.183 115.382 138.482 115.552 138.774 115.479C140.521 115.23 142.156 116.396 142.491 118.128C142.826 119.861 141.743 121.552 140.029 121.972C139.255 122.165 138.595 121.97 137.838 121.831C137.071 121.687 136.287 121.658 135.511 121.744C134.455 121.91 133.41 122.144 132.384 122.446L127.706 123.618L124.591 124.398L125.128 124.54C124.923 124.374 124.726 124.209 124.764 123.917C124.785 123.788 124.849 123.669 124.946 123.581C124.982 123.547 125.023 123.52 125.069 123.5C125.269 123.403 125.492 123.337 125.7 123.257L128.718 122.095L132.041 120.815C132.771 120.585 133.463 120.247 134.094 119.812C135.003 119.106 135.758 118.223 136.314 117.215C136.823 116.289 137.73 115.648 138.774 115.479C139.472 115.354 139.177 114.291 138.481 114.415Z" fill="#1C1F34"/>
<path d="M135.514 119.886C135.585 120.218 135.685 120.543 135.814 120.857C136.054 121.552 136.481 122.169 137.046 122.64C137.394 122.902 137.817 123.045 138.252 123.048C138.557 123.048 138.804 122.802 138.804 122.497C138.804 122.192 138.557 121.945 138.252 121.945C138.215 121.945 138.178 121.943 138.14 121.941C138.002 121.933 138.238 121.965 138.152 121.944C138.075 121.925 137.999 121.907 137.923 121.884C137.907 121.876 137.891 121.87 137.874 121.865C137.872 121.866 137.989 121.92 137.946 121.896C137.916 121.879 137.883 121.866 137.853 121.85C137.788 121.815 137.726 121.776 137.666 121.734C137.556 121.659 137.738 121.799 137.674 121.74C137.648 121.717 137.62 121.695 137.595 121.671C137.536 121.618 137.48 121.561 137.427 121.501C137.403 121.474 137.381 121.447 137.357 121.42C137.35 121.411 137.332 121.381 137.324 121.378C137.327 121.379 137.41 121.494 137.361 121.425C137.319 121.366 137.276 121.308 137.237 121.248C137.154 121.12 137.079 120.988 137.011 120.851C136.979 120.789 136.949 120.726 136.921 120.663C136.907 120.632 136.893 120.6 136.88 120.569C136.847 120.496 136.938 120.711 136.882 120.575C136.796 120.36 136.722 120.141 136.659 119.918C136.629 119.811 136.6 119.702 136.578 119.593C136.495 119.3 136.193 119.128 135.9 119.207C135.611 119.294 135.441 119.593 135.514 119.886L135.514 119.886Z" fill="#1C1F34"/>
<path d="M203.016 144.624L196.061 144.566L195.06 144.558C194.762 144.567 194.525 144.812 194.525 145.11C194.525 145.408 194.762 145.652 195.06 145.661L202.015 145.719L203.016 145.727C203.314 145.717 203.551 145.473 203.551 145.175C203.551 144.877 203.314 144.633 203.016 144.624Z" fill="#1C1F34"/>
<path d="M259.266 165.68L257.312 175.716L257.035 177.136C256.9 177.829 257.963 178.126 258.099 177.429L260.054 167.393L260.33 165.973C260.465 165.28 259.402 164.983 259.267 165.68L259.266 165.68Z" fill="#1C1F34"/>
<path d="M241.94 94.9737L221.969 94.9291C219.696 94.9241 217.719 96.4851 217.196 98.6974L214.18 111.466L227.149 116.546" fill="#5E5FB8"/>
<path d="M241.94 94.4221L236.1 94.4091L225.898 94.3863L222.59 94.3789C221.352 94.3762 220.16 94.5225 219.079 95.2012C217.672 96.0847 216.923 97.4555 216.552 99.0269L215.653 102.833C214.998 105.607 214.31 108.375 213.687 111.156C213.675 111.21 213.661 111.265 213.648 111.32C213.577 111.612 213.746 111.909 214.033 111.998L225.416 116.456L227.003 117.077C227.664 117.336 227.951 116.27 227.296 116.014L215.913 111.556L214.326 110.935L214.712 111.613L216.381 104.545L217.425 100.128C217.67 99.088 217.848 98.0252 218.526 97.1565C219.46 95.9613 220.83 95.478 222.3 95.4812L225.139 95.4876L235.028 95.5097C237.292 95.5147 239.565 95.5828 241.828 95.5248C241.865 95.5239 241.903 95.525 241.94 95.5251C242.238 95.5156 242.474 95.2715 242.474 94.9736C242.474 94.6757 242.238 94.4315 241.94 94.422L241.94 94.4221Z" fill="#1C1F34"/>
<path d="M216.783 100.999H241.021C241.319 100.99 241.555 100.745 241.555 100.448C241.555 100.15 241.319 99.9055 241.021 99.896H216.783C216.485 99.9055 216.249 100.15 216.249 100.448C216.249 100.745 216.485 100.99 216.783 100.999Z" fill="#1C1F34"/>
<path d="M221.161 100.448L222.239 103.26C222.339 103.52 222.32 103.809 222.187 104.053C222.055 104.297 221.823 104.471 221.552 104.529C221.231 104.598 220.898 104.496 220.67 104.261C220.442 104.025 220.352 103.689 220.431 103.371L221.161 100.448Z" fill="#1C1F34"/>
<path d="M220.629 100.594C220.987 101.528 221.366 102.457 221.704 103.399C221.725 103.453 221.741 103.509 221.753 103.566C221.735 103.477 221.75 103.625 221.749 103.658C221.747 103.723 221.75 103.651 221.752 103.64C221.745 103.674 221.735 103.707 221.726 103.741C221.725 103.747 221.692 103.822 221.716 103.771C221.743 103.713 221.692 103.807 221.685 103.819C221.655 103.871 221.69 103.822 221.697 103.813C221.681 103.833 221.664 103.852 221.645 103.87C221.628 103.889 221.609 103.907 221.589 103.924C221.611 103.906 221.664 103.884 221.575 103.932C221.551 103.944 221.529 103.958 221.505 103.97C221.429 104.008 221.57 103.953 221.486 103.976C221.473 103.979 221.349 104.007 221.438 103.995C221.383 104.001 221.327 104.002 221.272 103.996C221.36 104.004 221.239 103.982 221.209 103.974C221.104 103.945 221.175 103.958 221.196 103.969C221.166 103.952 221.136 103.935 221.107 103.916C221.176 103.961 221.082 103.89 221.06 103.87C220.99 103.809 221.03 103.837 221.048 103.862C221.033 103.841 221.019 103.819 221.006 103.797C220.993 103.775 220.981 103.752 220.97 103.728C220.975 103.74 220.993 103.798 220.978 103.738C220.969 103.704 220.958 103.671 220.952 103.636C220.936 103.553 220.951 103.708 220.954 103.622C220.956 103.594 220.954 103.567 220.956 103.539C220.955 103.552 220.943 103.611 220.957 103.545C220.959 103.534 220.962 103.522 220.965 103.511C220.97 103.491 220.975 103.47 220.98 103.45C221.002 103.36 221.025 103.27 221.047 103.18L221.274 102.272L221.692 100.594C221.766 100.303 221.593 100.007 221.304 99.9269C221.015 99.8471 220.715 100.013 220.629 100.301L220.225 101.92L219.974 102.925C219.885 103.2 219.848 103.488 219.866 103.777C219.948 104.472 220.501 105.018 221.197 105.091C221.893 105.164 222.548 104.746 222.773 104.083C223.012 103.424 222.629 102.743 222.397 102.138L221.692 100.301C221.604 100.013 221.306 99.8437 221.014 99.9157C220.722 99.9986 220.55 100.301 220.629 100.594Z" fill="#1C1F34"/>
<path d="M249.499 133.277C250.321 135.539 251.792 137.804 253.768 139.202C254.577 139.786 255.514 140.166 256.501 140.31L256.116 139.632C255.742 141.408 255.369 143.184 255.012 144.963C254.874 145.656 255.937 145.953 256.076 145.256C256.432 143.477 256.805 141.701 257.179 139.925C257.257 139.632 257.086 139.33 256.794 139.247C254.768 138.973 253.222 137.525 252.11 135.895C251.663 135.237 251.267 134.546 250.927 133.827C250.868 133.704 250.811 133.58 250.755 133.455C250.731 133.399 250.706 133.343 250.682 133.287C250.639 133.186 250.722 133.387 250.664 133.243C250.63 133.157 250.594 133.071 250.562 132.984C250.322 132.322 249.255 132.608 249.499 133.277L249.499 133.277Z" fill="#1C1F34"/>
<ellipse cx="77.7679" cy="125.438" rx="2.94149" ry="2.94147" fill="#1C1F34"/>
<path d="M80.158 125.438C80.1568 126.443 79.5276 127.339 78.5834 127.682C77.6393 128.024 76.5817 127.74 75.9368 126.97C75.2919 126.2 75.1973 125.109 75.7002 124.239C76.203 123.37 77.1959 122.908 78.1849 123.083C79.3224 123.293 80.1503 124.282 80.158 125.438C80.1677 126.148 81.2708 126.15 81.261 125.438C81.2456 123.978 80.3358 122.676 78.9694 122.16C77.538 121.636 75.9324 122.102 75.0031 123.31C74.0737 124.518 74.0356 126.189 74.9088 127.439C75.782 128.688 77.3647 129.226 78.8185 128.768C80.2723 128.311 81.2611 126.963 81.261 125.438C81.2706 124.728 80.1676 124.728 80.158 125.438Z" fill="#1C1F34"/>
<path d="M21.6922 85.0768L47.1088 45.4235C48.2551 43.6351 50.2332 42.5535 52.3574 42.5535C54.4816 42.5535 56.4597 43.6351 57.606 45.4235L83.0225 85.0768C84.2524 86.9955 84.3372 89.4324 83.2438 91.432C82.1504 93.4316 80.053 94.6752 77.774 94.6752H26.9409C24.6618 94.6753 22.5644 93.4317 21.4709 91.4321C20.3775 89.4325 20.4623 86.9955 21.6922 85.0768Z" fill="#EA2F2F"/>
<path d="M22.1687 85.3551L24.1534 82.2587L29.0832 74.5675L35.3978 64.7158L41.5907 55.0539L46.1539 47.9346C47.0326 46.5636 47.8573 44.9175 49.2572 44.0158C51.292 42.7194 53.9189 42.8267 55.8411 44.2849C56.4752 44.816 57.0124 45.4531 57.4286 46.1678L60.6751 51.2327L66.3044 60.0152L72.7744 70.1092L78.5307 79.0899L82.0762 84.6213C82.3155 84.9946 82.5704 85.3644 82.783 85.754C83.7397 87.5333 83.6794 89.6869 82.6247 91.41C81.57 93.133 79.6796 94.1663 77.6598 94.1236C77.1561 94.1245 76.6523 94.1236 76.1487 94.1236H28.3549C27.904 94.1236 27.4531 94.1249 27.0022 94.1236C24.9089 94.1481 22.9719 93.0192 21.9613 91.1859C20.9507 89.3526 21.0304 87.112 22.1687 85.3551C22.5476 84.7524 21.5935 84.1982 21.2162 84.7984C19.8858 86.8889 19.8007 89.5383 20.9943 91.7098C22.1879 93.8813 24.4703 95.2295 26.9482 95.2267C28.2308 95.2357 29.514 95.2267 30.7964 95.2267H73.1764C74.6797 95.2267 76.1831 95.2302 77.6864 95.2267C79.8735 95.2568 81.9411 94.2309 83.2401 92.4711C84.5392 90.7113 84.9104 88.4333 84.2374 86.3521C83.7458 84.8776 82.6822 83.5239 81.8509 82.2269L77.0495 74.7361L70.6724 64.7869L64.3032 54.8503L59.5965 47.5071C58.6955 46.1015 57.8464 44.4538 56.5101 43.4179C54.4493 41.8488 51.6814 41.5709 49.3498 42.6991C48.1598 43.3099 47.1646 44.2415 46.4767 45.3887L43.4868 50.0532L37.9129 58.7493L31.3592 68.974L25.4299 78.2244L21.7297 83.9974L21.2163 84.7984C20.832 85.3978 21.7864 85.9516 22.1687 85.3551Z" fill="#1C1F34"/>
<path d="M48.7823 52.5834L50.4939 80.0288H54.4043L56.116 52.5834C56.179 51.5712 55.821 50.5781 55.1266 49.839C54.4323 49.1 53.4633 48.6807 52.4493 48.6807C51.4351 48.6807 50.4661 49.0998 49.7717 49.8389C49.0773 50.578 48.7192 51.5712 48.7823 52.5834Z" fill="white"/>
<path d="M48.2307 52.5834L48.8123 61.9091L49.7319 76.6523L49.9425 80.0289C49.9483 80.3311 50.1918 80.5746 50.494 80.5804H54.4044C54.7064 80.5742 54.9497 80.3309 54.956 80.0289L55.2112 75.9359L55.7791 66.8316L56.3625 57.4778C56.4631 55.8641 56.5782 54.2506 56.6645 52.6362C56.8046 50.5323 55.3722 48.6472 53.3077 48.2185C51.2432 47.7899 49.1787 48.9489 48.4698 50.9347C48.2811 51.4629 48.1998 52.0234 48.2308 52.5834C48.2634 53.2902 49.3666 53.2942 49.3338 52.5834C49.2484 51.4033 49.8366 50.2762 50.8536 49.6715C51.8706 49.0668 53.1418 49.0883 54.1378 49.727C55.1337 50.3657 55.6836 51.512 55.5584 52.6885C55.4635 54.2967 55.3578 55.9045 55.2575 57.5122L54.7007 66.4375L54.1454 75.3397L53.9514 78.4498C53.8908 78.9517 53.8593 79.4566 53.8571 79.9621C53.857 79.9845 53.8556 80.0068 53.853 80.0289L54.4045 79.4774H50.494L51.0456 80.0289L50.4639 70.7032L49.5444 55.96L49.3338 52.5834C49.2898 51.8783 48.1864 51.8733 48.2307 52.5834Z" fill="white"/>
<ellipse cx="52.4497" cy="87.352" rx="3.21191" ry="3.2119" fill="white"/>
<path d="M55.1099 87.352C55.1087 88.4705 54.4078 89.4688 53.3563 89.8498C52.3047 90.2309 51.127 89.9133 50.4096 89.0553C49.6921 88.1972 49.5881 86.9819 50.1494 86.0144C50.7107 85.0469 51.8173 84.534 52.9183 84.7308C54.182 84.9675 55.1008 86.0664 55.1099 87.352C55.1196 88.0612 56.2227 88.0633 56.213 87.352C56.1966 85.7798 55.2181 84.3783 53.7478 83.8212C52.2058 83.2552 50.4748 83.7552 49.4722 85.0563C48.4695 86.3574 48.4272 88.1587 49.3675 89.5055C50.3079 90.8523 52.0134 91.4332 53.5803 90.9403C55.1472 90.4473 56.213 88.9946 56.213 87.352C56.2229 86.642 55.1197 86.6416 55.1099 87.352Z" fill="white"/>
<path d="M120.236 42.8927H197.582C198.625 42.8927 199.671 42.9143 200.715 42.8927C200.76 42.8917 200.806 42.8927 200.851 42.8927C201 42.8874 201.117 42.7655 201.117 42.6169C201.117 42.4684 201 42.3465 200.851 42.3412H123.505C122.462 42.3412 121.416 42.3195 120.373 42.3412C120.327 42.3421 120.281 42.3412 120.236 42.3412C120.087 42.3465 119.97 42.4684 119.97 42.6169C119.97 42.7655 120.087 42.8874 120.236 42.8927Z" fill="#1C1F34"/>
<path d="M106.264 54.8425H197.1C198.327 54.8425 199.556 54.8636 200.782 54.8425C200.836 54.8415 200.89 54.8425 200.943 54.8425C201.092 54.8372 201.209 54.7153 201.209 54.5667C201.209 54.4182 201.092 54.2963 200.943 54.291H110.107C108.88 54.291 107.651 54.2697 106.425 54.291C106.371 54.2919 106.317 54.291 106.264 54.291C106.115 54.2963 105.998 54.4182 105.998 54.5667C105.998 54.7153 106.115 54.8372 106.264 54.8425Z" fill="#1C1F34"/>
<path d="M106.355 66.7924H197.192C198.418 66.7924 199.647 66.8135 200.874 66.7924C200.928 66.7915 200.981 66.7924 201.035 66.7924C201.184 66.7874 201.302 66.6654 201.302 66.5166C201.302 66.3678 201.184 66.2459 201.035 66.2408H110.199C108.972 66.2408 107.743 66.2197 106.516 66.2408C106.463 66.2418 106.409 66.2408 106.355 66.2408C106.207 66.2459 106.089 66.3678 106.089 66.5166C106.089 66.6654 106.207 66.7874 106.355 66.7924Z" fill="#1C1F34"/>
<path d="M106.447 78.7423H144.004C144.512 78.7423 145.033 78.7771 145.54 78.7423C145.562 78.7407 145.584 78.7423 145.606 78.7423C145.755 78.7372 145.873 78.6152 145.873 78.4665C145.873 78.3177 145.755 78.1957 145.606 78.1907H108.049C107.542 78.1907 107.02 78.1558 106.513 78.1907C106.492 78.1922 106.469 78.1907 106.447 78.1907C106.299 78.1957 106.181 78.3177 106.181 78.4665C106.181 78.6152 106.299 78.7372 106.447 78.7423H106.447Z" fill="#1C1F34"/>
</svg>
