<svg width="336" height="345" viewBox="0 0 336 345" fill="none" xmlns="http://www.w3.org/2000/svg">
<path d="M189.785 35.4976V50.5876C189.785 100.674 169.374 148.597 133.26 183.302C127.587 188.753 118.622 188.753 112.949 183.302C76.8348 148.597 56.4235 100.674 56.4234 50.5878V35.4978L123.104 4.49255L189.785 35.4976Z" fill="#F0F0FA"/>
<path d="M189.056 35.4977C189.056 41.2033 189.107 46.9115 189.045 52.6171C188.762 78.2185 183.12 103.477 172.483 126.766C167.184 138.351 160.698 149.355 153.128 159.603C149.323 164.749 145.25 169.691 140.925 174.409C138.745 176.788 136.503 179.109 134.2 181.372C132.12 183.415 130.024 185.194 127.178 186.055C124.44 186.882 121.515 186.856 118.793 185.981C115.952 185.068 113.883 183.221 111.802 181.169C107.215 176.648 102.868 171.89 98.7792 166.914C74.3158 137.107 59.8708 100.347 57.4976 61.8591C57.0094 53.9044 57.1525 45.9225 57.1525 37.9569V35.4977L56.7914 36.1271L63.4281 33.0412L79.364 25.6313L98.5603 16.7055L115.237 8.95132L120.756 6.38505C121.578 6.00276 122.607 5.69461 123.356 5.17613C123.393 5.15499 123.432 5.1369 123.472 5.12203H122.736L129.373 8.20793L145.309 15.6178L164.505 24.5438L181.181 32.2979C183.88 33.5527 186.554 34.9259 189.3 36.0731C189.34 36.0896 189.378 36.1092 189.417 36.1272C190.262 36.5203 191.004 35.264 190.153 34.8683L183.465 31.7587L167.426 24.3006L148.148 15.3369L131.486 7.58958C128.86 6.36818 126.253 4.97481 123.56 3.90383C122.911 3.64599 122.361 4.03778 121.767 4.31365L117.691 6.20887L102.601 13.2254L83.3466 22.1784L66.0223 30.2339L56.4984 34.6623L56.0556 34.8682C55.8302 34.9972 55.6921 35.238 55.6945 35.4977C55.6945 41.3961 55.6291 47.2984 55.713 53.1964C56.3691 98.9636 73.978 142.861 105.132 176.394C107.364 178.794 109.658 181.135 112.015 183.415C113.984 185.398 116.432 186.839 119.121 187.597C121.813 188.311 124.647 188.288 127.327 187.531C130.084 186.745 132.363 185.19 134.401 183.213C139.096 178.659 143.544 173.858 147.728 168.83C172.714 138.828 187.553 101.682 190.114 62.7223C190.657 54.5029 190.514 46.2571 190.514 38.0247V35.4977C190.514 34.5595 189.056 34.558 189.056 35.4977Z" fill="#1C1F34"/>
<path d="M110.684 180.25C103.806 173.399 97.63 165.877 92.2486 157.797C87.9295 151.269 83.9701 144.255 81.6662 136.736C80.7516 133.738 80.2487 130.63 80.171 127.496L79.9104 118.543L79.4905 104.118L79.0056 87.4621L78.5502 71.8188L78.2187 60.4305C78.1624 58.496 78.2904 56.3566 77.9321 54.45C77.1773 50.6647 74.199 47.7173 70.4061 47.002C69.5771 46.8558 68.7405 46.894 67.9115 46.7603C64.993 46.2996 62.4383 44.5464 60.9589 41.9888C60.2678 40.7939 59.9462 39.4953 59.5987 38.1751C59.3602 37.2685 57.9534 37.6529 58.1928 38.5627C58.494 39.9465 58.9676 41.2871 59.6027 42.5529C61.5148 45.9919 65.0858 48.1807 69.018 48.3239C70.8288 48.3843 72.5631 49.0685 73.9274 50.2606C75.8401 51.9511 76.6023 54.1914 76.6515 56.6831C76.6656 57.3961 76.693 58.109 76.7138 58.8218L77.0071 68.8978L77.4438 83.8993L77.9323 100.681L78.3755 115.903L78.6776 126.282C78.7454 128.609 78.814 130.89 79.263 133.191C80.6575 140.337 84.0633 147.117 87.7358 153.338C92.5705 161.425 98.2133 169.001 104.577 175.949C106.226 177.767 107.917 179.544 109.653 181.281C110.316 181.945 111.348 180.915 110.684 180.25H110.684Z" fill="#1C1F34"/>
<path d="M122.318 15.77C122.27 16.7711 122.224 17.7723 122.181 18.7736C122.058 21.5344 121.943 24.2955 121.835 27.057C121.668 31.2656 121.515 35.4747 121.374 39.6843C121.196 44.9662 121.038 50.2487 120.899 55.5317C120.739 61.5984 120.607 67.6659 120.502 73.7339C120.391 80.1939 120.318 86.6544 120.282 93.1155C120.249 99.6915 120.267 106.268 120.336 112.844C120.408 119.14 120.537 125.436 120.758 131.729C120.959 137.469 121.234 143.206 121.649 148.935C121.998 153.758 122.444 158.578 123.107 163.37C123.246 164.375 123.397 165.378 123.559 166.379C123.71 167.303 125.115 166.911 124.965 165.991C124.235 161.517 123.764 157.002 123.384 152.486C122.92 146.969 122.61 141.438 122.377 135.907C122.115 129.691 121.954 123.471 121.854 117.25C121.75 110.733 121.707 104.215 121.725 97.6963C121.736 91.1858 121.791 84.6756 121.89 78.1656C121.979 71.9968 122.1 65.8286 122.252 59.6609C122.386 54.1683 122.541 48.6763 122.717 43.1849C122.861 38.7031 123.018 34.2217 123.189 29.7407C123.308 26.6038 123.436 23.4671 123.57 20.3308C123.633 18.8765 123.752 17.4142 123.767 15.9585C123.768 15.8957 123.773 15.8326 123.776 15.7698C123.822 14.8321 122.364 14.8343 122.318 15.7698L122.318 15.77Z" fill="#1C1F34"/>
<path d="M78.5295 88.4001C80.0647 87.9207 81.6336 87.5359 83.1964 87.159C87.582 86.1011 92.0179 85.2511 96.472 84.5385C103.293 83.4472 110.168 82.6998 117.06 82.2406C126.047 81.6465 135.059 81.5365 144.057 81.9112C154.78 82.3525 165.466 83.4641 176.05 85.2393C177.436 85.4717 178.819 85.7153 180.201 85.9701C181.118 86.1389 181.511 84.7341 180.588 84.5642C169.768 82.5687 158.832 81.257 147.846 80.6372C138.596 80.1155 129.324 80.1033 120.072 80.6007C112.807 80.9945 105.57 81.7213 98.362 82.7811C93.555 83.4959 88.7676 84.3675 84.0323 85.4639C82.094 85.9127 80.1044 86.3338 78.2158 86.9715C78.1914 86.9797 78.1665 86.9865 78.1419 86.9942C77.2492 87.2729 77.6303 88.6809 78.5295 88.4001L78.5295 88.4001Z" fill="#1C1F34"/>
<path d="M57.7805 93.897C58.5437 95.1685 59.4711 96.334 60.5387 97.3633C63.2198 100.051 66.3712 102.223 69.8364 103.774C72.6487 105.048 75.5951 106.003 78.6203 106.62C79.5359 106.81 79.9274 105.405 79.0079 105.214C74.2616 104.227 69.6632 102.491 65.6491 99.7438C64.317 98.8356 63.0683 97.8107 61.9177 96.6814C61.4705 96.2412 61.0405 95.7844 60.6277 95.3109C60.4574 95.1149 60.2907 94.9158 60.1276 94.7137C60.0622 94.6326 59.998 94.5507 59.9335 94.469C59.9215 94.4538 60.0136 94.5757 59.9237 94.4561C59.8895 94.4107 59.855 94.3656 59.8209 94.3201C59.5346 93.9518 59.2736 93.5646 59.0397 93.1611C58.5847 92.3402 57.3251 93.0748 57.7808 93.8968L57.7805 93.897Z" fill="#1C1F34"/>
<circle cx="216.393" cy="19.9361" r="13.8157" fill="#FCB332"/>
<path d="M215.664 6.1204C215.632 11.5766 212.249 16.4516 207.148 18.3895C205.684 18.9265 204.137 19.2032 202.577 19.2071C202.185 19.2209 201.874 19.5432 201.874 19.9361C201.874 20.329 202.185 20.6513 202.577 20.6651C208.034 20.6969 212.909 24.0807 214.846 29.1813C215.383 30.6455 215.66 32.1923 215.664 33.7518C215.678 34.1445 216 34.4556 216.393 34.4556C216.786 34.4556 217.108 34.1445 217.122 33.7518C217.154 28.2956 220.538 23.4206 225.638 21.4827C227.102 20.9456 228.649 20.6689 230.209 20.6651C230.601 20.6513 230.913 20.329 230.913 19.9361C230.913 19.5432 230.601 19.2209 230.209 19.2071C224.753 19.1753 219.878 15.7914 217.94 10.6909C217.403 9.2267 217.126 7.67986 217.122 6.12033C217.118 5.18236 215.66 5.18045 215.664 6.12033C215.663 9.97819 217.195 13.6784 219.923 16.4063C222.651 19.1342 226.351 20.6662 230.209 20.665V19.2071C226.351 19.2059 222.651 20.7379 219.923 23.4658C217.195 26.1938 215.663 29.894 215.664 33.7518H217.122C217.123 29.894 215.591 26.1938 212.863 23.4658C210.136 20.7379 206.435 19.2059 202.578 19.2071V20.6651C208.662 20.6189 214.09 16.8304 216.232 11.1349C216.82 9.52856 217.122 7.83119 217.122 6.1204C217.126 5.18207 215.668 5.18088 215.664 6.1204Z" fill="#1C1F34"/>
<circle cx="14.7055" cy="103.284" r="13.8157" fill="#FCB332"/>
<path d="M13.7905 89.4684C13.7587 94.9246 10.3749 99.7996 5.27435 101.737C3.81018 102.274 2.26334 102.551 0.703791 102.555C0.311159 102.569 0 102.891 0 103.284C0 103.677 0.311159 103.999 0.703791 104.013C6.16004 104.045 11.0351 107.429 12.9729 112.529C13.51 113.993 13.7867 115.54 13.7905 117.1C13.8041 117.493 14.1264 117.804 14.5195 117.804C14.9126 117.804 15.235 117.493 15.2485 117.1C15.2803 111.644 18.6641 106.769 23.7647 104.831C25.2289 104.294 26.7757 104.017 28.3352 104.013C28.7279 103.999 29.039 103.677 29.039 103.284C29.039 102.891 28.7279 102.569 28.3352 102.555C22.8791 102.523 18.0041 99.1396 16.0661 94.0391C15.529 92.5748 15.2523 91.0279 15.2485 89.4684C15.2443 88.5304 13.7863 88.5285 13.7905 89.4684C13.7893 93.3262 15.3213 97.0264 18.0492 99.7543C20.7771 102.482 24.4773 104.014 28.3352 104.013V102.555C24.4773 102.554 20.7771 104.086 18.0492 106.814C15.3213 109.542 13.7893 113.242 13.7905 117.1H15.2485C15.2022 111.015 11.4138 105.587 5.71828 103.445C4.11191 102.857 2.41454 102.556 0.703755 102.555V104.013C4.56162 104.014 8.26182 102.482 10.9897 99.7543C13.7177 97.0264 15.2497 93.3262 15.2485 89.4684C15.2527 88.53 13.7947 88.5288 13.7905 89.4684Z" fill="#1C1F34"/>
<circle cx="178.521" cy="9.45211" r="8.74789" fill="#FCB332"/>
<path d="M177.792 0.704164C177.747 5.11415 174.183 8.67815 169.773 8.72305C169.38 8.73659 169.069 9.05898 169.069 9.45205C169.069 9.84513 169.38 10.1675 169.773 10.1811C174.183 10.226 177.747 13.79 177.792 18.1999C177.806 18.5926 178.128 18.9037 178.521 18.9037C178.914 18.9037 179.236 18.5926 179.25 18.1999C179.295 13.79 182.859 10.226 187.269 10.1811C187.662 10.1675 187.973 9.84513 187.973 9.45205C187.973 9.05898 187.662 8.73659 187.269 8.72305C182.859 8.67815 179.295 5.11415 179.25 0.704164C179.243 -0.233549 177.785 -0.235785 177.792 0.704164C177.792 5.93809 182.035 10.181 187.269 10.1811V8.72305C182.035 8.72309 177.792 12.966 177.792 18.1999H179.25C179.25 12.966 175.007 8.72305 169.773 8.72305V10.1811C172.286 10.1811 174.697 9.1826 176.474 7.40534C178.251 5.62808 179.25 3.21759 179.25 0.704164C179.256 -0.234234 177.798 -0.235208 177.792 0.704164Z" fill="#1C1F34"/>
<path d="M149.048 83.5662C149.651 74.7737 149.648 74.9557 149.648 69.8137C149.647 64.6718 153.388 63.9127 154.628 69.0119C155.813 77.2361 154.637 91.6494 154.637 91.6494L176.021 109.324L217.458 109.81L216.601 126.577L155.852 124.876L131.066 97.903L133.496 85.7531L142.487 79.4352" fill="#FC7272"/>
<path d="M149.777 83.5662C149.975 80.6733 150.211 77.7787 150.321 74.8805C150.355 73.9863 150.368 73.0916 150.373 72.1969C150.38 70.8831 150.245 69.4913 150.532 68.203C150.632 67.643 150.866 67.1154 151.213 66.6647C151.331 66.5062 151.492 66.3854 151.677 66.3171C151.549 66.3739 151.817 66.2843 151.866 66.2754C151.708 66.3036 151.984 66.2793 152.048 66.2847C151.887 66.2711 152.179 66.3229 152.234 66.3419C152.431 66.4104 152.124 66.2744 152.313 66.3803C152.355 66.4041 152.397 66.4282 152.438 66.4533C152.639 66.5874 152.815 66.7548 152.958 66.9482C153.395 67.5625 153.705 68.2577 153.87 68.9931C154.02 69.693 154.11 70.4041 154.142 71.119C154.213 71.8994 154.266 72.6814 154.307 73.4639C154.393 75.1183 154.426 76.7752 154.428 78.4317C154.431 81.4563 154.334 84.481 154.174 87.5011C154.122 88.4919 154.062 89.4824 153.994 90.4723C153.968 90.8574 153.899 91.2612 153.908 91.6476C153.918 92.0623 154.204 92.2334 154.481 92.462L155.648 93.4267L159.789 96.8494L170.448 105.66L174.321 108.86C174.758 109.222 175.446 110.017 176.052 110.053C176.695 110.091 177.348 110.068 177.993 110.076L182.394 110.128L195.479 110.281L209.106 110.441L217.076 110.534L217.458 110.539L216.729 109.81L216.44 115.454L215.978 124.505L215.872 126.576L216.601 125.847L210.535 125.678L196.061 125.272L178.47 124.78L163.339 124.356L158.326 124.216C157.543 124.194 156.736 124.114 155.953 124.149C155.92 124.151 155.885 124.147 155.852 124.146L156.367 124.36L153.906 121.681L147.992 115.246L140.836 107.458L134.644 100.72L132.587 98.4821C132.272 98.1395 131.973 97.7464 131.626 97.4357C131.61 97.4213 131.596 97.4034 131.581 97.3876L131.769 98.0968L133.892 87.4803L134.199 85.947L133.864 86.3826L141.728 80.8562L142.855 80.0647C143.617 79.5293 142.889 78.2647 142.119 78.8058L137.072 82.3523L133.944 84.5505C133.521 84.8479 132.899 85.1471 132.769 85.6772C132.236 87.8553 131.886 90.095 131.446 92.2935L130.682 96.1146L130.44 97.3267C130.359 97.5749 130.333 97.8376 130.363 98.0968C130.513 98.4029 130.726 98.6742 130.987 98.8933L132.232 100.248L136.583 104.983L148.158 117.58L152.913 122.754C153.693 123.603 154.449 124.485 155.258 125.306C155.655 125.709 156.3 125.617 156.828 125.632L160.673 125.74L174.443 126.125L191.87 126.613L207.643 127.055L216.204 127.295L216.601 127.306C217.001 127.299 217.323 126.976 217.33 126.577L217.619 120.932L218.081 111.881L218.187 109.81C218.182 109.41 217.858 109.086 217.458 109.081L213.32 109.033L203.432 108.916L191.476 108.776L181.105 108.654L177.713 108.615C177.181 108.609 176.621 108.551 176.09 108.596C176.067 108.598 176.043 108.595 176.02 108.595L176.536 108.808L169.294 102.823L157.771 93.2987L155.152 91.134L155.365 91.6495C155.882 85.7439 156.023 79.8115 155.785 73.8882C155.741 72.9451 155.681 72.0026 155.594 71.0624C155.549 70.0731 155.396 69.0917 155.139 68.1355C154.677 66.7008 153.671 64.8191 151.921 64.821C150.235 64.8231 149.345 66.6139 149.079 68.0441C148.788 69.6097 148.926 71.2565 148.91 72.8435C148.873 76.4228 148.563 79.9969 148.318 83.566C148.254 84.5025 149.712 84.4986 149.776 83.566L149.777 83.5662Z" fill="#1C1F34"/>
<path d="M236.423 138.716L199.497 137.857L236.423 138.716Z" fill="#FC7272"/>
<path d="M236.423 137.987L232.754 137.902L223.941 137.697L213.277 137.449L204.053 137.234C202.562 137.199 201.053 137.092 199.561 137.129C199.54 137.13 199.518 137.128 199.496 137.128C198.558 137.106 198.558 138.564 199.496 138.586L203.165 138.671L211.978 138.876L222.642 139.125L231.866 139.339C233.357 139.374 234.867 139.481 236.358 139.444C236.38 139.443 236.401 139.445 236.423 139.445C237.362 139.467 237.361 138.009 236.423 137.987H236.423Z" fill="#1C1F34"/>
<path d="M233.854 139.213L191.433 138.737C192.104 136.147 196.476 125.653 196.84 122.236C197.384 117.121 197.358 112.497 196.876 109.391L223.405 109.81H236.77" fill="#3D56A2"/>
<path d="M233.854 138.484L229.625 138.436L219.473 138.322L207.244 138.185L196.67 138.067L193.168 138.027C192.623 138.021 192.05 137.964 191.506 138.009C191.482 138.011 191.457 138.008 191.433 138.008L192.136 138.931C192.473 137.646 192.972 136.396 193.428 135.151C194.112 133.285 194.808 131.424 195.471 129.551C196.083 127.824 196.688 126.086 197.156 124.313C197.719 122.184 197.812 119.95 197.909 117.76C198.078 114.902 197.968 112.034 197.579 109.197L196.876 110.12L202.411 110.207L213.572 110.383L222.371 110.523C223.942 110.547 225.514 110.539 227.085 110.539H236.77C237.708 110.539 237.71 109.081 236.77 109.081H228.44C226.591 109.081 224.741 109.102 222.892 109.073L214.948 108.947L203.648 108.768C201.429 108.733 199.197 108.626 196.978 108.663C196.944 108.664 196.91 108.662 196.876 108.661C196.65 108.666 196.439 108.773 196.302 108.953C196.165 109.133 196.118 109.365 196.173 109.584C196.497 111.996 196.601 114.433 196.485 116.863C196.439 118.361 196.341 119.857 196.2 121.349C196.169 121.672 196.14 121.996 196.101 122.318C196.091 122.402 196.108 122.272 196.108 122.267C196.103 122.307 196.097 122.347 196.09 122.386C196.078 122.459 196.066 122.533 196.053 122.606C195.994 122.929 195.921 123.249 195.842 123.567C194.946 127.175 193.529 130.665 192.248 134.148C191.715 135.596 191.122 137.048 190.73 138.543C190.673 138.762 190.72 138.995 190.857 139.175C190.994 139.355 191.207 139.462 191.433 139.466L195.662 139.513L205.813 139.627L218.043 139.764L228.617 139.883C230.333 139.902 232.065 139.99 233.781 139.941C233.805 139.94 233.829 139.941 233.854 139.941C234.792 139.952 234.793 138.494 233.854 138.483L233.854 138.484Z" fill="#1C1F34"/>
<path d="M212.023 138.312C213.27 138.444 214.675 135.687 215.79 131.383L209.797 130.701C209.978 135.168 210.773 138.179 212.023 138.312Z" fill="#1C1F34"/>
<path d="M212.023 139.041C213.195 139.135 214.032 137.884 214.521 136.998C215.399 135.279 216.062 133.458 216.493 131.577C216.548 131.358 216.501 131.126 216.364 130.946C216.227 130.767 216.016 130.659 215.79 130.654L209.797 129.972C209.395 129.974 209.07 130.299 209.068 130.701C209.149 132.631 209.29 134.637 209.856 136.495C210.192 137.599 210.746 138.872 212.023 139.041C212.425 139.039 212.75 138.714 212.752 138.312C212.743 137.913 212.422 137.593 212.023 137.583C212.252 137.613 212.108 137.585 212.057 137.575C211.937 137.552 212.163 137.638 212.095 137.593C212.062 137.577 212.03 137.559 212 137.539C211.877 137.438 212.119 137.658 212 137.541C211.939 137.481 211.88 137.423 211.824 137.358C211.707 137.224 211.904 137.484 211.803 137.327C211.776 137.284 211.748 137.243 211.721 137.2C211.461 136.753 211.273 136.267 211.164 135.762C210.768 134.103 210.554 132.406 210.526 130.701L209.797 131.43L215.79 132.112L215.087 131.19C214.702 132.857 214.133 134.477 213.391 136.02C213.174 136.481 212.892 136.909 212.552 137.289C212.514 137.328 212.272 137.535 212.419 137.426C212.35 137.477 212.275 137.515 212.204 137.563C212.097 137.635 212.305 137.535 212.229 137.555C212.202 137.563 212.153 137.594 212.123 137.588C211.979 137.56 212.29 137.626 212.149 137.586C212.107 137.582 212.065 137.581 212.023 137.583C211.622 137.586 211.298 137.911 211.294 138.312C211.302 138.711 211.624 139.033 212.023 139.041Z" fill="#1C1F34"/>
<path d="M213.199 173.232L261.713 127.064L213.199 173.232Z" fill="#FC7272"/>
<path d="M213.715 173.748L215.015 172.51L218.532 169.163L223.758 164.19L230.136 158.12L237.091 151.502L244.143 144.79L250.72 138.532L256.253 133.266L260.253 129.459C260.883 128.86 261.536 128.276 262.147 127.657C262.174 127.63 262.202 127.605 262.228 127.58C262.909 126.931 261.877 125.902 261.197 126.549L259.897 127.786L256.38 131.134L251.154 136.106L244.776 142.176L237.821 148.794L230.769 155.506L224.192 161.764L218.659 167.03L214.659 170.837C214.029 171.437 213.376 172.02 212.765 172.64C212.738 172.666 212.71 172.691 212.684 172.717C212.003 173.365 213.035 174.395 213.715 173.748Z" fill="#1C1F34"/>
<path d="M313.006 281.66L332.526 308.532L300.443 340.358C300.443 340.358 290.879 331.809 301.849 318.988C303.916 316.572 303.18 312.864 302.037 309.897C300.952 307.123 299.195 304.662 296.924 302.735" fill="#A8542A"/>
<path d="M312.376 282.028L314.319 284.703L318.984 291.124L324.627 298.892L329.484 305.578L331.095 307.796C331.329 308.164 331.585 308.516 331.862 308.852C331.875 308.867 331.886 308.883 331.897 308.899L332.011 308.016L328.812 311.189L321.134 318.806L311.882 327.984L303.883 335.918L301.237 338.544C300.825 338.952 300.353 339.343 299.982 339.789C299.966 339.808 299.945 339.825 299.928 339.842H300.959C300.751 339.65 300.554 339.446 300.371 339.23C300.283 339.13 300.197 339.029 300.113 338.926C300.056 338.856 300 338.785 299.944 338.715C299.919 338.684 299.861 338.607 299.97 338.749C299.929 338.696 299.889 338.643 299.849 338.59C299.607 338.264 299.379 337.927 299.167 337.58C297.968 335.65 297.325 333.426 297.31 331.154C297.294 327.523 298.89 324.126 300.988 321.24C301.647 320.334 302.492 319.526 303.043 318.549C303.505 317.695 303.781 316.752 303.852 315.783C304.035 313.768 303.496 311.699 302.788 309.829C302.004 307.775 300.87 305.873 299.437 304.205C298.84 303.478 298.17 302.812 297.439 302.22C297.149 301.947 296.698 301.947 296.408 302.22C296.126 302.505 296.126 302.965 296.408 303.251C298.408 304.805 299.988 307.074 301.026 309.356C301.834 311.132 302.443 313.155 302.426 315.12C302.442 316.036 302.232 316.941 301.815 317.757C301.577 318.158 301.3 318.534 300.989 318.881C300.553 319.409 300.133 319.95 299.729 320.504C297.558 323.492 295.951 327.019 295.856 330.761C295.804 333.239 296.417 335.685 297.633 337.845C298.229 338.972 299.004 339.994 299.927 340.873C300.215 341.15 300.67 341.15 300.958 340.873L304.157 337.7L311.835 330.083L321.087 320.905L329.085 312.971C330.383 311.684 331.737 310.434 332.987 309.101C333.004 309.082 333.023 309.065 333.041 309.047C333.273 308.811 333.32 308.45 333.155 308.163L331.212 305.489L326.547 299.067L320.905 291.299L316.048 284.614C315.256 283.523 314.473 282.423 313.67 281.34C313.658 281.324 313.647 281.308 313.635 281.292C313.425 280.954 312.987 280.839 312.638 281.031C312.293 281.236 312.176 281.68 312.376 282.028Z" fill="#1C1F34"/>
<path d="M334.455 311.313L302.332 343.179C302.332 343.179 298.823 338.908 297.682 336.31L303.812 330.33L304.66 328.401C305.971 325.418 308.331 323.021 311.292 321.662L313.441 320.676L319.891 314.279C321.201 312.979 321.633 311.035 320.998 309.303C320.362 307.57 320.795 305.626 322.105 304.326L326.414 300.052L334.455 311.313Z" fill="white"/>
<path d="M333.939 310.797L330.745 313.967L323.072 321.577L313.791 330.785L305.768 338.744L303.124 341.366C302.713 341.774 302.241 342.164 301.87 342.609C301.854 342.629 301.834 342.646 301.816 342.663H302.847C302.208 341.884 301.627 341.121 301.031 340.305C299.974 338.95 299.062 337.488 298.311 335.942L298.197 336.826L303.953 331.21C304.202 331.002 304.405 330.745 304.548 330.454C304.842 329.786 305.123 329.111 305.434 328.451C306.613 325.943 308.58 323.887 311.034 322.599C311.729 322.235 312.454 321.927 313.166 321.601C313.522 321.468 313.85 321.27 314.133 321.017L317.181 317.993L320.218 314.981C321.833 313.462 322.404 311.137 321.678 309.044C321.235 307.791 321.431 306.4 322.204 305.319C322.532 304.913 322.892 304.534 323.281 304.185L326.672 300.822L326.929 300.567L325.784 300.42L332.822 310.277L333.825 311.681C334.035 312.019 334.473 312.134 334.822 311.942C335.167 311.737 335.284 311.293 335.084 310.945L328.045 301.088L327.043 299.684C326.926 299.492 326.728 299.364 326.506 299.336C326.283 299.307 326.06 299.381 325.898 299.536L323.081 302.33C321.901 303.501 320.615 304.585 320.166 306.264C319.979 306.973 319.936 307.712 320.04 308.438C320.129 309.076 320.403 309.656 320.509 310.287C320.708 311.561 320.286 312.853 319.374 313.764C318.623 314.527 317.853 315.273 317.093 316.027L313.58 319.512L313.102 319.986C313.059 320.029 313.01 320.069 312.971 320.116C312.868 320.241 313.004 320.007 313.064 320.051C312.789 320.142 312.525 320.263 312.278 320.412L311.147 320.931C308.832 321.977 306.836 323.618 305.36 325.686C304.761 326.558 304.252 327.488 303.841 328.463L303.342 329.598C303.316 329.658 303.177 329.871 303.194 329.934C303.203 329.966 303.377 329.773 303.259 329.85C302.904 330.14 302.575 330.46 302.277 330.808L300.52 332.523L297.354 335.611L297.166 335.795C296.94 336.033 296.894 336.39 297.052 336.678C297.821 338.257 298.755 339.75 299.838 341.132C300.477 342.001 301.132 342.861 301.816 343.694C302.103 343.975 302.561 343.975 302.847 343.694L306.042 340.525L313.714 332.914L322.996 323.707L331.019 315.748C332.315 314.462 333.667 313.214 334.916 311.882C334.933 311.864 334.952 311.846 334.97 311.828C335.637 311.167 334.606 310.136 333.939 310.797Z" fill="#1C1F34"/>
<path d="M303.509 315.769C303.616 315.738 303.726 315.714 303.837 315.698C304.04 315.665 303.646 315.717 303.843 315.696C303.911 315.689 303.978 315.683 304.046 315.678C304.206 315.668 304.365 315.667 304.525 315.675C304.607 315.679 304.689 315.687 304.771 315.694C304.916 315.707 304.589 315.661 304.771 315.694C304.823 315.704 304.874 315.712 304.926 315.722C305.129 315.766 305.329 315.824 305.524 315.895C305.663 315.943 305.391 315.831 305.538 315.9C305.586 315.922 305.634 315.943 305.68 315.967C305.794 316.024 305.905 316.087 306.012 316.156C306.059 316.186 306.106 316.218 306.153 316.251C306.175 316.267 306.315 316.388 306.191 316.278C306.3 316.373 306.408 316.465 306.511 316.567C306.796 316.849 307.255 316.847 307.539 316.564C307.822 316.28 307.824 315.821 307.542 315.536C306.755 314.756 305.711 314.288 304.605 314.221C304.106 314.181 303.603 314.228 303.121 314.363C302.868 314.431 302.671 314.629 302.605 314.882C302.538 315.135 302.612 315.404 302.799 315.588C302.986 315.771 303.257 315.84 303.508 315.769L303.509 315.769Z" fill="#1C1F34"/>
<path d="M302.522 319.01C302.63 318.979 302.74 318.955 302.851 318.939C303.054 318.905 302.659 318.958 302.856 318.937C302.924 318.93 302.992 318.924 303.06 318.919C303.219 318.909 303.379 318.908 303.538 318.916C303.621 318.92 303.703 318.928 303.785 318.935C303.929 318.948 303.602 318.902 303.785 318.935C303.836 318.945 303.888 318.953 303.939 318.963C304.142 319.007 304.342 319.065 304.538 319.136C304.677 319.184 304.405 319.072 304.552 319.141C304.6 319.163 304.647 319.184 304.694 319.208C304.808 319.265 304.918 319.328 305.025 319.397C305.073 319.427 305.12 319.459 305.166 319.492C305.189 319.508 305.329 319.628 305.205 319.519C305.313 319.614 305.422 319.706 305.525 319.808C305.81 320.09 306.269 320.088 306.552 319.805C306.836 319.521 306.837 319.062 306.556 318.777C305.769 317.997 304.725 317.529 303.619 317.462C303.12 317.421 302.617 317.469 302.134 317.604C301.883 317.673 301.688 317.871 301.623 318.123C301.557 318.375 301.631 318.643 301.816 318.826C302.002 319.009 302.271 319.079 302.522 319.01L302.522 319.01Z" fill="#1C1F34"/>
<path d="M300.564 321.923C300.671 321.892 300.781 321.868 300.892 321.851C301.095 321.818 300.7 321.871 300.898 321.85C300.966 321.843 301.033 321.836 301.101 321.832C301.261 321.822 301.42 321.82 301.58 321.828C301.662 321.832 301.744 321.841 301.826 321.848C301.97 321.86 301.644 321.815 301.826 321.848C301.878 321.857 301.929 321.865 301.981 321.876C302.184 321.92 302.384 321.977 302.579 322.048C302.718 322.096 302.446 321.985 302.593 322.053C302.641 322.075 302.688 322.097 302.735 322.12C302.849 322.177 302.96 322.24 303.067 322.309C303.114 322.34 303.161 322.371 303.208 322.404C303.23 322.42 303.37 322.541 303.246 322.431C303.355 322.527 303.463 322.619 303.566 322.72C303.851 323.002 304.31 323.001 304.594 322.717C304.877 322.434 304.879 321.975 304.597 321.689C303.81 320.909 302.766 320.442 301.66 320.375C301.161 320.334 300.658 320.382 300.176 320.516C299.923 320.585 299.727 320.783 299.66 321.036C299.594 321.288 299.668 321.558 299.855 321.741C300.041 321.924 300.312 321.993 300.563 321.922L300.564 321.923Z" fill="#1C1F34"/>
<path d="M300.016 339.928L332.099 308.101L300.016 339.928Z" fill="white"/>
<path d="M300.532 340.443L303.73 337.27L311.409 329.653L320.66 320.475L328.659 312.541C329.956 311.254 331.31 310.004 332.56 308.67C332.578 308.652 332.596 308.634 332.615 308.617C333.282 307.955 332.251 306.924 331.584 307.586L328.385 310.759L320.707 318.376L311.455 327.553L303.457 335.488C302.159 336.775 300.805 338.025 299.555 339.358C299.538 339.377 299.519 339.394 299.501 339.412C298.834 340.074 299.865 341.105 300.532 340.443H300.532Z" fill="#1C1F34"/>
<path d="M200.634 307.173L195.568 339.997H150.377C150.377 339.997 149.608 327.193 166.425 325.816C169.594 325.557 171.682 322.405 172.96 319.495C174.143 316.761 174.629 313.776 174.374 310.809" fill="#A8542A"/>
<path d="M199.931 306.979L199.427 310.246L198.216 318.091L196.752 327.579L195.491 335.746L195.073 338.456C194.979 338.881 194.913 339.312 194.874 339.746C194.872 339.765 194.869 339.784 194.865 339.803L195.568 339.268H152.221C151.641 339.268 151.031 339.213 150.453 339.268C150.428 339.271 150.402 339.268 150.377 339.268L151.106 339.997C151.095 339.762 151.097 339.526 151.112 339.292C151.124 339.023 151.147 338.755 151.178 338.488C151.186 338.427 151.224 338.15 151.186 338.413C151.198 338.331 151.209 338.25 151.222 338.169C151.252 337.979 151.285 337.79 151.323 337.601C151.496 336.742 151.75 335.902 152.081 335.091C152.157 334.904 152.02 335.228 152.102 335.042C152.126 334.986 152.151 334.929 152.176 334.873C152.227 334.76 152.28 334.647 152.334 334.534C152.456 334.283 152.586 334.035 152.724 333.791C153.007 333.29 153.323 332.81 153.671 332.352C154.039 331.89 154.434 331.45 154.855 331.037C155.326 330.579 155.832 330.159 156.368 329.78C157.659 328.884 159.074 328.181 160.569 327.693C162.569 327.027 164.596 326.774 166.676 326.519C168.866 326.25 170.553 324.791 171.805 323.061C173.4 320.807 174.457 318.218 174.897 315.493C175.191 313.949 175.26 312.372 175.103 310.809C175.091 310.412 174.772 310.093 174.374 310.08C173.973 310.082 173.648 310.407 173.645 310.809C173.782 312.074 173.755 313.351 173.566 314.609C173.241 317.033 172.411 319.363 171.13 321.448C170.117 323.098 168.637 324.789 166.607 325.069C165.497 325.221 164.384 325.296 163.28 325.5C162.303 325.677 161.338 325.917 160.392 326.218C157.512 327.143 154.785 328.713 152.843 331.069C151.481 332.72 150.515 334.661 150.02 336.744C149.741 337.805 149.616 338.901 149.648 339.997C149.655 340.397 149.977 340.719 150.377 340.726H189.995C191.823 340.726 193.665 340.793 195.491 340.726C195.516 340.725 195.542 340.726 195.568 340.726C195.895 340.724 196.182 340.506 196.271 340.191L196.775 336.924L197.986 329.08L199.45 319.591L200.711 311.424C200.916 310.091 201.131 308.759 201.328 307.424C201.331 307.405 201.334 307.386 201.337 307.367C201.431 306.98 201.208 306.587 200.828 306.47C200.44 306.366 200.04 306.593 199.931 306.979V306.979Z" fill="#1C1F34"/>
<path d="M218.994 173.003L213.311 173.143C213.311 173.143 211.34 179.429 216.689 182.151C221.885 184.794 218.994 173.003 218.994 173.003Z" fill="#1C1F34"/>
<path d="M218.994 172.274L213.311 172.414C212.985 172.421 212.701 172.637 212.608 172.949C212.242 174.196 212.131 175.503 212.282 176.793C212.507 179.352 214.033 181.614 216.321 182.78C217.055 183.15 217.931 183.438 218.743 183.145C219.45 182.849 219.983 182.247 220.19 181.509C220.739 179.955 220.552 178.114 220.354 176.513C220.207 175.267 219.988 174.03 219.697 172.809C219.475 171.898 218.068 172.284 218.291 173.196C218.499 174.045 218.657 174.908 218.791 175.771C218.898 176.458 218.988 177.198 219.037 178.016C219.061 178.428 219.073 178.84 219.064 179.252C219.06 179.437 219.052 179.622 219.039 179.806C219.032 179.895 219.025 179.984 219.016 180.073C219.01 180.126 218.98 180.35 219.002 180.201C218.953 180.531 218.874 180.856 218.766 181.172C218.726 181.287 218.829 181.067 218.737 181.24C218.705 181.299 218.677 181.359 218.643 181.417C218.61 181.472 218.574 181.525 218.538 181.578C218.634 181.439 218.544 181.568 218.49 181.623C218.47 181.642 218.315 181.77 218.413 181.697C218.506 181.628 218.367 181.718 218.341 181.737C218.194 181.843 218.414 181.727 218.314 181.755C218.239 181.776 218.167 181.797 218.092 181.813C218.254 181.778 218.128 181.81 218.041 181.808C217.971 181.806 217.901 181.804 217.83 181.798C218.002 181.812 217.798 181.79 217.739 181.775C217.645 181.752 217.553 181.726 217.461 181.695C216.977 181.507 216.519 181.255 216.101 180.946C215.642 180.619 215.235 180.225 214.894 179.776C214.31 178.975 213.928 178.046 213.78 177.066C213.709 176.603 213.678 176.135 213.686 175.666C213.689 175.447 213.698 175.228 213.716 175.01C213.724 174.898 213.735 174.787 213.747 174.676C213.751 174.634 213.757 174.591 213.762 174.549C213.779 174.404 213.751 174.619 213.764 174.532C213.816 174.127 213.899 173.728 214.014 173.337L213.311 173.872L218.994 173.732C219.931 173.709 219.934 172.25 218.994 172.274Z" fill="#1C1F34"/>
<path d="M260.414 166.199C260.414 166.199 270.173 168.076 271.299 173.706C272.425 179.336 258.162 180.649 258.162 180.649" fill="#1C1F34"/>
<path d="M260.221 166.902C261.689 167.201 263.124 167.644 264.505 168.226C266.676 169.12 269.118 170.504 270.206 172.717C270.322 172.955 270.417 173.203 270.488 173.458C270.564 173.685 270.611 173.92 270.628 174.158C270.634 174.262 270.635 174.365 270.63 174.469C270.627 174.53 270.622 174.591 270.615 174.651C270.632 174.495 270.622 174.602 270.616 174.636C270.594 174.744 270.571 174.85 270.54 174.955C270.524 175.007 270.411 175.297 270.479 175.144C270.099 175.917 269.49 176.554 268.735 176.969C266.853 178.162 264.63 178.758 262.422 179.234C261.398 179.454 260.367 179.637 259.328 179.781C259.278 179.788 259.228 179.795 259.178 179.802C259.006 179.825 259.349 179.779 259.183 179.801C259.097 179.812 259.012 179.823 258.926 179.834C258.789 179.851 258.652 179.867 258.514 179.883C258.397 179.896 258.28 179.909 258.162 179.92C257.764 179.931 257.444 180.251 257.433 180.649C257.436 181.051 257.761 181.375 258.162 181.378C259.521 181.244 260.871 181.039 262.208 180.764C264.573 180.292 267.015 179.654 269.119 178.44C270.076 177.931 270.896 177.199 271.51 176.305C272.081 175.376 272.233 174.249 271.93 173.201C271.204 170.436 268.663 168.586 266.215 167.405C264.435 166.532 262.551 165.89 260.608 165.496C259.691 165.319 259.299 166.724 260.221 166.902L260.221 166.902Z" fill="#1C1F34"/>
<path d="M242.279 191.27L210.33 250.614L199.624 313.637L161.245 313.68C161.245 313.68 161.936 274.062 177.202 232.232C187.302 204.559 210.67 177.538 213.36 173.25C221.328 160.547 240.023 153.05 240.023 153.05" fill="white"/>
<path d="M241.649 190.902L238.613 196.541L231.272 210.177L222.312 226.82L214.299 241.704L209.918 249.842C209.739 250.15 209.616 250.487 209.556 250.838L208.997 254.125L206.634 268.04L203.483 286.588L200.589 303.625L198.994 313.011L198.921 313.443L199.624 312.908L186.666 312.922L166.002 312.946L161.245 312.951L161.974 313.68C162.097 306.728 162.832 299.752 163.679 292.859C165.673 276.335 169.122 260.019 173.985 244.102C176.635 235.499 179.71 227.083 183.77 219.039C187.453 211.838 191.567 204.866 196.091 198.162C199.718 192.727 203.551 187.433 207.5 182.228C209.644 179.403 211.995 176.666 213.939 173.696C217.559 168.166 222.587 163.845 228.089 160.252C231.779 157.831 235.669 155.727 239.715 153.964C239.812 153.923 239.908 153.881 240.005 153.84C240.087 153.805 239.856 153.903 240.043 153.825C240.101 153.8 240.159 153.776 240.217 153.753C241.077 153.408 240.701 151.997 239.829 152.347C236.855 153.578 233.969 155.013 231.194 156.643C225.592 159.859 220.184 163.732 215.92 168.624C214.436 170.327 213.26 172.216 211.931 174.03C210.886 175.456 209.795 176.849 208.718 178.252C205.058 183.016 201.458 187.825 198.021 192.754C193.453 199.244 189.229 205.97 185.366 212.903C181.243 220.372 177.777 228.184 175.007 236.253C169.291 252.895 165.366 270.152 162.918 287.57C161.72 296.093 160.761 304.712 160.524 313.323C160.521 313.442 160.518 313.561 160.516 313.68C160.521 314.081 160.844 314.404 161.245 314.409L174.202 314.395L194.866 314.371L199.624 314.366C199.951 314.364 200.238 314.146 200.327 313.831L201.451 307.215L204.113 291.54L207.285 272.87L209.943 257.221L210.744 252.505L210.962 251.225C210.983 251.098 211.122 250.594 210.961 250.979C211.193 250.426 211.543 249.898 211.827 249.371L214.089 245.168L221.48 231.44L230.445 214.788L238.392 200.026L242.711 192.004L242.908 191.638C243.353 190.812 242.094 190.075 241.649 190.902L241.649 190.902Z" fill="#1C1F34"/>
<path d="M262.983 157.191L279.904 231.342L318.847 290.223L291.663 317.028C291.663 317.028 264.371 288.301 245.918 247.776C233.71 220.966 231.417 185.316 230.327 180.373V162.039" fill="white"/>
<path d="M262.28 157.385L263.866 164.335L267.676 181.029L272.402 201.739L276.624 220.24L279.04 230.83C279.38 232.32 280.483 233.537 281.316 234.796L289.844 247.69L301.338 265.07L312.05 281.265L317.938 290.168L318.217 290.591L318.331 289.707L309.153 298.757L294.517 313.19L291.147 316.513H292.178C288.027 312.14 284.211 307.413 280.496 302.672C271.411 291.097 263.225 278.843 256.01 266.018C251.703 258.344 247.595 250.45 244.364 242.256C241.451 234.705 239.103 226.949 237.34 219.051C234.622 207.271 233.047 195.337 231.51 183.363C231.418 182.652 231.326 181.942 231.217 181.234C231.183 181.009 231.147 180.784 231.106 180.561C231.088 180.462 231.064 180.364 231.049 180.266C231.024 180.103 231.061 180.495 231.056 180.308C231.02 178.917 231.056 177.52 231.056 176.129V162.039C231.056 161.101 229.598 161.099 229.598 162.039V172.867C229.598 175.771 229.37 178.748 229.811 181.622C230.429 185.638 230.837 189.839 231.39 193.926C232.298 200.648 233.383 207.347 234.748 213.992C236.328 221.922 238.424 229.741 241.022 237.399C243.839 245.545 247.564 253.333 251.587 260.946C258.868 274.65 267.256 287.736 276.667 300.075C281.17 306.005 285.846 311.861 290.929 317.31C291.001 317.388 291.074 317.466 291.147 317.544C291.434 317.823 291.891 317.823 292.178 317.544L301.356 308.494L315.993 294.061L319.363 290.738C319.594 290.503 319.64 290.142 319.477 289.855L315.319 283.568L305.447 268.642L293.803 251.037L284.192 236.504L281.39 232.268C281.159 231.919 280.938 231.56 280.696 231.219C280.645 231.147 280.598 231.073 280.551 230.999C280.48 230.888 280.632 231.258 280.598 231.105C280.007 228.508 279.415 225.912 278.82 223.316L274.892 206.104L270.19 185.496L266.03 167.269L263.791 157.458L263.686 156.997C263.477 156.083 262.071 156.47 262.28 157.385Z" fill="#1C1F34"/>
<path d="M271.299 173.222C265.669 167.154 213.405 173.049 213.405 173.049L223.012 116.256C223.385 112.571 226.273 109.78 229.712 109.78H252.661C256.398 109.78 258.35 111.325 259.954 116.809C259.954 116.809 269.61 155.017 271.299 173.222Z" fill="#3D56A2"/>
<path d="M223.538 109.78H252.661C256.398 109.78 258.35 111.325 259.954 116.809C259.954 116.809 269.61 155.017 271.299 173.222C265.669 167.154 213.311 173.143 213.311 173.143L220.227 133.456" fill="#3D56A2"/>
<path d="M223.538 110.509H248.195C249.733 110.509 251.273 110.492 252.811 110.51C254.566 110.531 256.085 110.993 257.191 112.402C258.232 113.728 258.845 115.469 259.27 117.079C259.666 118.578 260.018 120.09 260.384 121.596C261.18 124.87 261.957 128.15 262.715 131.433C263.71 135.74 264.67 140.054 265.594 144.377C266.573 148.975 267.505 153.583 268.348 158.208C269.1 162.337 269.799 166.487 270.295 170.65C270.397 171.506 270.489 172.364 270.57 173.222L271.814 172.707C271.006 171.845 269.782 171.409 268.676 171.091C266.996 170.645 265.28 170.346 263.548 170.199C258.845 169.706 254.085 169.721 249.363 169.822C244.013 169.937 238.667 170.23 233.33 170.606C228.836 170.922 224.346 171.299 219.862 171.736C218.397 171.877 216.933 172.025 215.469 172.179C214.79 172.251 214.069 172.266 213.399 172.404C213.371 172.41 213.34 172.41 213.311 172.414L214.014 173.337L214.702 169.389L216.354 159.91L218.352 148.442L220.08 138.53C220.36 136.926 220.657 135.324 220.919 133.717C220.922 133.695 220.927 133.672 220.93 133.65C221.026 133.264 220.802 132.87 220.421 132.754C220.033 132.65 219.634 132.877 219.524 133.263L218.837 137.21L217.184 146.689L215.186 158.157L213.458 168.069C213.179 169.673 212.881 171.275 212.619 172.882C212.616 172.905 212.612 172.927 212.608 172.949C212.536 173.362 212.797 173.931 213.311 173.872C215.055 173.672 216.801 173.495 218.548 173.322C222.772 172.904 227 172.535 231.233 172.216C236.526 171.82 241.826 171.502 247.13 171.339C251.999 171.135 256.875 171.187 261.739 171.496C263.535 171.598 265.322 171.833 267.084 172.198C267.762 172.338 268.429 172.523 269.082 172.752C269.229 172.805 269.374 172.862 269.519 172.921C269.351 172.853 269.483 172.905 269.567 172.944C269.637 172.977 269.708 173.009 269.777 173.044C269.999 173.155 270.214 173.28 270.421 173.417C270.466 173.447 270.508 173.481 270.552 173.512C270.341 173.363 270.503 173.471 270.55 173.515C270.629 173.588 270.709 173.658 270.783 173.737C271.192 174.172 272.087 173.86 272.028 173.222C271.651 169.183 271.03 165.167 270.346 161.17C269.552 156.528 268.649 151.905 267.694 147.293C266.763 142.797 265.785 138.31 264.761 133.834C263.939 130.221 263.094 126.614 262.226 123.012C261.751 121.037 261.267 119.063 260.776 117.092C260.077 114.296 258.853 110.89 256.002 109.654C254.201 108.874 252.135 109.051 250.212 109.051H223.538C222.6 109.051 222.599 110.509 223.538 110.509V110.509Z" fill="#1C1F34"/>
<path d="M194.978 343.33H149.731C149.731 343.33 150.247 337.828 151.267 335.179L159.831 335.25L161.791 334.478C164.822 333.284 168.186 333.244 171.245 334.365L173.465 335.179H182.549C184.395 335.179 186.071 334.103 186.84 332.426C187.609 330.748 189.285 329.672 191.131 329.672H197.2L194.978 343.33Z" fill="white"/>
<path d="M194.978 342.601H151.573C150.994 342.601 150.384 342.546 149.807 342.601C149.782 342.604 149.756 342.601 149.731 342.601L150.46 343.33C150.553 342.346 150.68 341.364 150.828 340.387C151.032 338.68 151.414 336.999 151.97 335.373L151.267 335.908L159.261 335.975C159.575 336.007 159.892 335.977 160.194 335.887C160.816 335.641 161.437 335.392 162.061 335.152C164.961 334.034 168.169 334.009 171.087 335.081C171.756 335.324 172.423 335.571 173.091 335.816C173.38 335.901 173.682 335.932 173.981 335.908H178.544C179.845 335.908 181.146 335.913 182.447 335.908C183.406 335.915 184.351 335.679 185.194 335.222C185.77 334.906 186.282 334.485 186.703 333.981C187.073 333.478 187.4 332.945 187.681 332.387C188.304 331.32 189.384 330.598 190.609 330.43C191.115 330.388 191.623 330.379 192.13 330.401H197.2L196.497 329.478L194.552 341.433L194.275 343.136C194.181 343.523 194.404 343.916 194.784 344.033C195.172 344.137 195.571 343.91 195.681 343.524L197.626 331.569L197.903 329.866C197.959 329.647 197.911 329.415 197.774 329.235C197.637 329.055 197.426 328.948 197.2 328.943H193.319C191.708 328.943 190.081 328.803 188.598 329.569C188.015 329.871 187.494 330.279 187.06 330.772C186.67 331.259 186.336 331.789 186.064 332.35C185.472 333.436 184.416 334.191 183.198 334.4C182.765 334.453 182.329 334.47 181.893 334.45H174.818C174.386 334.422 173.953 334.422 173.521 334.45C173.373 334.469 173.622 334.373 173.649 334.472C173.64 334.44 173.405 334.383 173.373 334.371L172.22 333.948C171.234 333.56 170.216 333.261 169.177 333.053C167.571 332.768 165.928 332.759 164.319 333.025C163.199 333.229 162.103 333.553 161.052 333.99L159.914 334.438C159.903 334.443 159.642 334.547 159.641 334.546C159.626 334.512 159.942 334.542 159.762 334.521C159.288 334.491 158.813 334.487 158.338 334.509L155.863 334.488L151.53 334.452L151.267 334.45C150.941 334.457 150.658 334.673 150.564 334.985C149.998 336.647 149.609 338.364 149.405 340.108C149.246 341.178 149.104 342.253 149.002 343.33C149.006 343.731 149.33 344.056 149.731 344.059H189.412C191.238 344.059 193.077 344.126 194.902 344.059C194.927 344.058 194.953 344.059 194.978 344.059C195.916 344.059 195.918 342.601 194.978 342.601Z" fill="#1C1F34"/>
<path d="M169.859 324.694C169.923 324.727 169.983 324.766 170.043 324.805C170.08 324.83 170.233 324.908 170.242 324.947C170.239 324.934 170.071 324.812 170.165 324.889C170.184 324.904 170.203 324.919 170.221 324.934C170.268 324.972 170.314 325.012 170.358 325.052C170.449 325.133 170.535 325.218 170.619 325.307C170.666 325.357 170.712 325.409 170.757 325.461C170.778 325.487 170.799 325.513 170.82 325.538C170.89 325.621 170.712 325.392 170.8 325.512C170.893 325.638 170.979 325.769 171.057 325.905C171.099 325.977 171.137 326.05 171.174 326.125C171.191 326.161 171.207 326.197 171.223 326.233C171.273 326.337 171.164 326.076 171.22 326.226C171.292 326.419 171.35 326.618 171.392 326.82C171.402 326.871 171.41 326.924 171.42 326.975C171.435 327.056 171.41 326.891 171.41 326.896C171.411 326.927 171.417 326.958 171.42 326.989C171.433 327.118 171.439 327.248 171.439 327.378C171.437 327.639 171.576 327.882 171.802 328.013C172.029 328.145 172.308 328.145 172.534 328.013C172.761 327.882 172.899 327.639 172.897 327.378C172.875 325.857 172.11 324.444 170.848 323.594C170.767 323.536 170.683 323.483 170.595 323.435C170.248 323.235 169.804 323.353 169.602 323.699C169.4 324.045 169.515 324.489 169.859 324.694Z" fill="#1C1F34"/>
<path d="M166.877 326.3C166.94 326.333 167 326.372 167.06 326.412C167.097 326.436 167.25 326.514 167.259 326.554C167.256 326.541 167.088 326.418 167.183 326.495C167.201 326.51 167.22 326.525 167.239 326.54C167.285 326.579 167.331 326.618 167.376 326.658C167.466 326.739 167.553 326.824 167.636 326.913C167.683 326.963 167.729 327.015 167.774 327.068C167.795 327.093 167.816 327.119 167.837 327.144C167.907 327.227 167.73 326.998 167.817 327.118C167.91 327.244 167.996 327.375 168.075 327.511C168.116 327.583 168.155 327.657 168.191 327.732C168.208 327.767 168.224 327.803 168.241 327.839C168.29 327.944 168.182 327.683 168.237 327.832C168.309 328.025 168.367 328.224 168.409 328.426C168.42 328.478 168.427 328.53 168.437 328.582C168.452 328.662 168.427 328.498 168.427 328.502C168.428 328.533 168.434 328.564 168.437 328.595C168.45 328.724 168.456 328.854 168.456 328.984C168.456 329.387 168.783 329.713 169.185 329.713C169.588 329.713 169.914 329.387 169.914 328.984C169.892 327.463 169.127 326.05 167.865 325.2C167.784 325.142 167.7 325.089 167.612 325.041C167.265 324.843 166.823 324.961 166.621 325.306C166.419 325.651 166.533 326.095 166.877 326.3Z" fill="#1C1F34"/>
<path d="M163.435 326.988C163.498 327.021 163.559 327.06 163.618 327.1C163.655 327.124 163.809 327.202 163.817 327.242C163.814 327.229 163.647 327.106 163.741 327.183C163.76 327.198 163.778 327.213 163.797 327.228C163.843 327.267 163.889 327.306 163.934 327.346C164.024 327.427 164.111 327.512 164.194 327.601C164.241 327.651 164.287 327.703 164.332 327.756C164.354 327.781 164.374 327.807 164.395 327.832C164.465 327.915 164.288 327.686 164.376 327.806C164.469 327.932 164.555 328.063 164.633 328.199C164.674 328.271 164.713 328.345 164.749 328.42C164.766 328.455 164.782 328.491 164.799 328.527C164.848 328.632 164.74 328.371 164.795 328.52C164.868 328.713 164.926 328.912 164.968 329.114C164.978 329.166 164.985 329.218 164.995 329.27C165.011 329.35 164.985 329.186 164.985 329.19C164.987 329.221 164.992 329.252 164.996 329.283C165.009 329.413 165.014 329.542 165.015 329.672C165.018 330.073 165.343 330.396 165.744 330.396C166.144 330.396 166.47 330.073 166.473 329.672C166.451 328.152 165.685 326.738 164.424 325.889C164.343 325.83 164.258 325.777 164.171 325.729C163.823 325.531 163.381 325.649 163.179 325.994C162.978 326.34 163.092 326.783 163.435 326.988Z" fill="#1C1F34"/>
<path d="M87.5381 278.096C84.9155 277.868 82.509 280.11 81.2483 282.155C80.3644 283.658 79.713 285.286 79.3167 286.985L80.2633 287.113C79.9653 281.179 79.1158 275.191 77.2053 269.548C76.0391 266.104 74.4697 262.417 71.8281 259.831C70.4162 258.448 68.2094 257.216 66.387 258.62C65.5257 259.372 64.9155 260.371 64.6388 261.483C64.1799 263.143 63.9685 264.862 64.0116 266.585C64.0062 272.575 65.4754 278.589 67.1527 284.298C67.442 285.283 67.7434 286.264 68.057 287.242L68.8624 286.771C66.0856 284.127 62.9509 281.889 59.5509 280.123C57.1254 278.894 54.4426 277.834 51.699 277.689C50.1051 277.606 48.093 277.916 47.3179 279.523C46.3921 281.442 47.624 283.8 48.6394 285.411C49.8173 287.209 51.1736 288.883 52.6877 290.408C54.8869 292.658 57.2198 294.773 59.6735 296.741L60.0143 295.916C57.1045 295.846 54.1992 296.182 51.3814 296.913C49.236 297.436 47.2179 298.388 45.4481 299.712C44.2197 300.689 43.1626 302.023 42.9964 303.635C42.8281 305.266 43.7092 306.751 44.8523 307.838C47.0922 309.967 50.224 311.084 53.1304 311.925V310.993C50.09 311.47 46.7278 312.634 45.1488 315.501C44.2865 317.178 44.0426 319.106 44.46 320.946C44.5334 321.349 44.6428 321.745 44.7869 322.129L45.5923 321.658C44.0276 319.964 41.8603 318.956 39.5601 318.853C36.394 318.75 32.3946 320.776 31.5807 324.072C31.3958 324.748 31.3768 325.459 31.5254 326.144L32.2333 325.598C29.5744 324.41 25.3839 323.585 23.2681 326.167C22.2711 327.384 22.0103 329.002 22 330.534C22.0093 330.794 22.2223 331 22.4819 331C22.7415 331 22.9545 330.794 22.9638 330.534C22.9781 328.369 23.6666 326.163 25.9821 325.609C27.5409 325.235 29.2377 325.58 30.735 326.063C30.9999 326.148 31.2627 326.241 31.5221 326.342C31.6014 326.373 31.6802 326.405 31.7589 326.438C31.8041 326.456 31.6405 326.386 31.7468 326.433C31.9165 326.525 32.1244 326.509 32.2774 326.391C32.4304 326.273 32.4999 326.075 32.4547 325.887C32.4222 325.795 32.4068 325.698 32.4095 325.601C32.384 325.287 32.3947 324.97 32.4414 324.658C32.6519 323.55 33.2438 322.552 34.1138 321.837C36.6237 319.578 40.3091 319.224 43.2004 320.966C43.8345 321.338 44.4107 321.802 44.9107 322.342C45.2181 322.688 45.8952 322.323 45.7162 321.871C44.5999 319.054 45.3641 315.666 47.8916 313.885C49.5056 312.747 51.462 312.227 53.3865 311.925C53.8796 311.847 53.8094 311.115 53.3865 310.992C50.8677 310.263 48.2368 309.337 46.1515 307.69C45.024 306.799 43.9343 305.548 43.9379 304.027C43.9412 302.665 44.8253 301.514 45.8082 300.661C47.3593 299.417 49.153 298.513 51.0737 298.007C53.98 297.181 56.9945 296.802 60.0141 296.883C60.4028 296.888 60.6882 296.33 60.3549 296.058C56.7519 293.117 53.1124 289.962 50.34 286.191C49.2411 284.697 47.5731 282.34 48.0265 280.401C48.1465 279.836 48.5138 279.356 49.0265 279.094C49.7197 278.764 50.483 278.609 51.2496 278.643C53.6894 278.651 56.1361 279.559 58.3132 280.59C61.9354 282.355 65.2639 284.67 68.1808 287.455C68.3373 287.604 68.5727 287.631 68.759 287.522C68.9452 287.414 69.0378 287.195 68.9863 286.985C67.0888 281.039 65.4105 274.854 65.0372 268.593C64.8871 266.745 64.9594 264.885 65.2525 263.054C65.4065 261.907 65.83 260.813 66.4883 259.862C66.9102 259.264 67.6067 258.923 68.3362 258.957C68.713 258.993 69.0809 259.093 69.4238 259.254C69.8802 259.479 70.3059 259.761 70.6902 260.095C73.1856 262.233 74.6987 265.529 75.8273 268.545C77.747 273.676 78.705 279.156 79.1384 284.603C79.2049 285.439 79.2585 286.276 79.2993 287.113C79.3067 287.351 79.4839 287.548 79.7184 287.58C79.9529 287.611 80.176 287.469 80.2459 287.242C80.9535 284.455 82.202 281.394 84.7846 279.853C85.6026 279.319 86.562 279.043 87.538 279.063C88.1558 279.117 88.1522 278.15 87.538 278.096H87.5381Z" fill="#1C1F34"/>
<path d="M82.9761 318.068C82.6392 317.014 82.2228 315.986 81.7301 314.993C80.9382 313.367 79.9102 311.633 78.3495 310.62C76.8613 309.585 74.8153 309.874 73.6804 311.28C72.5568 312.787 72.926 314.974 73.3756 316.652C73.7515 318.056 74.2781 319.416 74.9464 320.709L75.5005 319.996C73.2982 319.108 70.3597 318.731 68.2102 319.916C67.2904 320.423 66.7344 321.287 67.1284 322.323C67.5727 323.249 68.2583 324.041 69.1147 324.619C69.7245 325.1 70.3702 325.535 71.0464 325.92V325.083C69.0963 326.335 67.877 328.699 69.342 330.784C69.6998 331.293 70.5508 330.809 70.1892 330.294C69.4614 329.354 69.4896 328.041 70.2572 327.132C70.6103 326.657 71.045 326.247 71.5415 325.92C71.6894 325.831 71.7796 325.673 71.7796 325.502C71.7796 325.33 71.6894 325.172 71.5415 325.083C70.3181 324.463 69.2374 323.6 68.3672 322.548C67.8911 321.899 67.8094 321.297 68.5577 320.839C69.7798 320.09 71.3425 320.062 72.7238 320.271C73.5856 320.393 74.4298 320.615 75.2394 320.932C75.6684 321.105 75.9682 320.556 75.7935 320.219C75.3302 319.311 74.9392 318.368 74.6243 317.399C74.1235 315.893 73.5715 313.984 74.1591 312.428C74.7219 310.937 76.4933 310.617 77.769 311.404C79.1385 312.248 80.0332 313.801 80.7369 315.19C81.2549 316.198 81.6873 317.247 82.0297 318.326C82.2145 318.921 83.162 318.667 82.9759 318.068L82.9761 318.068Z" fill="#1C1F34"/>
<path d="M224.172 172.002L224.158 178.04C224.153 180.548 223.906 183.222 224.802 185.612C225.367 187.12 226.172 188.559 226.872 190.004L230.416 197.325L232.728 202.099C233.137 202.943 234.394 202.205 233.987 201.363L228.581 190.197C227.875 188.74 227.158 187.287 226.463 185.824C225.423 183.633 225.609 181.249 225.614 178.899L225.63 172.002C225.632 171.063 224.174 171.062 224.172 172.002Z" fill="#1C1F34"/>
<path d="M244.223 110.053V101.542C245.797 100.833 246.977 99.8927 247.513 98.7281C250.15 92.9902 247.513 72.0398 247.513 72.0398H222.847C222.847 72.0398 219.124 92.6887 222.847 98.7281C224.108 100.774 227.045 102.092 230.478 102.717L230.452 117.343L237.499 116.371" fill="#FC7272"/>
<path d="M244.952 110.053V101.542L244.591 102.172C246.07 101.494 247.539 100.486 248.209 98.946C248.545 98.1382 248.784 97.2935 248.922 96.4296C249.284 94.136 249.448 91.8157 249.414 89.4941C249.388 84.7283 249.115 79.9671 248.595 75.2297C248.487 74.1654 248.375 73.1011 248.242 72.0397C248.232 71.6412 247.911 71.3206 247.513 71.3107H222.847C222.52 71.3131 222.233 71.5311 222.144 71.8459C221.539 75.2068 221.118 78.6132 220.815 82.0133C220.54 84.8331 220.429 87.6663 220.481 90.499C220.544 92.8682 220.705 95.3735 221.527 97.6184C222.018 99.0072 222.924 100.212 224.123 101.068C225.908 102.364 228.141 103.022 230.284 103.42L229.749 102.717L229.726 115.511L229.723 117.343C229.728 117.568 229.835 117.779 230.015 117.916C230.195 118.053 230.427 118.101 230.646 118.046L237.693 117.074C238.079 116.965 238.306 116.565 238.202 116.177C238.086 115.795 237.692 115.572 237.305 115.668L230.258 116.64L231.181 117.343L231.204 104.549L231.207 102.717C231.204 102.39 230.986 102.104 230.672 102.014C228.831 101.672 226.973 101.152 225.371 100.154C224.74 99.7772 224.181 99.2913 223.72 98.7186C223.559 98.5035 223.415 98.2754 223.291 98.0366C223.241 97.9417 223.193 97.8456 223.147 97.7483C223.128 97.7086 223.11 97.6683 223.092 97.6283C223.074 97.5876 223.056 97.5467 223.038 97.5057C223.063 97.5653 223.066 97.571 223.046 97.5229C222.195 95.4296 222.034 93.1719 221.953 90.9434C221.877 88.1977 221.963 85.4499 222.213 82.7144C222.406 80.3753 222.688 77.9398 223.002 75.7299C223.167 74.5622 223.341 73.3942 223.55 72.2333L222.847 72.7685H247.513L246.784 72.0395C247.14 74.8691 247.395 77.7145 247.601 80.5583C247.948 85.3512 248.253 90.2762 247.664 95.0619C247.555 96.0237 247.354 96.9727 247.062 97.8955C247.03 97.9889 246.995 98.0814 246.961 98.1738C246.948 98.2096 246.933 98.2449 246.919 98.2803C246.857 98.4381 246.971 98.1729 246.906 98.3105C246.741 98.6722 246.522 99.0065 246.256 99.3019C245.57 99.9923 244.755 100.54 243.856 100.913C243.63 101.042 243.492 101.282 243.495 101.542V110.053C243.495 110.991 244.953 110.992 244.953 110.053L244.952 110.053Z" fill="#1C1F34"/>
<path d="M230.517 84.647C230.63 84.5746 230.748 84.5102 230.871 84.454C230.903 84.4384 230.936 84.4236 230.969 84.4083C231.102 84.3461 230.953 84.393 230.943 84.4182C230.954 84.389 231.122 84.3486 231.153 84.3374C231.344 84.2692 231.538 84.2127 231.736 84.1683C231.843 84.1443 231.95 84.1253 232.058 84.1069C232.199 84.0829 231.99 84.1097 232.082 84.1044C232.147 84.1008 232.212 84.0917 232.277 84.0874C232.532 84.0721 232.789 84.0766 233.043 84.101C233.117 84.1077 232.981 84.0872 233.109 84.1091C233.185 84.1221 233.26 84.1357 233.336 84.1518C233.48 84.1827 233.622 84.221 233.763 84.2657C234.056 84.3599 234.337 84.4878 234.6 84.647C234.947 84.8453 235.389 84.727 235.591 84.3818C235.793 84.0365 235.679 83.5932 235.336 83.388C234.168 82.703 232.789 82.4716 231.462 82.7381C230.866 82.8472 230.296 83.0677 229.781 83.388C229.441 83.597 229.326 84.0366 229.52 84.3854C229.725 84.7297 230.169 84.846 230.517 84.647H230.517Z" fill="#1C1F34"/>
<path d="M221.949 84.4527C221.799 84.5213 221.824 84.4985 221.96 84.4521C222.132 84.3936 222.304 84.3385 222.481 84.2944C223.001 84.1681 223.536 84.1142 224.071 84.1341C225.02 84.1293 225.863 84.7399 226.154 85.6433C226.419 86.5229 226.057 87.5179 225.65 88.2994C225.362 88.8516 225.01 89.3684 224.602 89.8394C224.335 90.0669 224.144 90.371 224.055 90.7105C224.011 90.9567 224.015 91.2092 224.067 91.454C224.362 92.6544 225.719 92.7325 226.73 92.6153C227.127 92.6036 227.447 92.284 227.459 91.8863C227.456 91.4847 227.131 91.1598 226.73 91.1573C226.463 91.194 226.193 91.2095 225.923 91.2038C225.834 91.2002 225.767 91.1943 225.686 91.1833C225.665 91.1805 225.446 91.1271 225.562 91.1605C225.529 91.1511 225.384 91.0366 225.489 91.1267C225.378 91.0312 225.57 91.1339 225.459 91.0752C225.493 91.1518 225.498 91.1488 225.473 91.0663L225.482 91.1219C225.491 91.0532 225.494 90.9836 225.49 90.9143L225.302 91.236C226.893 89.5272 228.634 86.6224 227.136 84.332C225.871 82.3989 223.161 82.3015 221.213 83.1936C220.868 83.3988 220.751 83.8429 220.951 84.191C221.16 84.5309 221.6 84.6461 221.949 84.4525L221.949 84.4527Z" fill="#1C1F34"/>
<path d="M228.659 94.8758C229.506 94.8278 230.315 94.5118 230.97 93.9733C231.242 93.7437 231.463 93.4603 231.62 93.141C231.714 92.9696 231.74 92.7691 231.693 92.5792C231.615 92.2966 231.376 92.0881 231.085 92.0501C230.794 92.0121 230.509 92.152 230.361 92.4051C230.301 92.5296 230.228 92.6478 230.145 92.7581L230.259 92.6105C230.144 92.7567 230.012 92.8882 229.865 93.002L230.013 92.888C229.819 93.0338 229.609 93.1546 229.385 93.2477L229.559 93.1742C229.258 93.299 228.941 93.3842 228.618 93.4278L228.812 93.4017C228.761 93.4084 228.71 93.4148 228.659 93.4178C228.397 93.416 228.155 93.5545 228.023 93.7809C227.892 94.0072 227.892 94.2865 228.023 94.5128C228.155 94.7391 228.397 94.8777 228.659 94.8758H228.659Z" fill="#1C1F34"/>
<path d="M240.839 89.5544C240.968 89.074 241.125 88.6015 241.308 88.1392C241.332 88.04 241.371 87.9449 241.422 87.8568C241.419 87.8604 241.347 88.0323 241.395 87.9231C241.405 87.8991 241.416 87.8749 241.426 87.851C241.45 87.7964 241.474 87.7421 241.499 87.6879C241.591 87.4872 241.689 87.2893 241.796 87.0962C241.899 86.9076 242.013 86.7249 242.136 86.549C242.152 86.5273 242.265 86.3778 242.179 86.4873C242.093 86.5969 242.208 86.4532 242.225 86.433C242.289 86.357 242.356 86.2843 242.427 86.2152C242.467 86.1766 242.511 86.142 242.551 86.1038C242.623 86.0353 242.385 86.2114 242.543 86.1115C242.583 86.0868 242.62 86.0608 242.661 86.0381C242.678 86.0283 242.696 86.0196 242.714 86.0097C242.79 85.9668 242.813 86.0067 242.647 86.0346C242.688 86.0278 242.73 86.0046 242.771 85.9939C242.789 85.9891 242.808 85.9864 242.826 85.9807C242.936 85.9459 242.755 85.9951 242.731 85.991C242.779 85.9935 242.827 85.9919 242.875 85.9863C243.04 85.9825 242.688 85.9486 242.857 85.9834C243.245 86.0905 243.646 85.8625 243.753 85.4743C243.86 85.086 243.632 84.6845 243.244 84.5775C242.12 84.3449 241.283 85.1582 240.728 86.0369C240.251 86.8337 239.875 87.6869 239.609 88.5766C239.546 88.7719 239.485 88.9683 239.433 89.1669C239.329 89.5541 239.557 89.953 239.943 90.0596C240.33 90.1662 240.73 89.9405 240.839 89.5545L240.839 89.5544Z" fill="#1C1F34"/>
<circle cx="223.627" cy="86.9398" r="0.866411" fill="#1C1F34"/>
<path d="M224.129 86.9398C224.129 86.964 224.127 86.9879 224.126 87.0119C224.124 87.0797 224.125 86.9886 224.131 86.9856C224.118 87.0225 224.109 87.0605 224.104 87.099C224.094 87.1198 224.086 87.1415 224.081 87.1639C224.078 87.157 224.121 87.0839 224.09 87.1394C224.067 87.1793 224.045 87.2178 224.02 87.2562C223.979 87.3188 224.065 87.2151 224.028 87.2447C224.015 87.2578 224.002 87.2717 223.99 87.2864C223.98 87.2971 223.969 87.3076 223.958 87.3178L223.941 87.3329C223.911 87.3577 223.919 87.3529 223.962 87.3185C223.941 87.3188 223.886 87.37 223.867 87.3803C223.854 87.3877 223.84 87.394 223.827 87.4015C223.767 87.4363 223.906 87.379 223.819 87.4048C223.782 87.4159 223.746 87.4281 223.708 87.436C223.639 87.4505 223.707 87.4209 223.723 87.436C223.703 87.4352 223.683 87.4366 223.664 87.4404C223.623 87.4421 223.583 87.4391 223.543 87.4372C223.49 87.4347 223.636 87.4561 223.558 87.4384C223.535 87.4332 223.513 87.4286 223.49 87.4223C223.468 87.416 223.446 87.408 223.424 87.401C223.374 87.385 223.444 87.3934 223.448 87.4114C223.445 87.4005 223.364 87.367 223.348 87.357C223.332 87.3471 223.318 87.3344 223.301 87.3251C223.259 87.301 223.367 87.3858 223.313 87.3328C223.284 87.2987 223.252 87.2663 223.219 87.236C223.234 87.2345 223.263 87.3 223.235 87.2561C223.222 87.2371 223.209 87.2187 223.198 87.1992C223.19 87.1862 223.182 87.173 223.175 87.1595L223.165 87.1393C223.148 87.1039 223.151 87.112 223.174 87.1637C223.18 87.147 223.143 87.0736 223.138 87.054C223.135 87.0388 223.131 87.0236 223.128 87.0084C223.112 86.9362 223.134 87.0944 223.127 86.9996C223.125 86.9634 223.125 86.9271 223.126 86.8909C223.129 86.8525 223.153 86.8104 223.124 86.8933C223.128 86.8781 223.131 86.8628 223.133 86.8473C223.141 86.8093 223.154 86.7732 223.165 86.7362C223.19 86.66 223.125 86.8084 223.165 86.7393C223.176 86.7196 223.186 86.699 223.198 86.6794C223.207 86.6632 223.218 86.6479 223.228 86.6318C223.265 86.5735 223.239 86.6446 223.219 86.6427C223.246 86.617 223.272 86.5897 223.297 86.5609C223.314 86.5449 223.356 86.5302 223.311 86.5457C223.262 86.5627 223.314 86.5442 223.329 86.534C223.37 86.515 223.41 86.4927 223.448 86.4673C223.447 86.4725 223.361 86.498 223.424 86.4777C223.446 86.4705 223.468 86.4626 223.49 86.4563C223.505 86.4522 223.52 86.4484 223.535 86.445C223.547 86.4423 223.618 86.4376 223.556 86.4394C223.491 86.4412 223.57 86.4394 223.579 86.4387C223.599 86.4376 223.619 86.4373 223.639 86.4376C223.659 86.4378 223.679 86.4397 223.699 86.4404C223.777 86.4429 223.627 86.4229 223.696 86.4404C223.742 86.4517 223.786 86.4636 223.83 86.4778C223.902 86.5008 223.778 86.4443 223.817 86.4723C223.838 86.4872 223.865 86.4966 223.887 86.5099C223.9 86.5176 223.913 86.5257 223.925 86.5341C223.938 86.5426 223.95 86.5512 223.962 86.5603C223.918 86.526 223.911 86.5212 223.941 86.5459L224.021 86.6255C224.076 86.6812 223.977 86.5564 224.02 86.6226C224.032 86.6416 224.045 86.6599 224.057 86.6795C224.068 86.699 224.078 86.7196 224.089 86.7393C224.124 86.7998 224.066 86.6646 224.089 86.7363C224.103 86.781 224.115 86.8247 224.126 86.8702C224.139 86.9214 224.108 86.86 224.124 86.8433C224.122 86.8754 224.124 86.9076 224.129 86.9393C224.128 87.0704 224.197 87.1921 224.31 87.258C224.424 87.3239 224.564 87.3239 224.677 87.258C224.79 87.1921 224.859 87.0704 224.858 86.9393C224.851 86.4189 224.524 85.9569 224.035 85.7788C223.558 85.6109 223.026 85.7526 222.696 86.1359C222.34 86.549 222.299 87.1474 222.594 87.6057C222.89 88.0641 223.452 88.2731 223.975 88.119C224.499 87.9649 224.858 87.4847 224.858 86.9392C224.856 86.7393 224.693 86.5783 224.494 86.5783C224.294 86.5783 224.131 86.7393 224.129 86.9392L224.129 86.9398Z" fill="#1C1F34"/>
<circle cx="231.788" cy="86.9398" r="0.866411" fill="#1C1F34"/>
<path d="M232.29 86.9398C232.289 86.964 232.288 86.9879 232.287 87.0119C232.284 87.0797 232.285 86.9886 232.291 86.9856C232.279 87.0225 232.27 87.0605 232.264 87.099C232.254 87.1198 232.247 87.1415 232.241 87.1639C232.238 87.157 232.281 87.0839 232.25 87.1394C232.227 87.1793 232.205 87.2178 232.18 87.2562C232.139 87.3188 232.226 87.2151 232.189 87.2447C232.175 87.2578 232.162 87.2717 232.151 87.2864C232.14 87.2971 232.129 87.3076 232.118 87.3178L232.101 87.3329C232.072 87.3577 232.079 87.3529 232.123 87.3185C232.102 87.3188 232.046 87.37 232.028 87.3803C232.015 87.3877 232.001 87.394 231.988 87.4015C231.927 87.4363 232.066 87.379 231.98 87.4048C231.943 87.416 231.906 87.4281 231.868 87.436C231.799 87.4505 231.867 87.4209 231.883 87.436C231.863 87.4352 231.843 87.4366 231.824 87.4404C231.783 87.4421 231.744 87.4391 231.703 87.4372C231.651 87.4347 231.796 87.4561 231.718 87.4384C231.696 87.4332 231.673 87.4286 231.65 87.4223C231.628 87.416 231.606 87.4081 231.584 87.401C231.535 87.385 231.604 87.3934 231.608 87.4114C231.605 87.4006 231.524 87.367 231.508 87.357C231.493 87.3471 231.478 87.3344 231.461 87.3251C231.419 87.301 231.527 87.3858 231.474 87.3328C231.444 87.2986 231.413 87.2663 231.379 87.236C231.395 87.2345 231.424 87.3 231.395 87.2561C231.382 87.2371 231.369 87.2187 231.358 87.1992C231.35 87.1862 231.343 87.173 231.336 87.1595L231.325 87.1393C231.309 87.1039 231.312 87.112 231.334 87.1637C231.341 87.147 231.303 87.0736 231.298 87.054C231.295 87.0388 231.292 87.0236 231.288 87.0084C231.272 86.9362 231.294 87.0944 231.288 86.9996C231.285 86.9634 231.285 86.9271 231.287 86.8909C231.289 86.8525 231.314 86.8104 231.284 86.8933C231.288 86.8781 231.291 86.8628 231.293 86.8473C231.301 86.8093 231.314 86.7732 231.326 86.7363C231.35 86.66 231.286 86.8084 231.325 86.7393C231.336 86.7196 231.346 86.699 231.358 86.6794C231.367 86.6632 231.378 86.6479 231.388 86.6318C231.425 86.5735 231.4 86.6446 231.379 86.6427C231.407 86.617 231.433 86.5897 231.457 86.5609C231.474 86.5449 231.517 86.5302 231.472 86.5457C231.422 86.5627 231.474 86.5442 231.489 86.534C231.531 86.515 231.57 86.4927 231.608 86.4673C231.607 86.4725 231.521 86.498 231.584 86.4777C231.606 86.4705 231.628 86.4626 231.65 86.4563C231.665 86.4522 231.68 86.4484 231.695 86.445C231.707 86.4423 231.779 86.4376 231.716 86.4394C231.651 86.4412 231.73 86.4394 231.739 86.4387C231.759 86.4376 231.779 86.4373 231.799 86.4376C231.82 86.4378 231.84 86.4397 231.86 86.4404C231.938 86.4429 231.787 86.4229 231.856 86.4404C231.902 86.4517 231.946 86.4636 231.99 86.4778C232.063 86.5008 231.938 86.4443 231.977 86.4723C231.998 86.4872 232.025 86.4966 232.047 86.5099C232.06 86.5176 232.073 86.5257 232.085 86.5341C232.098 86.5426 232.11 86.5512 232.122 86.5603C232.079 86.526 232.071 86.5212 232.101 86.5459C232.128 86.5723 232.154 86.5989 232.181 86.6255C232.236 86.6813 232.137 86.5564 232.18 86.6226C232.192 86.6417 232.205 86.6599 232.217 86.6795C232.229 86.699 232.238 86.7196 232.25 86.7393C232.284 86.7998 232.226 86.6646 232.249 86.7363C232.263 86.781 232.275 86.8247 232.286 86.8702C232.299 86.9214 232.268 86.86 232.284 86.8433C232.282 86.8754 232.284 86.9076 232.289 86.9393C232.289 87.1406 232.452 87.3038 232.654 87.3038C232.855 87.3038 233.018 87.1406 233.018 86.9393C233.012 86.419 232.684 85.957 232.195 85.7788C231.718 85.6109 231.187 85.7526 230.857 86.1359C230.5 86.549 230.459 87.1474 230.755 87.6057C231.05 88.0641 231.612 88.2731 232.136 88.119C232.659 87.9649 233.018 87.4847 233.018 86.9392C233.018 86.7379 232.855 86.5748 232.654 86.5748C232.452 86.5748 232.289 86.7379 232.289 86.9392L232.29 86.9398Z" fill="#1C1F34"/>
<path d="M150.377 340.12H189.995C191.823 340.12 193.665 340.187 195.491 340.12C195.516 340.119 195.542 340.12 195.568 340.12C196.506 340.12 196.507 338.662 195.568 338.662H155.949C154.121 338.662 152.28 338.596 150.453 338.662C150.428 338.663 150.402 338.662 150.377 338.662C149.438 338.662 149.437 340.12 150.377 340.12Z" fill="#1C1F34"/>
<path d="M225.488 146.006L188.562 145.147C189.233 142.557 193.699 132.447 194.063 129.029C194.607 123.915 194.581 119.291 194.099 116.184L230.391 117.343L233.881 111.43C234.919 109.673 236.807 108.595 238.848 108.595H244.06V105.957C246.836 105.957 249.319 107.682 250.288 110.284L250.518 111.313C250.661 111.952 250.507 112.621 250.097 113.132C249.688 113.643 249.069 113.941 248.414 113.941H243.088" fill="#3D56A2"/>
<path d="M225.488 145.277L221.819 145.192L213.007 144.987L202.342 144.739L193.118 144.524L190.075 144.453C189.593 144.417 189.11 144.405 188.626 144.419C188.605 144.42 188.583 144.419 188.562 144.418L189.264 145.341C189.641 144.061 190.087 142.802 190.6 141.57C191.3 139.746 192.014 137.927 192.693 136.095C193.321 134.402 193.943 132.697 194.41 130.951C194.979 128.828 195.048 126.574 195.139 124.389C195.297 121.585 195.185 118.773 194.802 115.99L194.099 116.913L197.702 117.028L206.358 117.305L216.834 117.639L225.9 117.928C227.37 117.975 228.858 118.097 230.329 118.07C230.349 118.069 230.37 118.071 230.39 118.072C230.65 118.072 230.889 117.934 231.02 117.711L234.23 112.272C234.915 111.112 235.764 110.118 237.077 109.642C238.215 109.23 239.424 109.324 240.613 109.324H244.06C244.46 109.318 244.783 108.995 244.789 108.595V105.957L244.06 106.686C245.563 106.687 247.01 107.259 248.108 108.287C248.659 108.809 249.108 109.429 249.432 110.116C249.604 110.539 249.728 110.98 249.798 111.431C250.019 112.456 249.251 113.207 248.262 113.212C247.365 113.216 246.468 113.212 245.572 113.212H243.088C242.15 113.212 242.148 114.67 243.088 114.67C244.852 114.67 246.619 114.705 248.383 114.67C249.223 114.667 250.021 114.303 250.572 113.669C251.124 113.036 251.375 112.196 251.262 111.364C251.064 109.962 250.446 108.654 249.489 107.612C248.089 106.097 246.122 105.233 244.06 105.228C243.66 105.234 243.337 105.557 243.331 105.957V108.595L244.06 107.866H240.962C239.763 107.866 238.499 107.769 237.323 108.047C235.562 108.491 234.059 109.635 233.162 111.214C232.571 112.213 231.981 113.212 231.393 114.211L229.761 116.975L230.391 116.614L226.788 116.499L218.133 116.222L207.656 115.888L198.59 115.599C197.121 115.552 195.632 115.43 194.161 115.457C194.141 115.458 194.12 115.456 194.1 115.455C193.874 115.46 193.662 115.567 193.525 115.747C193.388 115.927 193.341 116.159 193.397 116.378C193.714 118.737 193.82 121.119 193.713 123.497C193.672 124.96 193.58 126.421 193.448 127.879C193.415 128.233 193.382 128.587 193.344 128.94C193.339 128.979 193.305 129.247 193.331 129.068C193.32 129.141 193.308 129.213 193.296 129.286C193.242 129.596 193.173 129.903 193.097 130.208C192.21 133.767 190.731 137.195 189.415 140.611C188.817 142.028 188.297 143.478 187.859 144.953C187.802 145.172 187.849 145.405 187.986 145.585C188.123 145.765 188.336 145.872 188.562 145.876L192.231 145.961L201.043 146.166L211.708 146.414L220.932 146.629C222.423 146.664 223.932 146.771 225.424 146.734C225.445 146.733 225.467 146.735 225.488 146.735C226.427 146.757 226.427 145.299 225.488 145.277L225.488 145.277Z" fill="#1C1F34"/>
<path d="M188.696 145.116C189.942 145.248 191.347 142.491 192.462 138.187L186.469 137.505C186.65 141.972 187.445 144.983 188.696 145.116Z" fill="#1C1F34"/>
<path d="M188.696 145.845C189.868 145.939 190.705 144.687 191.193 143.802C192.071 142.083 192.734 140.262 193.165 138.381C193.221 138.162 193.173 137.93 193.036 137.75C192.899 137.57 192.688 137.463 192.462 137.458L186.469 136.776C186.067 136.778 185.742 137.103 185.74 137.505C185.822 139.435 185.963 141.441 186.528 143.299C186.864 144.403 187.418 145.676 188.696 145.845C189.098 145.843 189.423 145.517 189.425 145.116C189.415 144.717 189.094 144.397 188.696 144.387C188.924 144.417 188.78 144.389 188.729 144.379C188.61 144.356 188.836 144.441 188.767 144.397C188.734 144.381 188.703 144.362 188.672 144.343C188.549 144.242 188.791 144.462 188.672 144.345C188.612 144.285 188.552 144.226 188.496 144.162C188.379 144.028 188.576 144.288 188.475 144.131C188.448 144.088 188.42 144.047 188.394 144.004C188.133 143.557 187.945 143.071 187.836 142.565C187.44 140.907 187.226 139.21 187.198 137.505L186.469 138.234L192.462 138.916L191.759 137.993C191.374 139.661 190.805 141.281 190.063 142.824C189.846 143.285 189.564 143.713 189.224 144.093C189.187 144.132 188.945 144.339 189.091 144.23C189.022 144.281 188.947 144.319 188.876 144.367C188.77 144.439 188.978 144.339 188.901 144.36C188.874 144.367 188.825 144.398 188.795 144.392C188.651 144.364 188.963 144.43 188.821 144.391C188.779 144.386 188.737 144.385 188.695 144.387C188.294 144.39 187.97 144.715 187.966 145.116C187.974 145.515 188.296 145.837 188.696 145.845Z" fill="#1C1F34"/>
<path d="M230.453 102.797C232.089 103.221 233.791 103.336 235.47 103.138L230.453 102.797Z" fill="#3D56A2"/>
<path d="M230.259 103.5C232.018 103.98 233.857 104.096 235.663 103.841C236.05 103.732 236.277 103.332 236.173 102.944C236.057 102.563 235.663 102.339 235.276 102.435C234.709 102.506 234.138 102.53 233.567 102.508C233.298 102.5 233.03 102.485 232.763 102.461C232.632 102.45 232.501 102.436 232.371 102.421C232.309 102.414 232.247 102.407 232.185 102.399C232.051 102.382 232.352 102.425 232.13 102.391C231.63 102.324 231.134 102.225 230.646 102.094C230.258 101.987 229.857 102.215 229.75 102.604C229.643 102.992 229.871 103.393 230.259 103.5L230.259 103.5Z" fill="#1C1F34"/>
<path d="M144.306 82.7042C144.909 73.9117 145.274 69.1237 145.274 63.9818C145.274 58.8399 149.014 58.0808 150.254 63.1799C151.439 71.4042 150.263 85.8174 150.263 85.8174" fill="#FC7272"/>
<path d="M145.035 82.7043C145.335 78.3415 145.669 73.9788 145.867 69.6098C145.942 67.9442 145.991 66.2773 146.001 64.61C145.956 63.6772 146.057 62.7431 146.301 61.8416C146.396 61.5432 146.532 61.2598 146.707 60.9999C146.833 60.8166 146.996 60.6617 147.186 60.5452C147.207 60.5324 147.398 60.455 147.249 60.5094C147.309 60.4876 147.369 60.4718 147.431 60.4559C147.62 60.4069 147.29 60.4508 147.485 60.4487C147.548 60.448 147.61 60.4474 147.674 60.4527C147.516 60.4394 147.806 60.4911 147.86 60.5099C147.976 60.5636 148.086 60.6293 148.189 60.7059C148.691 61.1828 149.065 61.7794 149.274 62.4398C149.545 63.3088 149.706 64.2085 149.752 65.1177C149.837 66.0146 149.897 66.9136 149.942 67.8133C150.131 71.6064 150.068 75.4124 149.915 79.2056C149.827 81.4107 149.713 83.6175 149.534 85.8174C149.458 86.7527 150.916 86.7477 150.992 85.8174C151.509 79.912 151.649 73.9795 151.412 68.0562C151.368 67.1131 151.307 66.1706 151.221 65.2304C151.176 64.2411 151.023 63.2597 150.765 62.3035C150.303 60.8688 149.297 58.9871 147.548 58.9893C145.862 58.9913 144.972 60.7821 144.705 62.2124C144.565 63.1789 144.509 64.1558 144.539 65.132C144.529 66.0082 144.51 66.8841 144.481 67.7599C144.318 72.7474 143.919 77.7268 143.577 82.7042C143.513 83.6407 144.971 83.6368 145.035 82.7042L145.035 82.7043Z" fill="#1C1F34"/>
<path d="M139.379 81.8473C139.982 73.0548 140.346 68.2668 140.346 63.1249C140.346 57.9829 144.086 57.2239 145.326 62.323C146.511 70.5472 145.16 85.8175 145.16 85.8175" fill="#FC7272"/>
<path d="M140.108 81.8474C140.415 77.374 140.76 72.9006 140.954 68.4205C141.028 66.691 141.069 64.9608 141.075 63.2298C141.034 62.3335 141.185 61.4388 141.518 60.6055C141.636 60.3307 141.805 60.0806 142.016 59.8682C142.15 59.7339 142.319 59.6405 142.503 59.599C142.693 59.55 142.363 59.5939 142.558 59.5917C142.621 59.5911 142.683 59.5904 142.746 59.5958C142.599 59.5833 142.929 59.6482 142.996 59.6767C142.857 59.618 143.066 59.7211 143.074 59.7265C143.137 59.7672 143.202 59.8035 143.261 59.8491C143.266 59.8527 143.465 60.0402 143.539 60.1221C144.123 60.8383 144.503 61.6993 144.637 62.6137C144.88 64.3262 145.011 66.0526 145.03 67.7822C145.159 71.5984 145.055 75.4228 144.866 79.2352C144.756 81.4308 144.624 83.6276 144.431 85.8176C144.434 86.219 144.758 86.5436 145.16 86.5466C145.559 86.5385 145.881 86.2169 145.889 85.8176C146.06 83.8841 146.18 81.9452 146.284 80.0071C146.496 76.0373 146.618 72.0545 146.498 68.0796C146.454 66.1873 146.311 64.2987 146.07 62.4214C145.855 60.8429 144.873 58.584 143.13 58.193C141.439 57.8138 140.311 59.364 139.906 60.8016C139.672 61.8026 139.574 62.8305 139.615 63.8577C139.609 64.7488 139.592 65.6399 139.565 66.5308C139.434 70.9222 139.101 75.3067 138.798 79.6888C138.749 80.4084 138.699 81.1279 138.65 81.8475C138.586 82.784 140.044 82.78 140.108 81.8475L140.108 81.8474Z" fill="#1C1F34"/>
<path d="M139.571 86.5465C139.571 86.5465 140.941 75.0463 139.756 66.822C138.516 61.7229 134.776 62.482 134.776 67.6239C134.776 71.8804 134.913 72.6223 134.468 81.3792H134.1C131.753 81.3792 129.851 83.2815 129.851 85.6281V95.4731" fill="#FC7272"/>
<path d="M140.3 86.5465C140.534 84.5725 140.679 82.5848 140.792 80.6007C141.068 76.6233 141.039 72.6307 140.704 68.6578C140.529 66.8476 140.259 64.9023 138.94 63.5259C138 62.5439 136.589 62.3221 135.523 63.239C134.291 64.299 134.05 66.1898 134.047 67.7109C134.045 68.7943 134.06 69.8777 134.065 70.9611C134.081 74.4365 133.915 77.9092 133.739 81.3792L134.468 80.6503C132.641 80.6503 130.995 81.333 129.947 82.8845C129.349 83.851 129.061 84.9772 129.122 86.112V95.4731C129.122 96.4112 130.58 96.4128 130.58 95.4731V86.7818C130.531 86.0961 130.57 85.4069 130.695 84.7309C130.919 83.8816 131.452 83.1466 132.19 82.6702C132.877 82.261 133.67 82.0654 134.468 82.1082C134.868 82.1005 135.189 81.7786 135.197 81.3792C135.356 78.2421 135.514 75.1013 135.524 71.9594C135.528 71.0171 135.517 70.0748 135.511 69.1325C135.502 67.7996 135.375 66.3477 135.948 65.1044C136.047 64.8759 136.179 64.6637 136.341 64.4748C136.374 64.4396 136.602 64.2335 136.517 64.2973C136.574 64.2546 136.872 64.1076 136.751 64.1515C136.804 64.1321 137.09 64.0805 136.925 64.0949C136.979 64.0902 137.268 64.1118 137.109 64.0853C137.327 64.1055 137.532 64.1979 137.691 64.3479C138.15 64.7775 138.499 65.3102 138.71 65.9018C139.01 66.7693 139.188 67.6743 139.24 68.5909C139.565 72.3686 139.609 76.1654 139.37 79.9496C139.257 82.1508 139.102 84.3569 138.842 86.5465C138.844 86.9482 139.169 87.2732 139.571 87.2755C139.97 87.2662 140.291 86.9452 140.3 86.5465H140.3Z" fill="#1C1F34"/>
<path d="M128.879 87.0325C129.482 78.24 129.847 75.7235 129.847 70.5816C129.847 65.4396 133.587 64.6806 134.827 69.7797C136.012 78.0039 135.44 80.4073 135.44 80.4073H136.436C137.501 80.4073 138.519 80.8475 139.249 81.6236C139.979 82.3997 140.355 83.4429 140.289 84.5061L139.702 93.9936L144.249 97.0145" fill="#FC7272"/>
<path d="M129.608 87.0325C129.829 83.8169 130.096 80.6049 130.322 77.3897C130.484 75.0713 130.542 72.7601 130.577 70.4372C130.572 69.7086 130.689 68.9845 130.924 68.2949C131.006 68.0768 131.11 67.8676 131.234 67.6704C131.281 67.5825 131.341 67.5023 131.412 67.4323C131.446 67.3956 131.482 67.3607 131.517 67.3246C131.52 67.3206 131.691 67.1773 131.588 67.2548C131.669 67.1947 131.756 67.1425 131.847 67.0991C131.95 67.0498 131.746 67.1335 131.852 67.0987C131.902 67.0822 131.953 67.0687 132.004 67.0554C132.038 67.0466 132.142 67.0396 131.996 67.0525C132.037 67.0489 132.079 67.047 132.121 67.0468C132.121 67.0468 132.324 67.0615 132.213 67.0476C132.12 67.0359 132.315 67.0728 132.338 67.0796C132.381 67.0919 132.423 67.1052 132.465 67.1214C132.582 67.1667 132.321 67.0405 132.512 67.1479C132.599 67.1945 132.682 67.2472 132.762 67.3054C132.929 67.4533 133.08 67.6173 133.214 67.7952C134.223 69.195 134.287 71.0378 134.475 72.6893C134.638 74.1283 134.768 75.5725 134.824 77.0199C134.866 77.885 134.86 78.7517 134.806 79.6161C134.798 79.734 134.786 79.8516 134.775 79.9693C134.77 80.0162 134.762 80.063 134.759 80.1102C134.751 80.21 134.802 79.8751 134.768 80.0371C134.756 80.0955 134.751 80.1553 134.737 80.2135C134.68 80.4326 134.727 80.6656 134.864 80.8456C135.001 81.0256 135.214 81.1328 135.44 81.1363C136.295 81.1363 137.139 81.0816 137.918 81.5077C138.927 82.0556 139.559 83.1081 139.568 84.256C139.568 85.3475 139.44 86.4508 139.373 87.5393L139.054 92.6913C139.028 93.1084 138.972 93.5358 138.976 93.9539C138.981 94.5097 139.543 94.7615 139.949 95.0313L143.881 97.6438C144.665 98.1645 145.396 96.9023 144.617 96.3849L140.07 93.364L140.431 93.9934L140.793 88.1399L140.99 84.9585C141.124 83.8012 140.848 82.6337 140.21 81.659C139.583 80.7602 138.659 80.1114 137.601 79.827C136.89 79.6858 136.164 79.6357 135.44 79.6779L136.143 80.6007C136.321 79.5884 136.373 78.5578 136.297 77.5327C136.262 76.0582 136.139 74.5861 135.98 73.1201C135.775 71.2212 135.686 69.2045 134.745 67.4977C134.187 66.486 133.186 65.4761 131.933 65.6012C130.667 65.7277 129.888 66.8391 129.501 67.9549C129.001 69.3961 129.13 70.9625 129.1 72.4627C129.076 73.6388 129.026 74.8142 128.955 75.9882C128.733 79.6724 128.403 83.3501 128.15 87.0322C128.085 87.9687 129.544 87.9647 129.608 87.0322L129.608 87.0325Z" fill="#1C1F34"/>
<path d="M138.599 93.2861L172.042 115.48L189.373 116.034L194.099 116.184C194.581 119.291 194.607 123.915 194.063 129.03C193.642 132.868 192.903 136.665 191.854 140.381C162.564 139 152.238 130.449 152.238 130.449L120.208 104.188L116.243 91.4063L119.402 78.4631" fill="#FC7272"/>
<path d="M138.231 93.9156L140.313 95.2971L145.588 98.7977L152.706 103.522L160.24 108.521L166.755 112.845L170.914 115.605C171.158 115.767 171.398 115.953 171.654 116.096C171.995 116.287 172.526 116.225 172.904 116.237L180.348 116.474L188.147 116.723L192.979 116.877L194.099 116.913L193.397 116.378C193.773 119.253 193.858 122.159 193.65 125.051C193.479 128.343 193.072 131.62 192.433 134.854C192.08 136.648 191.663 138.431 191.151 140.186L191.854 139.651C186.066 139.406 180.301 138.772 174.598 137.751C170.583 137.034 166.626 136.023 162.759 134.728C162.025 134.477 161.295 134.213 160.571 133.935C160.241 133.808 159.911 133.678 159.584 133.545C159.433 133.484 159.282 133.422 159.132 133.359C159.09 133.341 159.048 133.324 159.006 133.306C159.018 133.311 159.101 133.347 159.024 133.314C158.943 133.279 158.861 133.244 158.779 133.209C157.762 132.771 156.758 132.299 155.777 131.783C154.741 131.251 153.745 130.644 152.797 129.967C152.576 129.806 152.921 130.073 152.763 129.941C152.734 129.916 152.704 129.892 152.674 129.868C152.317 129.577 151.961 129.283 151.604 128.991L146.525 124.827L139.064 118.709L131.071 112.156L124.373 106.664L120.883 103.804L120.724 103.673L120.911 103.995L117.436 92.793L116.946 91.2128V91.6004L119.711 80.2705L120.105 78.6572C120.328 77.7459 118.922 77.3571 118.699 78.2696L116.125 88.8182L115.613 90.9166C115.523 91.2169 115.524 91.5367 115.614 91.8368L117.178 96.8788L119.103 103.086C119.301 103.723 119.392 104.457 119.925 104.894L125.95 109.834L136.508 118.49L146.744 126.882C148.395 128.236 150.036 129.605 151.698 130.944C152.655 131.685 153.678 132.335 154.753 132.888C158.161 134.665 161.746 136.079 165.45 137.105C171.957 138.999 178.698 140.063 185.439 140.672C187.574 140.865 189.712 141.011 191.854 141.11C192.181 141.106 192.467 140.889 192.557 140.574C194.435 134.108 195.32 127.394 195.182 120.662C195.157 119.098 195.03 117.538 194.803 115.991C194.714 115.675 194.427 115.457 194.1 115.455L187.137 115.233L175.364 114.857L172.043 114.751L172.41 114.851L169.08 112.641L161.083 107.334L151.45 100.941L143.087 95.3909C141.74 94.4969 140.418 93.5136 139.024 92.6943C139.004 92.6829 138.986 92.669 138.967 92.6567C138.183 92.1364 137.452 93.3986 138.231 93.9156H138.231Z" fill="#1C1F34"/>
<path d="M124.381 84.1622C124.984 75.3697 125.348 70.5818 125.348 65.4398C125.348 60.2979 129.088 59.5388 130.328 64.638C131.513 72.8622 130.337 87.2755 130.337 87.2755" fill="#FC7272"/>
<path d="M125.11 84.1623C125.409 79.7995 125.743 75.4368 125.941 71.0678C126.016 69.4021 126.066 67.7353 126.075 66.068C126.03 65.1352 126.132 64.2011 126.375 63.2996C126.47 63.0012 126.606 62.7178 126.781 62.4579C126.907 62.2746 127.071 62.1197 127.261 62.0032C127.281 61.9904 127.473 61.913 127.323 61.9674C127.383 61.9456 127.444 61.9298 127.505 61.9139C127.694 61.8649 127.365 61.9088 127.559 61.9067C127.623 61.906 127.685 61.9054 127.748 61.9107C127.59 61.8974 127.88 61.9491 127.934 61.9679C128.05 62.0216 128.161 62.0872 128.263 62.1638C128.766 62.6408 129.139 63.2374 129.348 63.8978C129.619 64.7668 129.78 65.6665 129.826 66.5757C129.911 67.4726 129.971 68.3718 130.016 69.2713C130.205 73.0644 130.142 76.8704 129.99 80.6635C129.901 82.8687 129.787 85.0755 129.608 87.2755C129.532 88.2107 130.99 88.2057 131.066 87.2755C131.583 81.37 131.723 75.4375 131.486 69.5142C131.442 68.5711 131.381 67.6286 131.295 66.6884C131.25 65.6991 131.097 64.7177 130.839 63.7615C130.377 62.3268 129.371 60.4451 127.622 60.4473C125.936 60.4493 125.046 62.2401 124.779 63.6703C124.639 64.6369 124.583 65.6138 124.613 66.59C124.604 67.4661 124.584 68.3421 124.555 69.2179C124.392 74.2054 123.993 79.1848 123.651 84.1622C123.587 85.0987 125.045 85.0948 125.109 84.1622L125.11 84.1623Z" fill="#1C1F34"/>
<path d="M119.453 83.3053C120.056 74.5128 120.421 69.7248 120.42 64.5829C120.42 59.441 124.161 58.6819 125.4 63.781C126.585 72.0053 125.234 87.2755 125.234 87.2755" fill="#FC7272"/>
<path d="M120.182 83.3053C120.489 78.8319 120.835 74.3585 121.028 69.8784C121.103 68.1489 121.143 66.4187 121.149 64.6877C121.109 63.7914 121.26 62.8967 121.592 62.0633C121.711 61.7886 121.88 61.5385 122.09 61.3261C122.224 61.1918 122.393 61.0984 122.578 61.0569C122.767 61.0079 122.437 61.0518 122.632 61.0496C122.695 61.049 122.757 61.0483 122.82 61.0537C122.673 61.0412 123.003 61.1062 123.07 61.1346C122.931 61.0759 123.14 61.179 123.148 61.1843C123.211 61.2251 123.276 61.2614 123.336 61.307C123.34 61.3106 123.539 61.4981 123.613 61.5799C124.197 62.2962 124.577 63.1572 124.711 64.0716C124.954 65.7841 125.085 67.5105 125.104 69.24C125.234 73.0563 125.13 76.8807 124.94 80.6931C124.831 82.8887 124.698 85.0855 124.505 87.2755C124.508 87.6769 124.833 88.0015 125.234 88.0045C125.633 87.9964 125.955 87.6747 125.963 87.2755C126.134 85.342 126.254 83.403 126.358 81.4649C126.57 77.4951 126.692 73.5124 126.572 69.5375C126.528 67.6452 126.385 65.7566 126.144 63.8793C125.929 62.3008 124.947 60.0419 123.204 59.6509C121.513 59.2717 120.385 60.8218 119.98 62.2595C119.746 63.2605 119.648 64.2884 119.689 65.3156C119.683 66.2067 119.666 67.0978 119.639 67.9886C119.509 72.3801 119.175 76.7646 118.873 81.1467C118.823 81.8662 118.773 82.5858 118.724 83.3054C118.66 84.2418 120.118 84.2379 120.182 83.3054L120.182 83.3053Z" fill="#1C1F34"/>
<path d="M119.645 88.0044C119.645 88.0044 121.015 76.5042 119.83 68.28C118.59 63.1808 114.85 63.9398 114.85 69.0818C114.85 73.3383 114.553 84.6493 114.108 93.4062C113.944 96.6142 115.249 99.7224 117.655 101.851L124.381 107.799" fill="#FC7272"/>
<path d="M120.374 88.0045C120.866 83.8055 121.087 79.5794 121.037 75.352C121.021 73.7394 120.957 72.1262 120.816 70.5194C120.677 68.9506 120.523 67.4027 119.749 65.9984C119.231 65.0594 118.38 64.1698 117.25 64.0948C116.225 64.0265 115.37 64.7357 114.889 65.5838C114.226 66.7511 114.125 68.1217 114.121 69.4343C114.117 70.5215 114.101 71.6086 114.082 72.6955C114.028 75.7758 113.948 78.8555 113.844 81.9348C113.733 85.3845 113.596 88.8334 113.435 92.2813C113.354 93.9717 113.355 95.6023 113.857 97.2386C114.351 98.8445 115.194 100.321 116.326 101.564C117.385 102.636 118.502 103.651 119.67 104.604L123.612 108.091L123.865 108.315C124.566 108.935 125.601 107.907 124.896 107.284L118.359 101.502C116.448 99.8791 115.211 97.602 114.889 95.1156C114.706 93.5163 114.915 91.8625 114.986 90.2597C115.06 88.5983 115.127 86.9366 115.187 85.2745C115.386 79.8293 115.498 74.3853 115.58 68.9376C115.596 67.8542 115.79 66.5778 116.52 65.8251C116.619 65.718 116.743 65.6358 116.88 65.5852C116.746 65.6441 116.971 65.5652 117.007 65.5559C117.041 65.5471 117.146 65.54 116.999 65.5529C117.051 65.5472 117.103 65.5456 117.155 65.548C117.265 65.5615 117.372 65.5873 117.476 65.6249C117.629 65.7035 117.77 65.8045 117.893 65.9247C118.789 66.7849 119.099 68.1357 119.235 69.3185C119.414 70.8603 119.507 72.4112 119.552 73.9623C119.669 78.5705 119.466 83.1813 118.944 87.7613C118.935 87.8423 118.925 87.9236 118.916 88.0044C118.918 88.4061 119.243 88.7312 119.645 88.7334C120.044 88.7242 120.365 88.4031 120.374 88.0044L120.374 88.0045Z" fill="#1C1F34"/>
<path d="M135.554 77.0669C135.554 77.0669 135.44 84.2951 134.954 87.6971L135.554 77.0669Z" fill="#FC7272"/>
<path d="M134.825 77.0669C134.77 80.5225 134.724 84.1423 134.251 87.5033C134.158 87.8897 134.381 88.2822 134.76 88.4001C135.148 88.5042 135.548 88.2774 135.657 87.8909C136.159 84.3212 136.226 80.6676 136.283 77.0669C136.298 76.1284 134.84 76.1281 134.825 77.0669Z" fill="#1C1F34"/>
<path d="M245.518 182.466C245.518 182.466 248.434 192.672 254.752 191.214C255.453 201.391 256.729 211.521 258.572 221.554C260.329 231.301 264.19 240.547 269.886 248.649L306.024 300.077" fill="white"/>
<path d="M245.166 182.563C245.536 183.8 246.026 184.998 246.629 186.14C247.632 188.082 249.019 190.084 251.018 191.098C252.2 191.698 253.556 191.863 254.849 191.565L254.387 191.214C254.881 199.037 255.814 206.829 257.028 214.571C257.568 218.016 258.099 221.481 258.883 224.881C259.699 228.418 260.797 231.884 262.165 235.246C264.156 240.118 266.692 244.749 269.724 249.051L272.374 252.822L277.542 260.177L284.212 269.668L291.367 279.851L297.994 289.281L303.076 296.513C303.917 297.709 304.75 298.911 305.598 300.102C305.635 300.154 305.672 300.208 305.709 300.26C305.977 300.641 306.609 300.278 306.339 299.893L304.612 297.435L300.098 291.012L293.767 282.002L286.683 271.921L279.821 262.156L274.182 254.131L270.768 249.272C268.706 246.379 266.851 243.344 265.219 240.188C261.918 233.701 259.851 226.812 258.605 219.659C257.31 212.22 256.263 204.733 255.579 197.212C255.397 195.215 255.243 193.215 255.116 191.214C255.114 191.101 255.06 190.995 254.97 190.927C254.88 190.858 254.764 190.835 254.655 190.862C250.288 191.821 247.565 186.975 246.276 183.56C246.128 183.168 245.985 182.772 245.869 182.369C245.81 182.181 245.614 182.074 245.424 182.126C245.235 182.179 245.121 182.372 245.166 182.563V182.563Z" fill="#1C1F34"/>
<path d="M224.985 185.747L202.334 223.676C197.074 232.486 193.595 242.242 192.095 252.393L183.04 313.656" fill="white"/>
<path d="M224.67 185.563L220.869 191.926L212.658 205.678L204.818 218.806C203.07 221.734 201.263 224.64 199.695 227.67C195.692 235.426 192.998 243.791 191.724 252.426C191.378 254.757 191.034 257.089 190.69 259.42L188.579 273.703L186.096 290.504L183.915 305.256L182.742 313.192L182.688 313.559C182.62 314.018 183.323 314.216 183.391 313.753L184.212 308.2L186.202 294.738L188.672 278.023L190.943 262.661L192.309 253.419C193.22 246.991 194.89 240.693 197.284 234.658C199.165 229.99 201.594 225.628 204.167 221.319L211.217 209.513L219.745 195.233L225.036 186.371L225.299 185.931C225.393 185.758 225.332 185.542 225.162 185.443C224.993 185.343 224.775 185.397 224.67 185.563L224.67 185.563Z" fill="#1C1F34"/>
<path d="M224.086 79.2156C230.323 79.4232 237.513 79.1601 237.513 79.1601L237.707 89.0691C237.707 85.85 240.258 81.4916 242.565 81.4916C244.872 81.4916 246.645 82.2688 246.645 85.5718C246.645 87.7581 244.812 91.5689 243.536 92.5663L247.811 98.0065C247.811 98.0065 256.943 85.1831 256.943 76.6342L256.941 71.4712C256.94 67.5746 253.992 64.3101 250.116 63.9126L247.462 63.6404C245.212 59.5909 240.944 57.0795 236.312 57.0795H229.479C225.418 57.0768 221.598 59.0114 219.198 62.2874C215.319 62.9207 212.471 66.2714 212.47 70.2014C212.47 70.2014 210.188 78.7529 224.086 79.2156Z" fill="#A8542A"/>
<path d="M224.086 79.9445C228.557 80.0904 233.043 80.0518 237.513 79.889L236.784 79.16L236.954 87.8287L236.978 89.069C236.992 89.4618 237.314 89.7733 237.707 89.7733C238.1 89.7733 238.423 89.4618 238.436 89.069C238.499 87.4015 239.016 85.783 239.933 84.3886C240.31 83.7538 240.796 83.1898 241.368 82.7223C241.783 82.3666 242.321 82.1881 242.867 82.2254C243.983 82.2615 245.025 82.538 245.544 83.5508C246.222 84.8745 245.897 86.5289 245.446 87.8633C245.148 88.7425 244.764 89.5902 244.299 90.394C243.978 91.0198 243.544 91.5814 243.021 92.0509C242.744 92.339 242.744 92.7937 243.021 93.0818L247.295 98.522C247.611 98.9239 248.199 98.7124 248.44 98.3745C249.451 96.9538 250.377 95.4664 251.268 93.9691C253.147 90.8862 254.743 87.6398 256.038 84.2695C256.688 82.5865 257.166 80.8416 257.463 79.0619C257.621 77.908 257.691 76.7436 257.671 75.579C257.67 72.7727 258.008 69.781 256.525 67.2574C255.376 65.3128 253.492 63.9137 251.298 63.3769C250.031 63.139 248.749 62.9835 247.462 62.9114L248.091 63.2725C246.757 60.8886 244.735 58.9634 242.288 57.7491C240.323 56.8047 238.167 56.3262 235.988 56.3505H231.25C229.556 56.3505 227.887 56.3367 226.225 56.7462C223.15 57.5294 220.443 59.3584 218.568 61.9194L219.004 61.5843C215.933 62.1307 213.379 64.2556 212.282 67.175C212.007 67.921 211.835 68.7012 211.772 69.4937C211.755 69.6863 211.749 69.8784 211.742 70.0715C211.742 70.0657 211.768 69.9807 211.765 70.0146C211.764 70.0343 211.754 70.0535 211.752 70.0732C211.712 70.3661 211.651 70.655 211.626 70.9507C211.387 73.728 212.836 76.2605 215.152 77.7401C217.765 79.4099 221.053 79.8367 224.086 79.9446C225.025 79.978 225.023 78.52 224.086 78.4866C221.872 78.4078 219.626 78.1363 217.548 77.3264C216.286 76.8749 215.164 76.1007 214.294 75.0808C214.255 75.0336 214.216 74.9859 214.179 74.9375C214.264 75.047 214.159 74.909 214.131 74.869C214.053 74.7579 213.977 74.6459 213.905 74.5306C213.771 74.3115 213.649 74.0853 213.54 73.853C213.521 73.8129 213.446 73.6334 213.519 73.8108C213.499 73.7632 213.479 73.7156 213.461 73.6674C213.421 73.5574 213.38 73.4476 213.344 73.336C213.276 73.1248 213.22 72.9102 213.174 72.693C213.153 72.5907 213.135 72.4879 213.117 72.3848C213.076 72.1436 213.121 72.4822 213.098 72.2402C213.081 72.0572 213.066 71.8743 213.062 71.6904C213.056 71.3983 213.068 71.1061 213.097 70.8153C213.109 70.6835 213.127 70.6439 213.093 70.8281C213.102 70.7807 213.106 70.7325 213.114 70.685C213.127 70.6168 213.14 70.5488 213.153 70.4806C213.252 69.9517 213.215 69.4066 213.317 68.8736C213.731 66.7149 215.085 64.8529 217.011 63.7941C217.494 63.5301 218.006 63.3231 218.537 63.1773C218.799 63.1049 219.067 63.0673 219.329 63.001C219.711 62.9044 219.888 62.5623 220.122 62.2757C222.41 59.4466 225.855 57.8044 229.493 57.8087C231.765 57.7999 234.038 57.7999 236.31 57.8087C239.924 57.8091 243.346 59.4322 245.633 62.2301C246.015 62.6979 246.36 63.1949 246.665 63.7165C246.867 64.0599 247.032 64.3184 247.462 64.3696C247.519 64.3765 247.577 64.3812 247.634 64.3873C249.113 64.5445 250.684 64.5571 252.068 65.1604C254.069 66.0402 255.54 67.8098 256.04 69.9382C256.34 71.2286 256.212 72.6477 256.212 73.9629C256.213 75.231 256.271 76.5183 256.162 77.7834C255.939 79.798 255.452 81.7744 254.713 83.6619C253.972 85.6501 253.103 87.5883 252.113 89.4645C250.719 92.1517 249.162 94.7513 247.452 97.2489C247.362 97.3794 247.273 97.5098 247.181 97.6388L248.326 97.4912L244.051 92.0509V93.0818C244.639 92.5543 245.129 91.9275 245.5 91.2301C245.987 90.393 246.398 89.5138 246.728 88.6031C247.346 86.9208 247.686 84.9739 246.998 83.2536C246.368 81.6775 244.982 80.9542 243.355 80.7978C242.595 80.6901 241.821 80.8122 241.131 81.1484C240.4 81.5633 239.765 82.1295 239.27 82.8092C237.856 84.5969 237.053 86.791 236.978 89.0691H238.436L238.266 80.4004L238.242 79.1601C238.237 78.7595 237.913 78.436 237.513 78.4311C233.043 78.5939 228.557 78.6324 224.086 78.4866C223.148 78.456 223.149 79.914 224.086 79.9445Z" fill="#1C1F34"/>
<path d="M218.545 62.4254H226.844C228.299 62.4254 229.618 63.2825 230.209 64.6124" fill="#A8542A"/>
<path d="M218.545 63.1544C221.291 63.1544 224.037 63.1378 226.782 63.1544C227.997 63.1465 229.098 63.8655 229.579 64.9803C229.784 65.3256 230.229 65.4421 230.577 65.2418C230.916 65.0325 231.031 64.5934 230.838 64.2444C230.181 62.8436 228.84 61.8882 227.301 61.7255C226.798 61.6873 226.293 61.6776 225.789 61.6964H218.545C217.607 61.6964 217.605 63.1544 218.545 63.1544Z" fill="#1C1F34"/>
</svg>
