<svg width="276" height="170" viewBox="0 0 276 170" fill="none" xmlns="http://www.w3.org/2000/svg">
<path d="M153.011 54.145L153.868 43.1621L144.218 45.8267L143.22 52.9941" fill="#FC7F3A"/>
<path d="M153.466 54.1448L153.757 50.424L154.217 44.5244L154.324 43.162C154.322 43.02 154.255 42.8865 154.142 42.8004C154.029 42.7144 153.883 42.6853 153.745 42.7216L150.499 43.6179L145.29 45.0563L144.095 45.3863C143.939 45.4272 143.817 45.5491 143.776 45.7053L142.9 51.9939L142.778 52.8728C142.72 53.1149 142.859 53.3607 143.097 53.4346C143.34 53.4998 143.59 53.3577 143.659 53.1156L144.535 46.8269L144.657 45.948L144.338 46.267L147.584 45.3708L152.793 43.9325L153.988 43.6025L153.41 43.1621L153.12 46.8829L152.659 52.7825L152.553 54.1449C152.507 54.731 153.42 54.7281 153.466 54.1449L153.466 54.1448Z" fill="black"/>
<path d="M153.744 44.7094C154.943 40.884 158.109 39.0052 158.7 36.0047C159.044 34.2625 157.102 30.2147 157.102 30.2147L139.191 29.0967C139.191 29.0967 129.978 48.3235 147.485 47.1056" fill="#FC7F3A"/>
<path d="M154.183 44.8308C154.636 43.522 155.299 42.2958 156.146 41.2007C156.875 40.2087 157.686 39.2678 158.31 38.2034C158.837 37.3037 159.271 36.2617 159.182 35.1999C159.053 34.1115 158.776 33.0459 158.358 32.0326C158.098 31.34 157.815 30.6519 157.495 29.9843C157.413 29.8444 157.263 29.7583 157.101 29.7581L151.034 29.3794L141.382 28.7769L139.19 28.6401C139.027 28.6376 138.876 28.7244 138.796 28.8663C138.48 29.5268 138.211 30.2133 137.956 30.8994C137.395 32.3899 136.962 33.9252 136.66 35.489C136.313 37.3361 136.166 39.2464 136.501 41.1066C136.832 42.9443 137.727 44.6322 139.222 45.778C141.194 47.2885 143.822 47.6507 146.238 47.6158C146.654 47.6098 147.069 47.5906 147.484 47.5624C148.067 47.5227 148.071 46.6091 147.484 46.6491C146.045 46.7736 144.597 46.7127 143.174 46.4677C142.135 46.2926 141.139 45.9219 140.238 45.3755C139.863 45.1501 139.517 44.8786 139.21 44.5672C139.055 44.4152 138.908 44.2552 138.77 44.0879C138.737 44.0479 138.705 44.0074 138.673 43.9665C138.73 44.0395 138.643 43.927 138.627 43.9046C138.558 43.8114 138.492 43.7163 138.429 43.6194C138.313 43.443 138.206 43.2611 138.108 43.0739C138.061 42.9835 138.015 42.8921 137.972 42.7996C137.95 42.7534 137.929 42.7068 137.908 42.6602C137.897 42.637 137.887 42.6135 137.877 42.5901C137.855 42.5397 137.904 42.6565 137.871 42.5754C137.712 42.1814 137.582 41.7756 137.485 41.3617C137.434 41.1458 137.391 40.9281 137.355 40.7088C137.347 40.6569 137.339 40.6049 137.331 40.553C137.327 40.527 137.323 40.5009 137.32 40.4748C137.322 40.492 137.331 40.5675 137.32 40.4786C137.306 40.367 137.293 40.2552 137.282 40.1433C137.239 39.6971 137.22 39.2489 137.225 38.8007C137.228 38.3547 137.253 37.9089 137.294 37.4648C137.315 37.2361 137.341 37.0078 137.37 36.7801C137.38 36.7052 137.363 36.8264 137.381 36.7012C137.389 36.648 137.396 36.5947 137.404 36.5416C137.421 36.4288 137.438 36.3163 137.457 36.2039C137.729 34.6195 138.141 33.0623 138.688 31.5508C138.874 31.0291 139.073 30.5127 139.286 30.0016C139.344 29.8623 139.258 30.0652 139.304 29.9579C139.323 29.9145 139.341 29.871 139.36 29.8277C139.391 29.7567 139.422 29.6858 139.453 29.6152C139.496 29.5323 139.535 29.447 139.569 29.3599C139.574 29.3487 139.579 29.3379 139.584 29.3274L139.19 29.5536L145.257 29.9324L154.909 30.5349L157.101 30.6716L156.706 30.4454C156.963 30.9803 157.155 31.4439 157.366 31.985C157.772 32.9446 158.067 33.9478 158.244 34.9748C158.378 35.9298 158.062 36.8047 157.556 37.6824C156.968 38.704 156.2 39.6091 155.497 40.5516C154.545 41.7652 153.803 43.1296 153.302 44.5882C153.124 45.1496 154.005 45.3899 154.183 44.8311L154.183 44.8308Z" fill="black"/>
<path d="M151.971 38.4576C151.976 38.4452 151.981 38.433 151.986 38.4207C151.993 38.4038 151.96 38.481 151.984 38.4249C151.993 38.4037 152.003 38.3825 152.012 38.3613C152.066 38.2377 152.123 38.1152 152.183 37.9938C152.355 37.6362 152.553 37.2921 152.777 36.9645C152.886 36.8025 153.01 36.6504 153.146 36.5102C153.262 36.3807 153.4 36.2741 153.555 36.1959C153.563 36.1918 153.612 36.1697 153.59 36.179C153.567 36.1883 153.616 36.1693 153.625 36.1667C153.663 36.1546 153.702 36.1445 153.741 36.1365C153.785 36.1275 153.709 36.1365 153.753 36.1357C153.771 36.1354 153.789 36.1338 153.807 36.134C153.825 36.1341 153.843 36.1355 153.862 36.1367C153.815 36.1336 153.862 36.1367 153.882 36.1415C153.987 36.1654 154.086 36.2113 154.172 36.276C154.18 36.2828 154.245 36.349 154.237 36.3383C154.25 36.357 154.262 36.3766 154.273 36.3969C154.291 36.4269 154.276 36.3895 154.289 36.4333C154.309 36.5027 154.313 36.5756 154.301 36.6467C154.29 36.6942 154.278 36.7411 154.262 36.7872C154.254 36.8096 154.246 36.8318 154.237 36.8537C154.253 36.8143 154.23 36.8665 154.224 36.8793C154.191 36.9476 154.153 37.0136 154.111 37.0771C154.098 37.0974 154.083 37.1167 154.069 37.1368C154.04 37.1798 154.087 37.1142 154.084 37.1183C153.999 37.209 153.999 37.3506 154.084 37.4412C154.174 37.5295 154.317 37.5295 154.407 37.4412C154.626 37.1905 154.752 36.8724 154.765 36.5399C154.741 36.2867 154.617 36.0537 154.42 35.8927C154.223 35.7317 153.97 35.656 153.717 35.6826C153.274 35.7305 152.918 36.0563 152.646 36.3859C152.352 36.7512 152.098 37.1467 151.888 37.5656C151.758 37.8168 151.636 38.0736 151.53 38.3361C151.498 38.4576 151.569 38.5828 151.69 38.617C151.811 38.6474 151.935 38.5772 151.971 38.4575L151.971 38.4576Z" fill="black"/>
<path d="M162.604 53.7022L162.78 49.9076C162.861 48.173 164.278 46.7528 166.138 46.5428L190.879 43.8837L189.138 49.7377L191.828 57.807L166.634 55.3151" fill="white"/>
<path d="M163.06 53.7022L163.217 50.3133C163.21 49.7102 163.356 49.115 163.641 48.5836C164.165 47.7397 165.033 47.1675 166.015 47.0181C166.37 46.9579 166.734 46.9354 167.092 46.897L169.732 46.6132L177.889 45.7365L186.361 44.826L189.346 44.5051C189.829 44.4531 190.333 44.4359 190.811 44.3477C190.833 44.3436 190.856 44.3429 190.878 44.3405L190.438 43.7624L189.648 46.4188C189.338 47.4612 188.991 48.4999 188.716 49.5523C188.677 49.7566 188.705 49.9681 188.796 50.1551L189.222 51.4341L190.515 55.3124L191.387 57.9284L191.827 57.3504L189.328 57.1032L183.298 56.5067L176.029 55.7878L169.742 55.166L167.668 54.9608C167.34 54.9284 167.006 54.873 166.676 54.8627C166.662 54.8623 166.648 54.86 166.634 54.8586C166.382 54.8603 166.179 55.0638 166.177 55.3153C166.183 55.5652 166.384 55.7666 166.634 55.7719L169.133 56.0191L175.163 56.6155L182.433 57.3345L188.719 57.9563L190.794 58.1615C191.121 58.1939 191.456 58.2492 191.785 58.2596C191.799 58.26 191.813 58.2623 191.827 58.2637C191.97 58.2627 192.103 58.1959 192.189 58.0828C192.276 57.9697 192.305 57.823 192.268 57.6856L189.915 50.6266L189.578 49.6165V49.8593L191.099 44.7441L191.318 44.0053C191.355 43.868 191.326 43.7214 191.24 43.6083C191.154 43.4953 191.02 43.4284 190.878 43.4272L187.096 43.8335L178.733 44.7324L170.259 45.6431C168.889 45.7904 167.517 45.9275 166.148 46.085C164.155 46.3142 162.452 47.8032 162.325 49.8695C162.254 51.0165 162.218 52.1667 162.164 53.3148L162.146 53.7022C162.119 54.2898 163.032 54.2885 163.059 53.7022H163.06Z" fill="black"/>
<path d="M43.8672 102.527L207.289 84.4128L191.659 108.6L43.8672 102.527Z" fill="black"/>
<path d="M43.8671 102.984L48.2406 102.499L60.1421 101.18L77.744 99.2288L99.2184 96.8485L122.656 94.2505L146.395 91.6192L168.528 89.1659L187.174 87.0991L200.67 85.6031L204.835 85.1414C205.548 85.0624 206.313 85.0511 207.015 84.8999C207.103 84.8808 207.199 84.8795 207.289 84.8695L206.895 84.1823L201.604 92.3689L193.213 105.353L191.264 108.369L191.659 108.143L187.683 107.98L176.971 107.54L161.016 106.884L141.618 106.087L120.374 105.214L98.9314 104.333L78.9368 103.511L62.0381 102.817L49.8824 102.318C47.9606 102.239 46.0329 102.108 44.1095 102.08C44.0287 102.079 43.9479 102.074 43.8672 102.071C43.2794 102.046 43.2805 102.96 43.8672 102.984L49.4708 103.214L64.384 103.827L85.7602 104.705L110.671 105.729L136.357 106.784L160.064 107.758L178.866 108.531L189.917 108.985C190.453 109.007 191.11 109.14 191.643 109.056C192.09 108.985 192.312 108.429 192.54 108.077L194.579 104.922L206.767 86.0607L207.683 84.6433C207.858 84.3723 207.633 83.9179 207.289 83.9561L202.915 84.4409L191.014 85.7601L173.412 87.7112L151.938 90.0915L128.5 92.6895L104.761 95.3207L82.6276 97.7741L63.9822 99.8409L50.4861 101.337C48.3712 101.571 46.2555 101.8 44.1414 102.04C44.05 102.051 43.9585 102.06 43.8671 102.071C43.2893 102.135 43.2828 103.049 43.8671 102.984Z" fill="black"/>
<path d="M207.289 84.4129L186.047 64.2762L43.8672 102.527L207.289 84.4129Z" fill="#FFC41F"/>
<path d="M207.612 84.0899L194.121 71.301L187.151 64.6939C186.823 64.3836 186.409 63.7985 185.919 63.8374C185.767 63.8645 185.618 63.9047 185.473 63.9574L177.272 66.1639L160.805 70.5941L139.007 76.4585L114.362 83.0887L89.8445 89.6847L68.1279 95.5272L51.922 99.8871L44.0852 101.996L43.7459 102.087C43.2653 102.216 43.3421 103.042 43.8673 102.984L48.2407 102.499L60.1422 101.18L77.7441 99.2288L99.2185 96.8485L122.657 94.2505L146.395 91.6192L168.528 89.1659L187.174 87.0991L200.67 85.6031C202.785 85.3687 204.901 85.1403 207.015 84.8999C207.106 84.8895 207.198 84.8796 207.289 84.8695C207.867 84.8054 207.873 83.8913 207.289 83.9561L202.916 84.4409L191.014 85.7601L173.412 87.7112L151.938 90.0915L128.5 92.6895L104.761 95.3207L82.6276 97.7741L63.9822 99.8409L50.4861 101.337L46.3207 101.799C45.607 101.878 44.8446 101.891 44.1414 102.04C44.0528 102.059 43.9574 102.061 43.8671 102.071L43.9885 102.968L47.7898 101.945L58.1349 99.1619L73.436 95.0454L92.1052 90.0228L112.555 84.521L133.197 78.9676L152.444 73.7896L168.707 69.4142L180.399 66.2686L184.035 65.2904C184.677 65.1552 185.31 64.9847 185.933 64.7799C186.01 64.7545 186.088 64.7333 186.168 64.7166L185.724 64.5991L192.906 71.4081L204.348 82.2545L206.966 84.7357C207.392 85.14 208.039 84.4953 207.612 84.0899Z" fill="black"/>
<path d="M140.798 71.6916L113.783 87.3218C106.98 90.1251 100.227 85.991 97.2483 79.8281L83.4404 51.262L95.0048 45.5114L109.095 74.9921L130.504 58.28C132.446 56.7641 134.88 56.0195 137.337 56.1894L142.974 56.5789" fill="#3D56A2"/>
<path d="M140.568 71.2973L137.084 73.3135L129.088 77.9397L120.269 83.042L114.315 86.4867C113.808 86.8005 113.264 87.0515 112.695 87.234C110.293 87.9916 107.705 87.9102 105.356 87.0033C101.777 85.6395 99.1299 82.6734 97.4941 79.2892L94.9599 74.0464L90.6616 65.1539L86.3936 56.3243L83.9507 51.2701L83.8353 51.0314L83.6714 51.6563L87.5692 49.718L93.8109 46.6142L95.2358 45.9056L94.611 45.7418L96.0145 48.6783L99.3844 55.7289L103.459 64.2548L106.969 71.5984L108.129 74.0254C108.311 74.4052 108.474 74.802 108.677 75.1713C108.686 75.1878 108.693 75.2055 108.701 75.2225C108.842 75.5161 109.208 75.4792 109.419 75.315L112.932 72.5721L120.521 66.6479L127.902 60.8861L130.185 59.1043C130.803 58.5921 131.466 58.1363 132.166 57.7426C133.45 57.0564 134.875 56.6749 136.33 56.6274C136.935 56.6216 137.54 56.6464 138.142 56.7016L142.63 57.0118L142.975 57.0356C143.561 57.0761 143.559 56.1626 142.975 56.1222L139.142 55.8574C138.567 55.8176 137.992 55.7779 137.416 55.7381C136.248 55.6551 135.073 55.7659 133.941 56.066C132.467 56.488 131.094 57.2048 129.905 58.173L128.044 59.6255L120.973 65.1455L113.105 71.2875L110.252 73.5146C109.783 73.8802 109.283 74.225 108.838 74.6185C108.817 74.6366 108.794 74.6523 108.773 74.6691L109.49 74.7615L108.086 71.825L104.717 64.7744L100.642 56.2487L97.1318 48.9051L95.9718 46.4782C95.7903 46.0983 95.6266 45.7015 95.4241 45.3322C95.4151 45.3157 95.4077 45.298 95.3996 45.281C95.2695 45.0669 94.9932 44.9944 94.7748 45.1171L90.877 47.0554L84.6353 50.1592L83.2104 50.8678C82.9968 50.9982 82.9245 51.2741 83.0466 51.4926L84.8022 55.1244L88.8416 63.4814L93.3129 72.7319L96.4 79.1185C96.5771 79.485 96.7512 79.853 96.9323 80.2175C98.0913 82.5615 99.7957 84.5932 101.902 86.1423C103.941 87.657 106.382 88.5347 108.918 88.6649C110.249 88.7141 111.578 88.5373 112.85 88.1422C113.296 88.0248 113.728 87.8581 114.137 87.6454L118.718 84.9947L127.213 80.0798L135.835 75.0913L140.796 72.2208L141.029 72.0859C141.538 71.7916 141.079 71.002 140.568 71.2972L140.568 71.2973Z" fill="black"/>
<path d="M137.337 56.1894C134.879 56.0196 132.445 56.7641 130.504 58.28L109.095 74.9921L99.3225 54.5461C97.7684 55.7145 95.4719 57.0512 92.8123 58.2719C91.0185 59.0952 83.9522 60.1691 82.4355 60.642L89.355 83.6133C91.9204 91.5559 99.9297 96.4269 112.533 90.6958L140.633 75.572L142.974 56.5789L137.337 56.1894Z" fill="#3D56A2"/>
<path d="M137.337 55.7328C134.834 55.5727 132.357 56.3142 130.354 57.823C130.073 58.0372 129.795 58.258 129.516 58.4759L124.939 62.0491L118.215 67.2982L111.966 72.1757L109.841 73.8352C109.504 74.0982 109.132 74.3438 108.817 74.634C108.803 74.6468 108.787 74.6576 108.772 74.6692L109.489 74.7617L108.521 72.7355L106.182 67.8412L103.363 61.9448L100.925 56.8438C100.532 56.02 100.184 55.1456 99.7338 54.3506C99.7275 54.3395 99.7227 54.3273 99.7171 54.3157C99.5895 54.0984 99.3102 54.0251 99.0923 54.1519C97.8386 55.0706 96.5169 55.8929 95.1388 56.6117C94.3003 57.0596 93.4479 57.4849 92.5821 57.8777C92.5644 57.8857 92.4581 57.9306 92.5624 57.8875C92.5271 57.9021 92.4915 57.9164 92.4557 57.9299C92.3907 57.9543 92.3255 57.9784 92.2598 58.0013C92.0597 58.0709 91.8569 58.1325 91.6533 58.191C89.4727 58.8162 87.2146 59.1826 84.9907 59.6163C84.0889 59.7643 83.1956 59.9597 82.3145 60.2017C82.0737 60.2718 81.9324 60.5207 81.9955 60.7634L82.6123 62.8111L84.1177 67.8087L85.994 74.0379L87.7239 79.7807L88.7897 83.3189C89.2154 84.7793 89.8423 86.1733 90.6524 87.4608C91.9383 89.4962 93.7549 91.1423 95.9068 92.2221C98.3458 93.4196 101.096 93.8075 103.79 93.5945C105.45 93.4544 107.09 93.1368 108.682 92.647C110.093 92.2429 111.466 91.718 112.786 91.0781C113.391 90.773 113.981 90.4352 114.577 90.1144L118.598 87.9503L123.954 85.0674L129.752 81.947L135.096 79.0707L139.092 76.9198C139.672 76.6079 140.286 76.3257 140.845 75.9767C141.106 75.8132 141.101 75.4866 141.135 75.209L141.326 73.654L142.007 68.1302L142.796 61.7267L143.35 57.2356L143.431 56.579C143.462 56.3222 143.195 56.1375 142.974 56.1223L138.034 55.781L137.337 55.7327C136.75 55.6922 136.753 56.6057 137.337 56.6461L142.276 56.9874L142.974 57.0356L142.517 56.579L141.722 63.035L140.464 73.2393L140.177 75.5721L140.403 75.1777L137.031 76.9926L129.186 81.2146L120.3 85.9973L113.732 89.5327C113.277 89.7774 112.825 90.0294 112.367 90.2671C111.699 90.5947 111.012 90.8829 110.311 91.1303C109.003 91.6292 107.658 92.0259 106.289 92.3168C102.204 93.1675 97.7809 92.7929 94.3715 90.205C92.0784 88.4643 90.5246 85.9117 89.7017 83.1797L87.7863 76.8214L84.8855 67.1913L82.9725 60.8404L82.8762 60.5207L82.5572 61.0825C83.3316 60.8679 84.1166 60.6937 84.9091 60.5606C86.0645 60.3334 87.2218 60.1157 88.376 59.8823C89.4652 59.662 90.5564 59.4368 91.6294 59.146C92.7699 58.8002 93.8708 58.3354 94.9139 57.7592C96.537 56.952 98.0889 56.0091 99.5532 54.9406L98.9284 54.7768L99.8967 56.8029L102.236 61.6972L105.054 67.5936L107.492 72.6945C107.886 73.5183 108.234 74.3927 108.684 75.1877C108.69 75.1988 108.695 75.211 108.701 75.2225C108.841 75.5161 109.208 75.4792 109.418 75.315L111.971 73.3218L117.918 68.68L124.666 63.4118L129.69 59.4899C130.049 59.2101 130.407 58.9304 130.765 58.6507C132.141 57.5838 133.778 56.9059 135.505 56.6879C136.113 56.6191 136.726 56.6051 137.337 56.6461C137.924 56.6837 137.922 55.7702 137.337 55.7328Z" fill="black"/>
<path d="M82.3647 60.6061C82.704 61.3456 84.8495 61.1444 87.7758 60.2319L86.1112 56.7881C83.5508 58.3962 82.0281 59.8728 82.3647 60.6061Z" fill="black"/>
<path d="M81.9714 60.8366C82.3178 61.5362 83.342 61.5428 84.0024 61.502C85.3293 61.3806 86.637 61.1021 87.8982 60.6722C88.0332 60.632 88.1426 60.5327 88.1956 60.4023C88.2487 60.2718 88.2397 60.1244 88.1712 60.0014L86.5065 56.5575C86.3779 56.3415 86.0998 56.2685 85.8817 56.3937C84.7754 57.0913 83.6472 57.8463 82.738 58.796C82.2253 59.3315 81.6436 60.0631 81.9713 60.8366C82.0996 61.0531 82.3782 61.1262 82.5962 61.0005C82.8084 60.869 82.8804 60.5943 82.76 60.3756C82.8075 60.4879 82.78 60.4178 82.7738 60.3892C82.7618 60.3343 82.7772 60.4933 82.7765 60.4077C82.7762 60.3816 82.7775 60.3557 82.7785 60.3296C82.7806 60.2741 82.7504 60.4376 82.7803 60.336C82.7898 60.3039 82.8282 60.1818 82.8154 60.2141C82.7933 60.2699 82.8379 60.1671 82.8434 60.1569C82.8607 60.1244 82.8778 60.0919 82.8963 60.06C83.0828 59.7608 83.3103 59.4891 83.572 59.2528C84.4216 58.4688 85.3501 57.775 86.3427 57.1824L85.7178 57.0186L87.3825 60.4624L87.6554 59.7916C86.535 60.1726 85.3776 60.4346 84.2024 60.5735C83.9936 60.5932 83.7839 60.602 83.5742 60.6C83.4837 60.5986 83.3934 60.5938 83.303 60.587C83.2552 60.5866 83.2075 60.5803 83.1612 60.5682C83.0913 60.5542 83.0234 60.5368 82.9549 60.5172C82.924 60.5082 82.8936 60.4975 82.8639 60.4849C82.9566 60.5238 82.8792 60.4887 82.86 60.4777C82.8359 60.4639 82.8125 60.4495 82.7893 60.4341C82.8307 60.4615 82.8481 60.4669 82.7979 60.4364C82.7493 60.407 82.7682 60.407 82.8026 60.4505C82.7859 60.4271 82.7716 60.402 82.76 60.3757C82.4993 59.8488 81.7112 60.311 81.9714 60.8366Z" fill="black"/>
<path d="M97.968 51.7095L95.0056 45.5115L82.9404 48.4757L84.6149 54.8692L86.1372 60.8061C87.6539 60.3333 91.0199 59.0953 92.8137 58.272C95.4734 57.0513 97.7698 55.7146 99.3239 54.5463L97.968 51.7095Z" fill="#FC7F3A"/>
<path d="M98.3608 51.4789L95.7695 46.0574L95.3985 45.2809C95.2928 45.1035 95.0822 45.0179 94.8827 45.071L90.7931 46.0758L84.3087 47.6689L82.8174 48.0353C82.5766 48.1054 82.4353 48.3543 82.4984 48.5971L83.9113 53.9916C84.2906 55.4398 84.6601 56.8904 85.0319 58.3405L85.6952 60.9274C85.7645 61.1689 86.0141 61.3106 86.257 61.2464C87.9024 60.7313 89.5228 60.1194 91.123 59.4792C93.0622 58.7077 94.944 57.7989 96.754 56.7598C97.7223 56.2097 98.6569 55.6022 99.5527 54.9406C99.7628 54.8076 99.8344 54.5348 99.7166 54.3158L98.3607 51.479C98.1073 50.9489 97.3196 51.4117 97.572 51.94L98.9279 54.7768L99.0917 54.1519C95.9141 56.531 92.2179 58.1466 88.5107 59.5038C87.6842 59.8063 86.8543 60.1028 86.0143 60.3657L86.576 60.6847L85.198 55.3104C84.8139 53.8123 84.4172 52.3173 84.0254 50.8213L83.3793 48.3543L83.0603 48.9161L87.1499 47.9114L93.6343 46.3182L95.1255 45.9519L94.6097 45.742L97.2009 51.1636L97.572 51.94C97.8255 52.4701 98.6133 52.0072 98.3608 51.4789Z" fill="black"/>
<path d="M84.9176 56.2392L83.4934 51.2039L84.5154 41.3534C84.5154 41.3534 86.2601 37.737 82.6865 35.3724C86.4256 29.6471 92.3356 31.2338 93.1405 36.7603C93.4689 39.0148 93.8413 40.8944 94.1673 42.3298C94.586 44.1748 95.2109 45.9669 96.0302 47.6722L97.234 50.1775" fill="#FC7F3A"/>
<path d="M85.3588 56.1179L84.5092 53.1139L84.0264 51.4068C84.0027 51.298 83.9723 51.1907 83.9356 51.0856C84.0716 51.0848 83.9206 51.2643 83.9542 51.1736C83.9625 51.1353 83.9666 51.0962 83.9663 51.0571L84.7064 43.9238L84.973 41.3533L84.9107 41.5838C85.6308 40.0501 85.5592 38.2618 84.7186 36.7907C84.2584 36.0619 83.6437 35.443 82.918 34.978L83.0818 35.6028C84.1078 34.0451 85.5825 32.6295 87.4805 32.2902C88.9143 32.0497 90.3698 32.5737 91.3213 33.6729C92.7136 35.2312 92.7541 37.4129 93.1036 39.3644C93.5423 41.8138 94.0756 44.2413 95.0329 46.5474C95.5774 47.8588 96.2258 49.1286 96.8406 50.408C97.095 50.9376 97.8829 50.4749 97.6292 49.947C97.1221 48.8917 96.5926 47.8441 96.1165 46.7742C95.0504 44.379 94.4753 41.8335 94.01 39.2646C93.8848 38.5733 93.7693 37.8803 93.6633 37.1858C93.595 36.6372 93.4892 36.094 93.3468 35.5599C93.0916 34.6741 92.6556 33.8507 92.0664 33.1418C90.9994 31.864 89.3729 31.1916 87.7151 31.3429C85.3737 31.5859 83.5405 33.2478 82.293 35.142C82.1704 35.3604 82.2428 35.6366 82.4568 35.7668C83.4816 36.4551 84.2513 37.4387 84.4441 38.678C84.474 38.8938 84.4878 39.1114 84.4852 39.3292C84.4844 39.4405 84.4798 39.5516 84.4715 39.6627C84.4679 39.7118 84.4635 39.7609 84.4585 39.8099C84.4562 39.832 84.4392 39.9693 84.4487 39.9006C84.4027 40.2283 84.326 40.551 84.2195 40.8644C84.1885 40.956 84.1511 41.0449 84.1181 41.1358C84.1954 40.9233 84.0705 41.2779 84.0677 41.2928C84.0467 41.3972 84.0435 41.5079 84.0325 41.6134L83.8456 43.4155L83.2711 48.9524L83.0732 50.8599C83.0405 51.1303 83.0665 51.4045 83.1496 51.6639L84.443 56.2368L84.478 56.3607C84.6377 56.9254 85.5192 56.6854 85.3587 56.1179L85.3588 56.1179Z" fill="black"/>
<path d="M89.9715 38.118C90.1632 36.2071 88.6959 32.2036 87.8204 29.135C86.9448 26.0665 89.043 24.7133 90.6511 27.5452C92.6551 31.1995 93.332 36.8314 93.527 39.0164C93.5862 39.6785 93.6937 40.3355 93.8486 40.982L94.3486 43.0719" fill="#FC7F3A"/>
<path d="M90.4287 38.118C90.5183 37.1421 90.2862 36.1271 90.0613 35.1837C89.7678 33.9521 89.3931 32.7406 89.0208 31.5311C88.8303 30.9119 88.6382 30.2932 88.4535 29.6723C88.2562 29.1138 88.129 28.5329 88.0747 27.943C88.037 27.5312 88.1195 27.1172 88.3121 26.7512C88.4136 26.5416 88.6388 26.4214 88.8694 26.4539C88.8094 26.4488 88.9926 26.4829 89.0297 26.4952C89.0941 26.5178 89.1561 26.5471 89.2145 26.5825C89.4076 26.6999 89.5811 26.8469 89.7285 27.0183C90.0955 27.4619 90.3957 27.9568 90.6198 28.4872C91.1197 29.5747 91.5236 30.7038 91.8269 31.8616C92.3747 33.9056 92.7599 35.9898 92.9788 38.0946C93.067 39.1528 93.2218 40.2044 93.4422 41.2432L93.9086 43.1932C94.0453 43.7646 94.9263 43.5226 94.7894 42.9504L94.3466 41.0994C94.1422 40.1801 93.9982 39.2484 93.9154 38.3104C93.6994 36.1077 93.3105 33.9255 92.7525 31.7838C92.4304 30.5464 92.0038 29.3386 91.4773 28.1734C91.0198 27.1815 90.3924 25.9727 89.2725 25.6144C88.362 25.3232 87.5926 25.923 87.3074 26.7652C86.9178 27.9158 87.3405 29.1471 87.6741 30.2529C88.1113 31.7023 88.5808 33.1427 88.9721 34.6055C89.2718 35.7261 89.6231 36.9453 89.5153 38.1179C89.5172 38.3693 89.7206 38.5727 89.972 38.5746C90.2221 38.5694 90.4236 38.3679 90.4287 38.1179L90.4287 38.118Z" fill="black"/>
<path d="M91.5961 39.0883C91.5961 39.0883 90.3366 31.4129 87.318 27.1023C85.4106 24.4627 83.4726 26.0367 84.6776 28.9914C85.8827 31.946 87.6154 36.8151 87.6333 38.7355" fill="#FC7F3A"/>
<path d="M92.0373 38.9669C91.8628 37.9068 91.6197 36.8548 91.3567 35.8138C90.8302 33.635 90.1006 31.5104 89.1776 29.4678C88.7117 28.3792 88.1031 27.3574 87.3677 26.4293C86.745 25.6958 85.6475 24.9189 84.6759 25.5032C83.7439 26.0637 83.7563 27.3797 83.9754 28.3046C84.1404 28.8818 84.346 29.4466 84.5906 29.9948C84.8167 30.5705 85.0361 31.1489 85.249 31.7297C85.7276 33.0355 86.1788 34.3533 86.5629 35.6903C86.8482 36.6834 87.1617 37.7372 87.1773 38.7356C87.1863 39.3228 88.0998 39.3245 88.0907 38.7356C88.044 37.8686 87.8943 37.0101 87.6447 36.1785C87.3506 35.0534 86.9928 33.9449 86.6136 32.846C86.2303 31.7352 85.8218 30.6334 85.3881 29.5407C85.0465 28.6777 84.4595 27.4971 84.8929 26.5938C84.9118 26.5552 84.9328 26.5175 84.9559 26.4811C84.9629 26.4698 85.0235 26.3853 84.9853 26.4334C85.0093 26.4031 85.1368 26.2895 85.0988 26.3167C85.1941 26.2411 85.3145 26.2045 85.4358 26.2144C85.8093 26.2346 86.2168 26.5394 86.51 26.841C87.275 27.6283 87.8023 28.7013 88.2726 29.6822C89.1647 31.6109 89.8704 33.6204 90.3801 35.6833C90.6838 36.846 90.9612 38.0232 91.1565 39.2097C91.2251 39.4517 91.4753 39.5937 91.7182 39.5287C91.9576 39.4568 92.0982 39.2093 92.0372 38.9669H92.0373Z" fill="black"/>
<path d="M89.3642 39.6954C89.3642 39.6954 87.715 32.0942 84.4804 27.9431C82.4409 25.4042 80.5857 27.075 81.9398 29.9645C83.2939 32.8539 85.2726 37.6282 85.3884 39.5452" fill="#FC7F3A"/>
<path d="M89.8051 39.574C89.5765 38.5224 89.2795 37.4824 88.9631 36.4545C88.3302 34.3147 87.4996 32.2384 86.4819 30.2526C85.965 29.1954 85.3138 28.2093 84.5447 27.3187C83.8931 26.6138 82.7823 25.8612 81.8178 26.4438C80.8949 27.0013 80.9278 28.3012 81.173 29.2087C81.3709 29.8208 81.6179 30.416 81.9117 30.9883C82.1548 31.5239 82.3921 32.0621 82.6234 32.6029C83.1769 33.8963 83.7003 35.2053 84.1573 36.5362C84.4859 37.4933 84.8699 38.6115 84.9323 39.5452C84.9712 40.1286 85.8847 40.133 85.8456 39.5452C85.7573 38.6815 85.5661 37.8315 85.2761 37.0132C84.9249 35.9046 84.5111 34.8158 84.0764 33.7376C83.6315 32.6344 83.1625 31.5414 82.6692 30.4584C82.2843 29.6127 81.624 28.4709 82.0468 27.5196C82.0967 27.4221 82.1623 27.3335 82.2409 27.2573C82.3372 27.1807 82.4588 27.1433 82.5815 27.1525C82.9445 27.1649 83.3465 27.4329 83.6432 27.7075C84.4481 28.4524 85.027 29.4859 85.5469 30.4402C86.5406 32.3218 87.3514 34.2945 87.968 36.331C88.3311 37.4778 88.6686 38.6406 88.9244 39.8169C89.0492 40.391 89.9299 40.148 89.8051 39.574L89.8051 39.574Z" fill="black"/>
<path d="M87.4535 40.3108C86.6745 38.5534 85.7495 36.8644 84.6883 35.2616C80.9437 29.3238 73.171 36.0265 73.171 36.0265C71.0421 38.0556 71.8701 40.7574 74.7554 39.2543C77.4076 37.8726 81.2073 34.1159 82.5031 39.8441C83.3023 43.3768 79.3817 44.9654 77.0599 40.3288C76.7306 39.6591 76.0026 39.2829 75.2658 39.4017L75.2267 39.4082C74.4206 39.5432 73.8267 40.2359 73.8163 41.0531C73.7814 43.3766 77.1729 48.5753 82.9397 49.8457L85.2231 57.1526" fill="#FC7F3A"/>
<path d="M87.8937 40.1893C87.6418 39.5729 87.3436 38.9744 87.0369 38.3839C86.6905 37.7171 86.3247 37.0609 85.9393 36.4152C85.5315 35.6808 85.0711 34.9767 84.5617 34.3086C83.8548 33.4182 82.8751 32.7845 81.7731 32.5049C80.7331 32.2807 79.6546 32.3087 78.6277 32.5867C76.8563 33.0235 75.1992 33.948 73.7327 35.0157C73.4259 35.2294 73.1305 35.459 72.8478 35.7035C72.0052 36.4645 71.2562 37.7875 71.5969 38.955C71.9425 40.1393 73.2235 40.3239 74.2532 39.9672C75.2772 39.6124 76.1788 38.9358 77.096 38.3749C77.8994 37.8835 78.7063 37.3904 79.6334 37.2409C79.9547 37.1931 80.283 37.2308 80.5851 37.3502C80.9554 37.5475 81.2562 37.8538 81.4466 38.2277C81.7712 38.8307 81.9928 39.4837 82.102 40.1598C82.1938 40.6238 82.1698 41.1032 82.0323 41.5557C81.9764 41.7409 81.891 41.9159 81.7794 42.0739C81.741 42.1378 81.6941 42.1962 81.6398 42.2474C81.6095 42.2798 81.5782 42.3113 81.5458 42.3417C81.5269 42.3594 81.4171 42.4528 81.4702 42.4117C81.4008 42.4645 81.3277 42.5122 81.2513 42.5542C81.1869 42.5967 81.1165 42.629 81.0423 42.6501C80.877 42.7124 80.7015 42.7434 80.5249 42.7414C80.1014 42.7331 79.6887 42.6063 79.3335 42.3755C78.83 42.0512 78.398 41.6274 78.0641 41.1301C77.6201 40.4969 77.3769 39.7241 76.7134 39.2752C76.0884 38.872 75.3013 38.8138 74.6238 39.1206C73.9407 39.4308 73.4688 40.0748 73.3788 40.8197C73.3413 41.2263 73.3774 41.6363 73.4855 42.03C73.7405 42.9713 74.1555 43.8616 74.7123 44.6621C76.1803 46.8603 78.2605 48.5798 80.6955 49.6081C81.3816 49.8964 82.0918 50.1234 82.818 50.2862L82.499 49.9672L84.4981 56.3643L84.7824 57.2741C84.9571 57.8333 85.8391 57.5946 85.6631 57.0313L83.664 50.6342L83.3797 49.7244C83.3366 49.5695 83.2156 49.4485 83.0607 49.4054C80.452 48.8036 78.1057 47.3793 76.368 45.3427C75.6886 44.5668 75.1261 43.6958 74.6984 42.7573C74.5431 42.4051 74.4223 42.0387 74.3377 41.6632C74.3206 41.5837 74.3061 41.5039 74.2934 41.4238C74.2822 41.3534 74.3019 41.4993 74.2939 41.43C74.2917 41.4112 74.2891 41.3924 74.2876 41.3736C74.284 41.3308 74.2797 41.2882 74.2772 41.2453C74.255 41.0116 74.2913 40.776 74.383 40.5598C74.6288 40.046 75.1854 39.7574 75.7469 39.8524C76.5134 39.9869 76.7227 40.7342 77.089 41.3115C77.7192 42.3047 78.6264 43.2668 79.8059 43.5648C80.6779 43.804 81.6112 43.5603 82.2549 42.9254C82.9451 42.2183 83.1507 41.1829 83.0292 40.2285C82.8832 39.0817 82.4592 37.6791 81.5449 36.9006C80.8315 36.293 79.924 36.2 79.0398 36.4363C78.0976 36.6882 77.2359 37.2123 76.4145 37.7223C75.5648 38.2501 74.6793 38.9445 73.6924 39.1801C73.4824 39.2338 73.2639 39.2464 73.0492 39.2172C73.0005 39.2071 72.9524 39.1943 72.9051 39.1789C72.8224 39.1521 72.876 39.1736 72.8194 39.1422C72.7519 39.1138 72.6922 39.0696 72.6454 39.0133C72.5945 38.9627 72.6163 38.9861 72.6049 38.9703C72.5749 38.9279 72.548 38.8835 72.5242 38.8373C72.4877 38.7685 72.5245 38.8539 72.4986 38.779C72.4811 38.7268 72.4663 38.6739 72.4541 38.6202C72.4258 38.4414 72.427 38.2592 72.4576 38.0807C72.6263 37.3458 73.0435 36.6917 73.6388 36.2289C73.7093 36.1717 73.7807 36.1158 73.852 36.0597C73.9143 36.0106 73.7762 36.1174 73.8426 36.0668C73.8653 36.0497 73.8876 36.0324 73.9101 36.0153C73.9679 35.9716 74.0259 35.9281 74.0841 35.8849C74.3561 35.6837 74.6335 35.4901 74.9164 35.3043C75.66 34.8101 76.4439 34.3793 77.2597 34.0165C78.9526 33.2735 81.0225 32.8534 82.6916 33.8589C83.8626 34.5642 84.5258 35.8186 85.2002 36.9597C85.806 37.9723 86.3592 39.0153 86.8577 40.0848C86.9074 40.193 86.9557 40.3017 87.0036 40.4106C87.0682 40.5578 86.9834 40.3598 87.013 40.4321C87.0865 40.6702 87.3326 40.8099 87.5748 40.7511C87.8169 40.6827 87.9591 40.4323 87.8938 40.1893L87.8937 40.1893Z" fill="black"/>
<path d="M164.718 97.2033C162.32 107.25 125.139 99.1811 125.139 99.1811L136.214 60.2594C136.599 58.0136 139.774 56.3565 141.885 56.5023L155.969 57.4756C158.263 57.634 159.395 58.6653 160.147 62.0992C160.147 62.0991 164.453 85.9584 164.718 97.2033Z" fill="#3D56A2"/>
<path d="M138.096 56.6971L140.91 56.8916L147.089 57.3186L153.219 57.7422C154.167 57.8077 155.116 57.8623 156.063 57.9393C157.088 58.0227 157.998 58.3683 158.586 59.2169C159.199 60.1021 159.515 61.2184 159.715 62.2643C159.893 63.1923 160.043 64.1266 160.203 65.0579C160.553 67.1043 160.892 69.1527 161.218 71.203C161.646 73.885 162.051 76.5704 162.435 79.2591C162.84 82.1154 163.215 84.9761 163.534 87.8432C163.822 90.4247 164.073 93.0134 164.202 95.6083C164.228 96.1397 164.248 96.6713 164.261 97.2032L164.488 96.8089C161.918 97.9253 159.125 98.5515 156.366 98.9999C153.251 99.4831 150.109 99.7768 146.959 99.8793C143.964 99.998 140.966 99.9957 137.971 99.908C135.672 99.8406 133.376 99.7225 131.082 99.5535C130.368 99.5008 129.655 99.4425 128.943 99.3785C128.617 99.3489 128.277 99.2828 127.949 99.2825C127.935 99.2818 127.922 99.2803 127.908 99.2781L128.364 99.7348L128.689 92.683L128.905 87.9743L128.975 86.4606C128.981 86.3292 128.989 86.1978 128.993 86.0664C128.998 85.8907 129.015 86.0655 128.983 86.0844C129.051 86.0437 129.104 85.6923 129.126 85.6203L129.468 84.5123L130.609 80.8108L133.585 71.1549C134.203 69.1528 134.862 67.1582 135.439 65.1436C135.448 65.1117 135.458 65.08 135.468 65.0483C135.641 64.4853 134.76 64.2445 134.587 64.8055L133.032 69.8495L130.044 79.5427L128.141 85.7178C128.006 86.1547 128.052 86.6672 128.031 87.1182L127.832 91.4508L127.458 99.5787L127.451 99.7349C127.457 99.9848 127.658 100.186 127.908 100.192C128.764 100.284 129.624 100.355 130.483 100.421C132.677 100.593 134.874 100.717 137.075 100.793C140.043 100.897 143.015 100.919 145.984 100.827C149.189 100.744 152.387 100.482 155.562 100.041C158.432 99.6276 161.313 99.035 164.022 97.9806C164.333 97.8594 164.642 97.7309 164.949 97.5976C165.09 97.5175 165.177 97.3662 165.175 97.2033C165.115 94.7275 164.904 92.2555 164.655 89.7924C164.362 86.8935 164 84.0019 163.607 81.1149C163.224 78.2952 162.811 75.4797 162.369 72.6685C162.018 70.4227 161.653 68.1792 161.275 65.9379C161.067 64.7109 160.855 63.4847 160.638 62.2593C160.328 60.5171 159.704 58.37 157.995 57.5122C156.92 56.9729 155.641 56.9962 154.463 56.9149L148.852 56.5272L142.302 56.0746L138.293 55.7974L138.096 55.7838C137.509 55.7432 137.512 56.6568 138.096 56.6971L138.096 56.6971Z" fill="black"/>
<path d="M125.578 86.8002L116.973 87.3038C111.145 87.6449 106.038 91.4578 104.218 97.005C103.581 98.9479 103.441 100.875 104.334 102.425C113.194 104.481 125.535 100.368 125.535 100.368" fill="#FC7F3A"/>
<path d="M125.578 86.3435L118.479 86.759C117.34 86.7949 116.205 86.9011 115.079 87.0769C112.888 87.4809 110.817 88.3743 109.019 89.6906C107.217 91.0058 105.74 92.716 104.701 94.6902C103.538 96.9245 102.645 99.8116 103.728 102.239C103.872 102.563 103.996 102.817 104.366 102.9C104.651 102.964 104.937 103.021 105.225 103.071C105.796 103.172 106.372 103.25 106.95 103.31C108.104 103.426 109.264 103.474 110.425 103.454C112.717 103.406 115.003 103.188 117.264 102.802C120.061 102.356 122.822 101.704 125.523 100.851C125.568 100.837 125.612 100.823 125.656 100.808C126.211 100.623 125.973 99.741 125.413 99.9274C123.897 100.432 122.336 100.825 120.779 101.181C117.425 101.986 113.997 102.44 110.55 102.538C108.503 102.602 106.456 102.416 104.455 101.984L104.728 102.194C103.958 100.825 104.076 99.2059 104.474 97.739C104.826 96.4572 105.37 95.2358 106.086 94.1158C107.441 92.0048 109.344 90.3021 111.592 89.1902C113.363 88.3292 115.291 87.8371 117.258 87.7438L121.641 87.4873L125.578 87.2568C126.162 87.2227 126.166 86.3091 125.578 86.3435H125.578Z" fill="black"/>
<path d="M213.241 103.938L183.201 149.877L43.8672 102.527L199.208 104.193L213.241 103.938Z" fill="#FFC41F"/>
<path d="M212.847 103.708L202.698 119.229L186.52 143.968L182.807 149.647L183.323 149.437L179.587 148.167L169.422 144.713L154.457 139.627L136.208 133.426L116.14 126.606L95.8816 119.721L77.0657 113.327L61.1017 107.902L49.6644 104.015L46.1 102.804C45.4981 102.6 44.8487 102.28 44.2217 102.166C44.1424 102.145 44.0647 102.119 43.9892 102.087L43.8677 102.984L48.8076 103.037L61.9984 103.178L81.3608 103.386L104.392 103.633L129.147 103.898L153.051 104.155L174.17 104.381L189.978 104.551L198.431 104.641C202.425 104.684 206.427 104.519 210.42 104.446L213.242 104.395C213.829 104.384 213.831 103.471 213.242 103.482C208.527 103.567 203.806 103.741 199.09 103.735C197.003 103.733 194.914 103.69 192.827 103.668L178.513 103.515L158.583 103.301L135.024 103.048L110.396 102.784L86.6212 102.529L66.2628 102.311L51.3018 102.15C48.9292 102.125 46.5539 102.063 44.1812 102.074C44.0767 102.074 43.9722 102.072 43.8678 102.071C43.3357 102.065 43.2703 102.806 43.7464 102.968L47.4821 104.237L57.647 107.692L72.6122 112.777L90.8611 118.979L110.929 125.798L131.187 132.683L150.003 139.077L165.967 144.502L177.405 148.389C179.215 149.004 181.018 149.681 182.847 150.239C182.925 150.262 183.002 150.291 183.08 150.318C183.279 150.37 183.489 150.284 183.596 150.108L193.745 134.586L209.923 109.847L213.636 104.169C213.959 103.675 213.168 103.217 212.847 103.708Z" fill="black"/>
<path d="M188.112 142.759C187.139 138.45 183.906 135.111 179.792 134.167L52.3555 104.915L204.984 116.58L188.112 142.759Z" fill="black" stroke="#1C1F34" stroke-width="1.3457"/>
<path d="M43.8672 102.527C45.4011 101.873 219.772 94.5991 219.772 94.5991L258.792 142.92L43.8672 102.527Z" fill="#FFC41F"/>
<path d="M43.9885 102.968C44.1421 102.907 44.0669 102.949 44.1077 102.943C44.2745 102.92 44.4434 102.909 44.6111 102.895C45.2123 102.843 45.815 102.805 46.4172 102.766C48.5679 102.629 50.7202 102.515 52.8722 102.402C60.3137 102.012 67.7574 101.665 75.201 101.32C85.4366 100.846 95.6728 100.384 105.91 99.9345C117.356 99.4279 128.803 98.9279 140.249 98.4345C151.306 97.9567 162.364 97.4826 173.421 97.0123C182.489 96.6261 191.556 96.242 200.624 95.8598C206.103 95.6289 211.582 95.3988 217.06 95.1693L218.949 95.0903C219.134 95.0826 219.577 95.1503 219.744 95.0572C219.509 95.1885 219.464 94.7391 219.537 95.031C219.586 95.2277 219.93 95.5174 220.054 95.6716L222.352 98.5172L241.247 121.916L257.58 142.143L258.469 143.243L258.913 142.48L253.174 141.401L237.552 138.465L214.357 134.106L186.146 128.804L155.25 122.997L124.065 117.136L94.9862 111.671L70.3379 107.039L52.688 103.722C49.9059 103.199 47.1264 102.659 44.3412 102.153C44.2236 102.132 44.1059 102.109 43.9885 102.087C43.414 101.979 43.1678 102.859 43.7457 102.968L49.4853 104.046L65.1069 106.982L88.3022 111.342L116.513 116.643L147.408 122.45L178.594 128.311L207.673 133.776L232.321 138.408L249.971 141.725C252.753 142.248 255.532 142.788 258.318 143.294C258.435 143.316 258.553 143.338 258.67 143.36C258.868 143.408 259.074 143.32 259.177 143.144C259.279 142.968 259.254 142.746 259.115 142.597L246.863 127.425L226.344 102.015L220.594 94.8947C220.029 94.1949 219.826 94.1403 218.966 94.1762C214.651 94.3565 210.337 94.5375 206.022 94.7192C197.656 95.071 189.29 95.4246 180.923 95.7799C170.14 96.2377 159.357 96.6984 148.574 97.1622C137.04 97.6585 125.505 98.1597 113.971 98.6656C103.27 99.136 92.5682 99.6142 81.8671 100.1C73.5929 100.478 65.3193 100.87 57.0462 101.275C52.8699 101.485 48.6695 101.609 44.5039 101.991C44.248 101.989 43.9931 102.022 43.7457 102.087C43.205 102.3 43.4405 103.183 43.9885 102.968Z" fill="black"/>
<path d="M154.701 57.3878L163.619 57.9497C166.722 58.1452 169.303 60.4099 169.899 63.4614L175.78 86.7272C176.381 89.1016 175.879 91.6201 174.415 93.5834C172.951 95.5467 170.68 96.7458 168.233 96.8478L119.983 98.8585V87.2049L158.444 82.1178L155.754 65.8761" fill="#3D56A2"/>
<path d="M154.701 57.8445L159.216 58.129C160.736 58.2248 162.262 58.2874 163.779 58.4184C165.291 58.5602 166.704 59.2361 167.763 60.3248C168.624 61.2382 169.213 62.3736 169.464 63.6034C169.661 64.4427 169.887 65.2764 170.098 66.1122L171.465 71.5208L173.099 77.986L174.535 83.6645L175.307 86.7178C175.902 88.9851 175.445 91.3998 174.064 93.2937C172.669 95.1655 170.502 96.3052 168.169 96.3938C167.608 96.4178 167.046 96.4412 166.484 96.4639L162.855 96.6151L157.73 96.8287L151.622 97.0833L144.983 97.3599L138.284 97.6391L131.993 97.9013L126.561 98.1275L122.506 98.2966L120.271 98.3897L119.983 98.4017L120.44 98.8584V87.2049L119.983 87.6616L121.012 87.5255L123.812 87.1551L127.954 86.6074L133.007 85.939L138.513 85.2108L144.099 84.4719L149.309 83.7828L153.712 83.2004L156.879 82.7815C157.379 82.7154 157.879 82.6492 158.379 82.5831L158.444 82.5746C158.585 82.5704 158.716 82.5027 158.802 82.3905C158.887 82.2783 158.917 82.1335 158.884 81.9965L157.971 76.482L156.527 67.7618L156.195 65.7547C156.126 65.5127 155.876 65.3707 155.633 65.4357C155.393 65.5076 155.253 65.7551 155.314 65.9975L156.227 71.512L157.671 80.2322L158.003 82.2393L158.444 81.6612L157.415 81.7973L154.614 82.1676L150.473 82.7154L145.42 83.3837L139.914 84.112L134.328 84.8509L129.118 85.54L124.715 86.1224L121.548 86.5412C121.048 86.6074 120.548 86.6736 120.047 86.7397L119.983 86.7482C119.734 86.7546 119.533 86.9554 119.526 87.2049V98.8586C119.529 99.1097 119.732 99.3126 119.983 99.3152L121.193 99.2648L124.481 99.1278L129.388 98.9233L135.389 98.6732L142.048 98.3957L148.854 98.112L155.295 97.8437L160.915 97.6094L165.248 97.4289L167.781 97.3233C169.191 97.3032 170.579 96.9717 171.847 96.3525C174.614 94.899 176.386 92.0695 176.486 88.9452C176.518 87.6913 176.198 86.5154 175.895 85.3171L174.7 80.5902L173.086 74.2064L171.522 68.0197L170.5 63.9777C170.447 63.7656 170.389 63.5541 170.339 63.3411C170.022 61.8379 169.253 60.4675 168.135 59.4135C166.944 58.3233 165.427 57.6542 163.819 57.5087C163.307 57.4614 162.791 57.4408 162.278 57.4086L156.063 57.017L154.701 56.9311C154.114 56.8942 154.116 57.8077 154.701 57.8445L154.701 57.8445Z" fill="black"/>
<path d="M107.706 99.5182C107.85 98.9017 108.04 98.2966 108.273 97.708C108.697 96.5235 109.335 95.4272 110.155 94.4738C110.63 93.9264 111.224 93.4953 111.891 93.2137C112.129 93.1407 112.269 92.8942 112.21 92.6519C112.141 92.4099 111.891 92.2678 111.648 92.3329C109.115 93.3202 107.756 96.107 107.017 98.5624C106.947 98.7979 106.878 99.0353 106.825 99.2754C106.698 99.8482 107.578 100.093 107.706 99.5182L107.706 99.5182Z" fill="black"/>
<path d="M111.994 99.2385C111.987 99.1443 111.986 99.0499 111.99 98.9557C111.993 98.8476 112 98.7396 112.011 98.632C112.014 98.6012 112.018 98.5705 112.021 98.5397C112.032 98.4338 112.007 98.6179 112.021 98.5355C112.033 98.4658 112.043 98.3958 112.057 98.3263C112.087 98.1658 112.126 98.0069 112.174 97.8504C112.198 97.7683 112.226 97.6868 112.255 97.6061C112.271 97.5644 112.287 97.523 112.303 97.4817C112.306 97.4751 112.331 97.4157 112.31 97.4646C112.286 97.5208 112.329 97.4216 112.334 97.4113C112.415 97.2368 112.507 97.068 112.611 96.9061C112.638 96.8639 112.666 96.8222 112.695 96.7812C112.706 96.7656 112.784 96.6605 112.742 96.7148C112.812 96.625 112.887 96.5392 112.965 96.4567C113.327 96.0728 113.771 95.7755 114.264 95.5868C114.502 95.5136 114.642 95.2672 114.583 95.025C114.514 94.7829 114.264 94.6408 114.021 94.706C113.014 95.0761 112.174 95.7956 111.653 96.7335C111.315 97.3809 111.12 98.0936 111.082 98.823C111.072 98.9613 111.072 99.1001 111.08 99.2384C111.086 99.488 111.287 99.689 111.537 99.6951C111.788 99.6931 111.992 99.4898 111.994 99.2384L111.994 99.2385Z" fill="black"/>
<path d="M141.271 56.5413L140.833 59.2502C140.449 61.6287 140.641 64.0645 141.394 66.3533L143.11 71.572L148.194 66.8867C150.04 65.1852 151.432 63.049 152.242 60.6726L153.381 57.3323L141.271 56.5413Z" fill="white"/>
<path d="M140.831 56.4198L140.451 58.7759C140.184 60.2891 140.127 61.8319 140.283 63.3606C140.529 65.5135 141.306 67.5443 141.979 69.5905L142.671 71.6934C142.717 71.8478 142.84 71.9672 142.996 72.0083C143.152 72.0494 143.318 72.0065 143.434 71.8949L147.8 67.8715C148.678 67.0986 149.49 66.2538 150.227 65.3458C151.333 63.905 152.189 62.2894 152.761 60.566L153.822 57.4537C153.858 57.3165 153.829 57.1704 153.743 57.0575C153.657 56.9447 153.524 56.8776 153.382 56.8757L149.297 56.6087L142.778 56.183L141.272 56.0845C140.685 56.0462 140.687 56.9597 141.272 56.9979L145.356 57.2649L151.875 57.6907L153.382 57.7891L152.942 57.211L151.995 59.9887C151.506 61.5081 150.8 62.9489 149.899 64.2663C149.15 65.28 148.297 66.2111 147.351 67.0439L144.754 69.4371L142.788 71.2493L143.551 71.4508L142.084 66.9877C141.751 66.0376 141.488 65.0642 141.299 64.0753C141.032 62.4676 141.032 60.8269 141.299 59.2192L141.712 56.6626C141.771 56.4204 141.631 56.174 141.393 56.1008C141.15 56.0359 140.9 56.1779 140.831 56.4198Z" fill="black"/>
<path d="M142.939 71.572L140.024 84.4013L142.939 71.572Z" fill="#458DC9"/>
<path d="M142.499 71.4506L141.516 75.7768L139.947 82.682L139.584 84.2799C139.454 84.8523 140.335 85.0966 140.465 84.5227L141.448 80.1965L143.016 73.2913L143.379 71.6934C143.509 71.121 142.629 70.8767 142.499 71.4506Z" fill="black"/>
<path d="M141.062 57.8358L142.307 51.7946L175.691 50.5289L175.53 55.741C175.49 57.0621 174.909 58.3087 173.923 59.1895C172.938 60.0703 171.634 60.5082 170.316 60.4008L146.262 58.4399" fill="white"/>
<path d="M175.234 50.529L175.126 54.0456C175.11 54.585 175.093 55.1245 175.076 55.6639C175.057 56.5006 174.803 57.3151 174.345 58.0152C173.434 59.3573 171.863 60.0949 170.248 59.9386C169.686 59.8937 169.123 59.8478 168.561 59.801L160.723 59.1621L151.444 58.4056L148.049 58.1289C147.481 58.0825 146.908 58.012 146.338 57.9894C146.313 57.9884 146.288 57.9853 146.262 57.9832C145.677 57.9354 145.68 58.8491 146.262 58.8966L150.618 59.2516L159.834 60.0029L168.103 60.6771L170.132 60.8425C171.603 60.9864 173.069 60.5236 174.191 59.561C175.023 58.8347 175.604 57.865 175.853 56.7894C175.96 56.2256 176.012 55.6528 176.008 55.0789L176.138 50.8499L176.148 50.529C176.166 49.9411 175.252 49.9416 175.234 50.529L175.234 50.529Z" fill="black"/>
<path d="M141.502 57.9572L142.592 52.6615L142.746 51.916L142.306 52.2513L144.736 52.1566L150.542 51.9304L157.593 51.6557L163.665 51.4191C164.652 51.3806 165.645 51.3708 166.63 51.3037C166.644 51.3028 166.657 51.3026 166.671 51.3021C167.257 51.2793 167.26 50.3658 166.671 50.3887L164.241 50.4834L158.435 50.7096L151.384 50.9844L145.311 51.221C144.325 51.2594 143.332 51.2692 142.347 51.3365C142.333 51.3374 142.319 51.3375 142.306 51.3381C142.101 51.3409 141.922 51.4769 141.865 51.6733L140.775 56.969L140.621 57.7145C140.503 58.2883 141.383 58.5335 141.502 57.9574V57.9572Z" fill="black"/>
<path d="M182.81 56.8577L175.488 56.2405L175.69 50.5289C175.69 50.5289 181.442 56.3851 182.81 56.8577Z" fill="black" stroke="#1C1F34" stroke-width="1.3457"/>
<circle cx="145.312" cy="75.5274" r="0.791104" fill="black" stroke="#1C1F34" stroke-width="1.3457"/>
<circle cx="143.73" cy="81.698" r="0.791104" fill="black" stroke="#1C1F34" stroke-width="1.3457"/>
<path d="M84.3053 65.3842C85.5651 65.3385 86.8189 65.1887 88.0541 64.9365C90.9162 64.4124 93.6877 63.478 96.2828 62.1621C98.0971 61.2361 99.7931 60.0947 101.334 58.7627C101.779 58.3772 101.131 57.7336 100.688 58.1168C98.1442 60.2795 95.2029 61.9255 92.0289 62.9626C90.7782 63.382 89.5022 63.7216 88.2084 63.9792C87.3248 64.1593 86.4326 64.2949 85.5353 64.3853C85.1271 64.426 84.7158 64.4636 84.3053 64.4708C83.7182 64.4812 83.7163 65.3946 84.3053 65.3842H84.3053Z" fill="black"/>
<path d="M125.198 86.7602L125.219 90.8366L125.251 97.3679L125.259 98.8629C125.261 99.4505 126.175 99.4517 126.172 98.8629L126.152 94.7865L126.119 88.2552L126.112 86.7602C126.109 86.1727 125.195 86.1714 125.198 86.7602Z" fill="black"/>
<path d="M238.313 28.5113C237.972 27.6619 237.77 26.7635 237.714 25.8501C237.578 24.0065 238.07 22.1619 239.413 20.8384C239.842 20.4208 240.325 20.0619 240.849 19.771C241.144 19.6043 241.449 19.4549 241.763 19.3237C241.927 19.2545 242.094 19.1905 242.263 19.1302C242.418 19.0746 242.592 19.0552 242.66 18.8884C242.782 18.5895 242.818 18.2343 242.919 17.9243C243.015 17.627 243.128 17.3352 243.256 17.0502C243.505 16.5007 243.81 15.9785 244.166 15.4921C245.445 13.7499 247.468 12.4973 249.641 12.321C251.759 12.1251 253.814 13.107 254.992 14.878C255.155 15.1247 255.303 15.3808 255.435 15.6449C255.5 15.7523 255.639 15.7886 255.748 15.7269C257.805 14.5943 260.205 14.0278 262.488 14.7993C264.317 15.4176 265.803 16.8047 266.768 18.4537C267.283 19.3321 267.65 20.2893 267.855 21.287C267.89 21.4073 268.014 21.4779 268.136 21.4465C269.721 21.0873 271.538 21.0472 272.819 22.2033C273.888 23.168 274.359 24.624 274.651 25.9914C274.833 26.843 274.946 27.7071 275.043 28.572L275.271 28.3436C273.182 28.2431 271.086 28.2425 268.995 28.2283C265.799 28.2064 262.603 28.2075 259.407 28.2145C253.543 28.2272 247.679 28.2595 241.815 28.3113C240.574 28.3214 239.333 28.3322 238.093 28.3437C237.97 28.3483 237.873 28.4492 237.873 28.5721C237.873 28.695 237.97 28.7958 238.093 28.8004C241.592 28.7666 245.092 28.7395 248.592 28.7191C255.051 28.6785 261.51 28.6452 267.969 28.6788C270.402 28.6914 272.841 28.6833 275.271 28.8004C275.397 28.8001 275.499 28.698 275.499 28.5721C275.18 25.7127 274.625 21.7033 271.278 20.9049C270.204 20.6486 269.08 20.7647 268.014 21.0061L268.295 21.1656C267.897 19.2272 266.913 17.4579 265.476 16.0974C263.933 14.6244 261.844 13.8631 259.715 13.9973C258.236 14.1338 256.804 14.5894 255.517 15.3325L255.83 15.4144C254.755 13.2888 252.712 11.8896 250.308 11.8435C247.96 11.7985 245.686 12.9714 244.182 14.7416C243.207 15.9017 242.533 17.2843 242.22 18.767L242.379 18.6076C240.188 19.347 238.254 20.776 237.545 23.0561C237.082 24.5449 237.17 26.1742 237.561 27.6688C237.642 27.9971 237.746 28.3192 237.873 28.6327C237.985 28.8994 238.427 28.7822 238.313 28.5113Z" fill="black"/>
<path d="M68.5934 11.1786H43.6148C43.2774 11.1494 42.938 11.1494 42.6005 11.1786C42.585 11.18 42.5695 11.18 42.554 11.1786L42.7742 11.3463C42.7652 11.2905 42.7737 11.387 42.7756 11.3583C42.7743 11.3179 42.77 11.2776 42.7627 11.2377C42.7493 11.0911 42.7434 10.9438 42.7424 10.7966C42.7388 10.3132 42.793 9.83103 42.9038 9.36048C43.2644 7.85654 44.2327 6.5696 45.5779 5.8066C46.7874 5.10391 48.1845 4.78016 49.5646 4.63696C49.6661 4.63317 49.7542 4.56608 49.7848 4.46932C50.3934 2.69198 51.7152 1.17984 53.5564 0.648724C55.2116 0.176 56.9936 0.570751 58.2943 1.69828C59.124 2.44693 59.7387 3.40356 60.075 4.46932C60.0952 4.53672 60.1448 4.59133 60.21 4.61785C60.2752 4.64437 60.3489 4.63993 60.4104 4.60578C61.5441 4.06032 62.8581 3.95648 63.8593 4.82414C64.5027 5.37365 64.9327 6.13157 65.0744 6.9657C65.0766 7.09089 65.1776 7.19185 65.3028 7.19404C66.2934 7.10115 67.2388 7.62812 67.6808 8.51949C68.0544 9.24825 68.2765 10.0452 68.3335 10.8621C68.3507 11.0429 68.3648 11.2252 68.3652 11.4069C68.3698 11.5297 68.4707 11.6269 68.5935 11.6269C68.7164 11.6269 68.8173 11.5297 68.8219 11.4069C68.8196 9.93508 68.3869 8.08308 67.1211 7.19214C66.5858 6.83503 65.9433 6.67434 65.3028 6.7374L65.5312 6.96574C65.3841 5.97257 64.8736 5.06934 64.0986 4.43104C62.9344 3.48629 61.4759 3.58783 60.1799 4.21141L60.5153 4.34787C59.8687 2.41355 58.4618 0.759218 56.4519 0.194848C54.6415 -0.293299 52.7068 0.148781 51.2881 1.37481C50.3863 2.17441 49.7151 3.20102 49.3444 4.34787L49.5646 4.18023C47.3418 4.41077 44.9906 5.11739 43.5594 6.9469C42.7532 8.00029 42.3073 9.28503 42.2873 10.6113C42.2769 10.8976 42.2924 11.1842 42.3338 11.4676C42.3615 11.5664 42.4514 11.6349 42.554 11.6352H67.5326C67.8681 11.6352 68.2119 11.6568 68.5469 11.6352C68.5623 11.6342 68.578 11.6352 68.5934 11.6352C68.7158 11.6301 68.8123 11.5294 68.8123 11.4069C68.8123 11.2845 68.7158 11.1838 68.5934 11.1786Z" fill="black"/>
<path d="M22.4656 146.1H1.62265C1.33783 146.072 1.05097 146.072 0.766145 146.1C0.753588 146.101 0.740942 146.101 0.728386 146.1L0.956726 146.328C0.978009 145.577 1.13874 144.836 1.43071 144.144C2.0292 142.624 3.24601 141.43 4.77729 140.861C6.16173 140.344 7.66477 140.284 9.12348 140.41C9.22595 140.409 9.31564 140.341 9.34367 140.242C9.87194 138.544 11.1054 137.111 12.8858 136.706C14.4829 136.371 16.141 136.873 17.2836 138.038C18.0329 138.818 18.5562 139.787 18.7975 140.842C18.8174 140.909 18.8671 140.964 18.9324 140.991C18.9976 141.017 19.0715 141.013 19.1329 140.978C20.1221 140.506 21.0562 141.612 21.5001 142.356C22.2153 143.526 22.4803 144.916 22.2455 146.267C22.1877 146.554 22.6278 146.677 22.6858 146.389C22.9646 144.846 22.6407 143.255 21.7809 141.944C21.1726 141.01 20.0798 140.022 18.9024 140.584L19.2378 140.72C18.7606 138.8 17.4925 137.113 15.591 136.435C13.9271 135.844 12.0752 136.168 10.7104 137.288C9.84644 138.037 9.21863 139.021 8.90324 140.121L9.12341 139.953C6.79788 139.752 4.25641 140.074 2.49552 141.747C1.49066 142.736 0.826551 144.019 0.599318 145.41C0.540064 145.713 0.506837 146.02 0.5 146.328C0.501763 146.453 0.602969 146.554 0.72834 146.556H21.5713C21.8541 146.556 22.1456 146.577 22.4278 146.556C22.4403 146.555 22.4531 146.556 22.4656 146.556C22.5882 146.551 22.685 146.451 22.685 146.328C22.685 146.205 22.5882 146.104 22.4656 146.1Z" fill="black"/>
<path d="M64.8002 32.939L67.9652 35.1516L68.4134 35.4648C68.6315 35.5898 68.9095 35.5169 69.0382 35.301C69.1602 35.0825 69.0879 34.8067 68.8743 34.6761L65.7093 32.4635L65.2612 32.1503C65.0431 32.0253 64.7651 32.0982 64.6363 32.3141C64.5144 32.5326 64.5867 32.8084 64.8002 32.9389V32.939Z" fill="black"/>
<path d="M69.2384 28.3185L70.4616 31.672L70.6377 32.1548C70.7101 32.3938 70.9572 32.534 71.1995 32.4738C71.4414 32.405 71.5834 32.155 71.5185 31.912L70.2952 28.5586L70.1191 28.0757C70.0467 27.8368 69.7997 27.6965 69.5573 27.7567C69.3155 27.8255 69.1735 28.0756 69.2384 28.3185V28.3185Z" fill="black"/>
<path d="M64.1026 40.3306L67.2652 39.4294L67.7174 39.3005C68.2818 39.1397 68.0419 38.2581 67.4746 38.4197L64.312 39.3209L63.8598 39.4499C63.2955 39.6107 63.5353 40.4923 64.1026 40.3306Z" fill="black"/>
<path d="M119.851 136.799L122.671 137.679L130.279 140.052L141.559 143.569L155.322 147.861L170.396 152.563L185.611 157.308L199.753 161.719L211.782 165.47L220.374 168.15C221.738 168.575 223.095 169.032 224.468 169.427C224.525 169.443 224.582 169.462 224.639 169.48C225.202 169.655 225.442 168.774 224.882 168.599L222.062 167.72L214.453 165.347L203.174 161.829L189.411 157.537L174.337 152.836L159.122 148.09L144.98 143.68L132.951 139.928L124.358 137.248C122.995 136.823 121.638 136.366 120.265 135.972C120.208 135.955 120.151 135.936 120.094 135.918C119.531 135.743 119.291 136.624 119.851 136.799H119.851Z" fill="black"/>
<path d="M192.934 149.317L195.718 150.19L202.404 152.287L210.489 154.824L217.452 157.008C218.578 157.361 219.702 157.77 220.843 158.071C220.859 158.076 220.876 158.082 220.892 158.087C221.454 158.263 221.695 157.382 221.135 157.206L218.35 156.333L211.665 154.235L203.58 151.699L196.616 149.515C195.49 149.162 194.367 148.752 193.226 148.451C193.209 148.447 193.193 148.441 193.176 148.436C192.614 148.26 192.374 149.141 192.934 149.317V149.317Z" fill="black"/>
<path d="M151.747 38.4286C151.747 38.4286 151.29 49.2367 143.678 49.2367C135.763 49.6934 136.828 39.6464 136.828 39.6464C136.828 39.6464 137.437 41.1687 140.177 39.4942C143.374 38.4286 145.81 41.9298 147.027 41.7776C148.106 41.7057 148.878 40.7173 149.394 39.694C149.936 38.6003 150.231 37.4005 150.256 36.1801L150.377 31.7306" fill="black"/>
<path d="M151.289 38.4286C151.274 38.7684 151.236 39.1082 151.194 39.4455C151.189 39.4842 151.184 39.5229 151.179 39.5616C151.164 39.6772 151.192 39.4735 151.175 39.5923C151.162 39.6843 151.149 39.7762 151.135 39.868C151.104 40.0651 151.071 40.2618 151.035 40.458C150.952 40.9115 150.853 41.3616 150.738 41.8084C150.2 43.891 149.311 45.9712 147.642 47.3866C146.756 48.1297 145.672 48.5978 144.524 48.7333C143.276 48.8774 141.867 48.8373 140.752 48.337C139.825 47.9187 139.05 47.2253 138.531 46.3509C138.031 45.5108 137.685 44.5885 137.508 43.627C137.458 43.3884 137.415 43.1485 137.38 42.9072C137.354 42.7341 137.336 42.5921 137.311 42.3389C137.271 41.9363 137.247 41.5325 137.239 41.1276C137.229 40.6549 137.274 40.1863 137.277 39.7152C137.278 39.6926 137.281 39.6692 137.284 39.6465L136.387 39.7679C136.893 41.0074 138.457 40.8127 139.457 40.3842C139.734 40.2635 140.004 40.1262 140.265 39.9731C140.493 39.8584 140.741 39.7896 140.996 39.7709C141.456 39.7197 141.922 39.757 142.369 39.8807C143.206 40.1439 143.994 40.5465 144.698 41.0716C145.273 41.4635 145.851 41.9552 146.524 42.1693C147.463 42.4679 148.455 41.8007 149.025 41.107C150.306 39.5478 150.674 37.5577 150.727 35.597L150.832 31.7307C150.848 31.1428 149.934 31.1432 149.919 31.7307L149.832 34.9342C149.821 35.3468 149.811 35.7595 149.799 36.172C149.773 37.3724 149.472 38.551 148.919 39.6168C148.506 40.3922 147.876 41.2991 146.907 41.3249C146.805 41.3276 146.983 41.3417 146.917 41.3274C146.89 41.3215 146.862 41.3175 146.835 41.3088C146.783 41.2919 146.731 41.2767 146.679 41.2573C146.649 41.2409 146.618 41.226 146.587 41.2128C146.513 41.1762 146.442 41.1363 146.371 41.0951C146.073 40.9209 145.79 40.72 145.507 40.5231C144.044 39.5084 142.431 38.5687 140.58 38.9174C139.931 39.0398 139.425 39.4514 138.807 39.6636C138.612 39.7334 138.411 39.7835 138.206 39.813C138.112 39.823 138.018 39.8261 137.924 39.8223C137.893 39.8211 137.862 39.8191 137.831 39.8165C137.717 39.8066 137.879 39.8297 137.782 39.8085C137.707 39.7924 137.634 39.7715 137.561 39.7459C137.662 39.7821 137.522 39.7255 137.489 39.7065C137.467 39.6939 137.447 39.6786 137.425 39.6664C137.337 39.6174 137.452 39.693 137.426 39.6707C137.392 39.6401 137.359 39.609 137.325 39.5769C137.275 39.5283 137.258 39.4831 137.315 39.573C137.298 39.5463 137.28 39.5178 137.261 39.4923C137.23 39.4497 137.181 39.3134 137.267 39.5253C137.2 39.312 136.989 39.1781 136.768 39.208C136.546 39.238 136.378 39.4232 136.37 39.6467C136.261 40.8646 136.312 42.0915 136.521 43.2962C136.861 45.4109 137.763 47.5759 139.632 48.77C140.767 49.4945 142.139 49.7498 143.47 49.7031C144.868 49.6541 146.189 49.4302 147.398 48.6842C149.456 47.415 150.665 45.1662 151.37 42.9206C151.655 42.0072 151.87 41.0736 152.013 40.1277C152.109 39.5904 152.171 39.0475 152.198 38.5023C152.198 38.4777 152.201 38.4532 152.202 38.4287C152.227 37.841 151.314 37.8422 151.289 38.4287L151.289 38.4286Z" fill="black"/>
<path d="M141.221 42.3704C141.783 42.4906 142.37 42.3822 142.852 42.0693C143.081 41.9094 143.267 41.6968 143.395 41.4496C143.523 41.2319 143.449 40.9521 143.231 40.8248C143.014 40.6975 142.734 40.7709 142.607 40.9887C142.587 41.0282 142.566 41.0671 142.542 41.1046C142.529 41.1257 142.515 41.1459 142.501 41.1664C142.45 41.2418 142.56 41.0981 142.516 41.1474C142.49 41.1772 142.464 41.2072 142.436 41.2352C142.417 41.254 142.343 41.2996 142.336 41.3238C142.335 41.3262 142.423 41.2605 142.391 41.2806C142.384 41.2856 142.376 41.2915 142.369 41.2968C142.354 41.3072 142.339 41.3174 142.323 41.3272C142.288 41.3497 142.251 41.3704 142.214 41.3893C142.198 41.3973 142.182 41.4045 142.166 41.4123C142.104 41.443 142.275 41.3693 142.211 41.3937C142.174 41.4079 142.136 41.4218 142.098 41.4337C142.033 41.4539 141.967 41.4701 141.899 41.4823C141.881 41.4855 141.863 41.488 141.845 41.4913C141.779 41.5038 141.972 41.4767 141.906 41.4832C141.874 41.4864 141.842 41.49 141.811 41.4923C141.706 41.4998 141.601 41.4996 141.496 41.4917C141.475 41.4901 141.454 41.4882 141.432 41.4859C141.424 41.485 141.416 41.4839 141.408 41.4831C141.439 41.489 141.471 41.4933 141.503 41.496C141.49 41.4932 141.476 41.4922 141.463 41.4897C141.344 41.4605 141.219 41.4769 141.111 41.5357C140.953 41.6284 140.865 41.8071 140.889 41.9893C140.912 42.1715 141.043 42.3218 141.22 42.3705L141.221 42.3704Z" fill="white"/>
<path d="M159.071 47.8114C157.275 48.259 155.42 48.4317 153.572 48.3234C153.558 48.3224 154.25 48.3814 154.243 48.3689L153.572 48.3234C151.309 44.4437 150.62 40.1493 150.264 35.6718L149.939 31.5714L136.474 29.5066C135.713 29.3814 135.489 28.4666 136.125 28.0856L137.132 27.7728C138.141 27.1685 138.077 26.0702 138.502 25.0327C141.242 18.3347 145.463 17.2094 150.312 17.9965C150.312 17.9965 159.676 19.6393 160.826 25.3892C161.517 28.8479 160.783 35.8137 160.087 40.8159C159.942 41.9777 160.151 43.1563 160.687 44.1974C161.032 44.8829 161.05 45.6873 160.737 46.388C160.424 47.0887 159.812 47.6114 159.071 47.8114Z" fill="#EA2F2F"/>
<path d="M158.95 47.3711C157.196 47.8263 155.38 47.9937 153.573 47.8668C152.983 47.8234 152.993 48.7272 153.573 48.7802C153.833 48.8368 154.101 48.8467 154.365 48.8093C154.579 48.743 154.714 48.5316 154.684 48.3094C154.654 48.0872 154.467 47.9193 154.243 47.9123L153.573 47.8668L153.967 48.093C152.402 45.3948 151.57 42.3794 151.116 39.3103C150.832 37.3876 150.703 35.4462 150.55 33.5099L150.396 31.5715C150.393 31.367 150.257 31.1885 150.061 31.1311L146.553 30.5932L140.054 29.5965C138.895 29.4187 137.71 29.2963 136.561 29.0592C136.343 29.0143 136.181 28.8457 136.212 28.6802C136.219 28.6385 136.32 28.4759 136.251 28.5248C136.328 28.4892 136.409 28.464 136.492 28.4498C136.727 28.3768 136.965 28.3095 137.198 28.2305C137.514 28.1051 137.789 27.8932 137.991 27.6191C138.505 26.9728 138.593 26.1456 138.855 25.3884C139.167 24.5337 139.562 23.7113 140.034 22.9329C140.73 21.6756 141.683 20.5796 142.833 19.7169C143.819 19.0213 144.951 18.5585 146.142 18.3634C147.786 18.1189 149.462 18.209 151.07 18.6283C152.971 19.0635 154.797 19.7788 156.488 20.7506C157.497 21.3242 158.398 22.0684 159.152 22.9502C159.871 23.8362 160.33 24.9049 160.476 26.0368C160.657 27.5148 160.706 29.0061 160.622 30.4928C160.562 32.319 160.413 34.142 160.225 35.9591C160.13 36.8758 160.025 37.7914 159.91 38.7059C159.801 39.574 159.62 40.457 159.584 41.3311C159.56 42.2905 159.753 43.2429 160.149 44.1172C160.322 44.4418 160.438 44.7933 160.492 45.1568C160.52 45.4928 160.471 45.8308 160.347 46.1445C160.099 46.7496 159.582 47.2037 158.95 47.3712C158.385 47.5291 158.625 48.4106 159.193 48.2519C159.969 48.0331 160.627 47.5145 161.021 46.8103C161.414 46.1062 161.512 45.2743 161.292 44.4982C161.171 44.0883 160.948 43.7168 160.808 43.3135C160.647 42.867 160.546 42.4013 160.507 41.9284C160.441 41.0005 160.65 40.0587 160.768 39.1411C161.236 35.4903 161.656 31.7776 161.547 28.091C161.506 26.7258 161.417 25.3041 160.874 24.0343C160.368 22.9145 159.605 21.9293 158.649 21.1581C156.873 19.6738 154.685 18.7235 152.483 18.0651C151.006 17.6027 149.47 17.3527 147.923 17.3225C146.629 17.2917 145.341 17.5143 144.132 17.9777C142.849 18.5006 141.703 19.3106 140.782 20.3456C139.628 21.686 138.714 23.2151 138.08 24.8658C137.933 25.2613 137.808 25.665 137.708 26.075C137.633 26.4435 137.476 26.7905 137.249 27.0902C137.113 27.2707 136.914 27.3928 136.692 27.4315C136.468 27.501 136.239 27.5617 136.019 27.6407C135.268 27.9098 135.107 28.8891 135.569 29.4751C135.791 29.7449 136.108 29.9194 136.455 29.9627C136.994 30.0486 137.534 30.1282 138.074 30.2109L144.499 31.1961L149.547 31.9703L149.818 32.0118L149.483 31.5715C149.59 32.9283 149.698 34.2851 149.806 35.642C150.064 38.8878 150.492 42.1623 151.625 45.2327C151.954 46.1316 152.343 47.0076 152.789 47.8548C152.906 48.0744 153.019 48.3009 153.153 48.5106C153.25 48.6786 153.428 48.7825 153.622 48.7836C153.829 48.8015 154.036 48.8117 154.243 48.8257L154.122 47.9286C154.248 47.8895 154.217 47.9148 154.107 47.9083C154.031 47.9038 153.955 47.8976 153.878 47.8918C153.776 47.8839 153.674 47.8761 153.573 47.8669V48.7802C155.462 48.9088 157.36 48.7303 159.193 48.2519C159.761 48.1043 159.52 47.2231 158.95 47.3711Z" fill="black"/>
<path d="M145.055 23.4177C143.905 21.7749 141.605 22.432 141.605 22.432L140.455 22.7607V25.3891C140.455 25.3891 143.248 24.9959 144.726 26.3748C146.041 26.6684 145.815 24.5031 145.055 23.4177Z" fill="white"/>
<path d="M145.45 23.1872C144.502 21.8672 142.805 21.6144 141.32 22.0385L140.334 22.3202C140.138 22.3777 140.002 22.5562 139.999 22.7606V25.3891C140.002 25.5305 140.07 25.6628 140.182 25.7485C140.295 25.8342 140.44 25.864 140.577 25.8295C140.352 25.8608 140.479 25.8417 140.532 25.8365C140.604 25.8295 140.675 25.8222 140.747 25.8168C140.974 25.7995 141.201 25.7925 141.429 25.7941C142.078 25.7852 142.725 25.8848 143.342 26.0887C143.658 26.1932 143.956 26.3467 144.224 26.5434C144.371 26.6911 144.556 26.7941 144.759 26.8402C144.925 26.868 145.095 26.8612 145.258 26.8203C145.91 26.6383 146.131 25.9548 146.126 25.3431C146.114 24.5743 145.879 23.8255 145.45 23.1871C145.319 22.9746 145.044 22.9025 144.825 23.0233C144.609 23.152 144.536 23.43 144.661 23.6481C144.994 24.1356 145.185 24.7061 145.212 25.2958C145.214 25.3653 145.213 25.435 145.209 25.5045C145.207 25.5341 145.204 25.5636 145.201 25.5931C145.195 25.6478 145.215 25.5349 145.196 25.6195C145.182 25.6782 145.167 25.7356 145.149 25.7932C145.13 25.8563 145.199 25.7067 145.145 25.805C145.134 25.8257 145.121 25.8465 145.111 25.8677C145.063 25.9637 145.147 25.8265 145.111 25.8724C145.093 25.8938 145.073 25.9136 145.052 25.9319C145.125 25.8636 144.995 25.9629 145.066 25.9239C145.044 25.9336 145.021 25.9402 144.998 25.9436C144.947 25.9536 145.078 25.9462 144.988 25.9445C144.961 25.9439 144.934 25.9448 144.906 25.9437C144.776 25.9384 144.988 25.9628 144.848 25.9343L145.05 26.0518C143.824 24.9321 141.924 24.7278 140.334 24.9486L140.912 25.389V22.7607L140.577 23.201C141.085 23.0339 141.603 22.8973 142.127 22.792C142.201 22.7802 142.036 22.7998 142.172 22.7868C142.221 22.782 142.271 22.7766 142.32 22.7727C142.43 22.7641 142.541 22.7596 142.651 22.7591C142.879 22.7545 143.108 22.7759 143.331 22.8231C143.863 22.9189 144.339 23.2141 144.661 23.6484C144.793 23.8603 145.068 23.9322 145.286 23.8122C145.502 23.6836 145.575 23.4053 145.45 23.1872Z" fill="black"/>
<circle cx="157.414" cy="35.7333" r="3.76089" fill="#EA2F2F"/>
<path d="M160.718 35.7334C160.717 37.1262 159.843 38.3688 158.532 38.8402C157.222 39.3115 155.756 38.9103 154.869 37.8371C153.981 36.7639 153.861 35.2493 154.57 34.0503C155.279 32.8512 156.663 32.2254 158.032 32.4856C159.584 32.7933 160.707 34.1503 160.718 35.7334C160.724 36.3207 161.638 36.3222 161.632 35.7334C161.632 33.9515 160.513 32.3616 158.835 31.7611C157.158 31.1605 155.284 31.6789 154.153 33.0561C153.023 34.4334 152.879 36.3725 153.795 37.9009C154.711 39.4292 156.489 40.2171 158.237 39.8693C160.198 39.457 161.609 37.7374 161.632 35.7334C161.638 35.1454 160.724 35.1449 160.718 35.7334Z" fill="black"/>
<circle cx="158.56" cy="36.1096" r="2.16685" fill="#EA2F2F"/>
<path d="M160.27 36.1095C160.269 36.8277 159.819 37.4686 159.144 37.7139C158.469 37.9592 157.713 37.7565 157.251 37.2065C156.79 36.6565 156.721 35.8766 157.079 35.2542C157.437 34.6318 158.146 34.2996 158.854 34.4228C159.67 34.5713 160.265 35.2798 160.27 36.1095C160.278 36.6968 161.192 36.6984 161.184 36.1095C161.172 35.0111 160.486 34.0327 159.458 33.646C158.417 33.2671 157.249 33.5837 156.542 34.4371C155.834 35.2904 155.739 36.4964 156.304 37.45C156.908 38.4645 158.116 38.9507 159.254 38.6379C160.393 38.3251 161.183 37.2904 161.184 36.1095C161.192 35.5216 160.278 35.5213 160.27 36.1095Z" fill="black"/>
<path d="M148.67 22.8088L162.357 26.9963C163.014 27.2463 163.408 27.9203 163.304 28.6154C163.206 29.4284 162.531 29.9994 161.797 29.8906L147.52 27.3581" fill="white"/>
<path d="M148.547 23.2492L153.679 24.8189L161.201 27.1202C161.847 27.3179 162.69 27.4059 162.84 28.2077C162.857 28.3149 162.861 28.4237 162.854 28.5319C162.844 28.784 162.872 28.476 162.843 28.6137C162.831 28.6786 162.814 28.7425 162.794 28.8051C162.729 28.9983 162.607 29.1674 162.444 29.2903C162.278 29.4102 162.073 29.4644 161.87 29.4425C161.905 29.4451 161.935 29.4518 161.889 29.4451C161.682 29.4149 161.476 29.3719 161.27 29.3353L153.946 28.0363C151.88 27.6698 149.815 27.2919 147.746 26.9365C147.711 26.9304 147.675 26.924 147.64 26.9177C147.398 26.8579 147.151 26.998 147.078 27.2367C147.013 27.4796 147.155 27.7297 147.397 27.7985L152.908 28.7759L160.772 30.1708C161.041 30.2185 161.31 30.2677 161.579 30.314C162.198 30.446 162.84 30.2386 163.265 29.7697C163.64 29.3364 163.816 28.7658 163.751 28.1963C163.687 27.6269 163.387 27.1104 162.924 26.7721C162.687 26.629 162.429 26.5233 162.16 26.4586L155.256 24.3466L148.9 22.4021L148.79 22.3685C148.227 22.1962 147.986 23.0775 148.547 23.2493V23.2492Z" fill="black"/>
<circle cx="147.771" cy="24.7363" r="3.52773" fill="#458DC9"/>
<path d="M150.842 24.7362C150.841 26.0304 150.029 27.1851 148.811 27.6234C147.593 28.0616 146.232 27.6893 145.406 26.6924C144.581 25.6956 144.469 24.2883 145.127 23.1736C145.784 22.059 147.07 21.4763 148.342 21.7168C149.787 22.0019 150.831 23.2638 150.842 24.7362C150.849 25.3236 151.762 25.3251 151.755 24.7362C151.756 23.0528 150.699 21.5506 149.114 20.9831C147.529 20.4155 145.759 20.905 144.69 22.206C143.622 23.5071 143.487 25.339 144.352 26.7831C145.217 28.2271 146.896 28.9718 148.547 28.6435C150.4 28.254 151.734 26.6296 151.755 24.7362C151.762 24.1484 150.849 24.1479 150.842 24.7362Z" fill="black"/>
<path d="M150.842 24.7362C150.841 26.0304 150.029 27.1851 148.811 27.6234C147.593 28.0616 146.232 27.6893 145.406 26.6924C144.581 25.6956 144.469 24.2883 145.127 23.1736C145.784 22.059 147.07 21.4763 148.342 21.7168C149.787 22.0019 150.831 23.2638 150.842 24.7362C150.849 25.3236 151.762 25.3251 151.755 24.7362C151.756 23.0528 150.699 21.5506 149.114 20.9831C147.529 20.4155 145.759 20.905 144.69 22.206C143.622 23.5071 143.487 25.339 144.352 26.7831C145.217 28.2271 146.896 28.9718 148.547 28.6435C150.4 28.254 151.734 26.6296 151.755 24.7362C151.762 24.1484 150.849 24.1479 150.842 24.7362Z" fill="black"/>
<circle cx="138.316" cy="22.8299" r="3.4456" fill="#458DC9"/>
<circle cx="137.331" cy="22.3369" r="0.907864" fill="white"/>
<circle cx="146.529" cy="24.3084" r="0.907864" fill="white"/>
<path d="M141.303 22.8299C141.303 24.0911 140.51 25.216 139.323 25.6413C138.135 26.0667 136.809 25.7009 136.007 24.7271C135.206 23.7533 135.102 22.3812 135.748 21.2978C136.393 20.2144 137.65 19.653 138.887 19.8946C140.286 20.1784 141.294 21.4032 141.303 22.8299C141.31 23.4172 142.223 23.4188 142.217 22.8299C142.217 21.1796 141.18 19.7074 139.625 19.1529C138.071 18.5984 136.336 19.0814 135.292 20.3593C134.248 21.6372 134.12 23.4337 134.973 24.8464C135.826 26.259 137.476 26.9824 139.093 26.6531C140.899 26.2642 142.196 24.6773 142.217 22.8299C142.223 22.242 141.31 22.2415 141.303 22.8299Z" fill="black"/>
<path d="M160.183 42.7991C160.183 42.7991 159.347 43.2959 157.376 43.4602L160.183 42.7991Z" fill="white"/>
<path d="M159.952 42.4048C159.901 42.4339 159.848 42.4602 159.794 42.4836C159.723 42.5157 159.712 42.5156 159.801 42.4818C159.764 42.4959 159.728 42.5114 159.691 42.5255C159.594 42.5625 159.496 42.5963 159.397 42.6277C159.12 42.7145 158.839 42.7859 158.554 42.8414C158.165 42.9205 157.771 42.9746 157.376 43.0035C157.212 43.0035 157.062 43.0906 156.98 43.2319C156.899 43.3732 156.899 43.5472 156.98 43.6885C157.062 43.8298 157.212 43.9169 157.376 43.9169C158.143 43.865 158.903 43.728 159.64 43.5084C159.909 43.4324 160.168 43.3268 160.414 43.1934C160.631 43.0661 160.705 42.7864 160.577 42.5686C160.45 42.3508 160.17 42.2775 159.953 42.4048H159.952Z" fill="black"/>
<path d="M146.445 31.0355L152.659 32.0351L146.445 31.0355Z" fill="#EA2F2F"/>
<path d="M146.323 31.4759L151.757 32.35L152.537 32.4754C152.779 32.5346 153.026 32.3947 153.099 32.1564C153.164 31.9135 153.022 31.6633 152.78 31.5947L147.346 30.7206L146.566 30.5951C146.324 30.5359 146.077 30.6758 146.004 30.9141C145.939 31.157 146.081 31.4072 146.323 31.4759H146.323Z" fill="black"/>
<path d="M144.468 34.2689C144.475 34.2656 144.482 34.2626 144.488 34.2594C144.571 34.221 144.373 34.3034 144.445 34.2775C144.517 34.2514 144.588 34.2232 144.661 34.2001C144.77 34.166 144.88 34.1374 144.991 34.1139C145.054 34.1005 145.118 34.0899 145.182 34.0787C145.305 34.0572 145.084 34.0864 145.213 34.0747C145.253 34.0711 145.292 34.0664 145.333 34.0634C145.492 34.0508 145.653 34.0493 145.812 34.0589C145.985 34.0669 146.156 34.0949 146.322 34.1423C146.74 34.2568 147.131 34.4557 147.469 34.727C147.687 34.8528 147.966 34.7797 148.094 34.5631C148.215 34.3445 148.143 34.0696 147.93 33.9383C146.807 33.074 145.299 32.898 144.007 33.4803C143.791 33.6091 143.718 33.887 143.843 34.1051C143.974 34.3185 144.25 34.3908 144.468 34.2689L144.468 34.2689Z" fill="black"/>
<path d="M138.222 33.3608C139.36 33.0111 141.119 33.2909 141.297 34.7154C141.38 35.3742 141.011 36.0526 140.65 36.5764C140.39 36.9445 140.088 37.2812 139.75 37.5798C139.566 37.7462 139.366 37.8685 139.29 38.1155C139.243 38.2666 139.222 38.4249 139.229 38.5832C139.281 39.497 140.31 39.6487 141.033 39.6601C141.621 39.6691 141.622 38.7558 141.033 38.7467C140.736 38.7637 140.438 38.7101 140.165 38.5901C140.154 38.585 140.146 38.5759 140.142 38.5649C140.14 38.4751 140.156 38.3859 140.189 38.3024L140.071 38.5039C141.092 37.6636 142.131 36.4244 142.216 35.0405C142.247 34.3616 142.005 33.6988 141.544 33.1996C141.038 32.6441 140.354 32.433 139.627 32.3602C139.075 32.2933 138.516 32.3341 137.979 32.4801C137.419 32.6523 137.658 33.5342 138.222 33.3609L138.222 33.3608Z" fill="black"/>
<circle cx="139.273" cy="35.3543" r="0.627942" fill="black"/>
<path d="M139.676 35.376C139.672 35.4047 139.666 35.4331 139.659 35.4611C139.654 35.4776 139.649 35.4935 139.643 35.5098C139.63 35.5518 139.647 35.5058 139.647 35.5019C139.639 35.5286 139.625 35.5535 139.607 35.575C139.599 35.5894 139.59 35.6031 139.579 35.6157C139.605 35.5897 139.591 35.6006 139.573 35.6198C139.561 35.6331 139.531 35.6709 139.514 35.676C139.551 35.6654 139.534 35.662 139.514 35.6748C139.503 35.682 139.491 35.6898 139.48 35.6968C139.468 35.7038 139.456 35.7097 139.444 35.7166C139.431 35.7243 139.402 35.7466 139.446 35.7174C139.416 35.7321 139.384 35.7421 139.351 35.7468C139.341 35.7503 139.33 35.7525 139.319 35.7533L139.346 35.7499C139.335 35.7512 139.324 35.7521 139.312 35.7528C139.283 35.7546 139.255 35.7528 139.226 35.7521C139.211 35.7518 139.189 35.7578 139.235 35.7541C139.217 35.753 139.2 35.7495 139.184 35.7437C139.173 35.741 139.162 35.738 139.151 35.7347C139.144 35.7326 139.083 35.7079 139.114 35.7227C139.148 35.7386 139.099 35.7142 139.096 35.7129C139.084 35.7064 139.072 35.6995 139.06 35.6922C139.048 35.685 139.037 35.6771 139.026 35.6695C138.983 35.6417 139.045 35.6941 139.027 35.6697C139.01 35.6518 138.992 35.6347 138.974 35.6186C138.965 35.6089 138.925 35.5758 138.968 35.6145C138.957 35.6021 138.948 35.5886 138.94 35.5741C138.931 35.5597 138.9 35.5209 138.901 35.5022L138.911 35.5265C138.907 35.5163 138.903 35.506 138.899 35.4956C138.896 35.4852 138.893 35.4746 138.89 35.464C138.885 35.4479 138.882 35.4316 138.878 35.4154C138.874 35.4001 138.862 35.3815 138.878 35.4264C138.871 35.3927 138.87 35.3581 138.875 35.3241C138.875 35.3213 138.88 35.2643 138.876 35.3023C138.871 35.3402 138.88 35.284 138.881 35.281C138.887 35.2529 138.895 35.2261 138.904 35.1988C138.918 35.1568 138.901 35.2028 138.901 35.2067C138.906 35.1907 138.913 35.1756 138.923 35.1621C138.929 35.1525 138.934 35.143 138.94 35.1336C138.946 35.1243 138.952 35.1151 138.959 35.1062C138.973 35.0861 138.972 35.0884 138.953 35.1133C138.957 35.0944 138.996 35.0667 139.01 35.0541C139.015 35.0492 139.029 35.0339 139.034 35.0326L139.014 35.0481C139.023 35.0415 139.031 35.0353 139.04 35.0292C139.061 35.0156 139.083 35.0043 139.104 34.992C139.117 34.9843 139.146 34.962 139.102 34.9912C139.116 34.9836 139.132 34.9781 139.148 34.9746C139.165 34.9693 139.212 34.9486 139.229 34.9552L139.202 34.9586C139.213 34.9574 139.224 34.9564 139.236 34.9557C139.247 34.955 139.258 34.9546 139.27 34.9546C139.287 34.9546 139.304 34.9558 139.321 34.9564C139.366 34.9579 139.318 34.9539 139.313 34.9545C139.348 34.9565 139.382 34.9648 139.413 34.9791C139.416 34.9802 139.467 35.0016 139.433 34.9859C139.401 34.9708 139.461 35.0007 139.466 35.0037C139.476 35.0092 139.485 35.0148 139.495 35.0207C139.504 35.0266 139.513 35.0328 139.522 35.0391C139.542 35.0539 139.54 35.0521 139.515 35.0336C139.537 35.0383 139.564 35.0809 139.58 35.0961C139.589 35.106 139.619 35.1309 139.58 35.0941C139.591 35.1065 139.6 35.1201 139.608 35.1345C139.617 35.1484 139.625 35.1625 139.632 35.177C139.639 35.1895 139.668 35.2289 139.637 35.1821C139.652 35.2119 139.662 35.2439 139.666 35.2768C139.67 35.2874 139.672 35.2984 139.673 35.3096C139.669 35.2766 139.668 35.273 139.671 35.299C139.672 35.3103 139.673 35.3216 139.673 35.3329C139.674 35.3676 139.672 35.4023 139.668 35.4367C139.668 35.5627 139.77 35.6648 139.896 35.665C140.021 35.6615 140.121 35.5613 140.125 35.4367C140.159 35.0916 139.981 34.7603 139.675 34.5977C139.35 34.4305 138.955 34.4838 138.687 34.7311C138.415 34.9865 138.34 35.3885 138.501 35.7247C138.662 36.061 139.023 36.2541 139.392 36.2021C139.761 36.1501 140.054 35.865 140.117 35.4973C140.147 35.3761 140.076 35.2527 139.957 35.2164C139.836 35.1844 139.711 35.2553 139.676 35.376Z" fill="black"/>
<path d="M144.365 36.0829C144.441 36.0454 144.284 36.1153 144.302 36.1088C144.337 36.0961 144.371 36.0825 144.407 36.0714C144.464 36.0535 144.522 36.0387 144.58 36.0271C144.605 36.0222 144.722 36.0046 144.627 36.0174C144.534 36.0298 144.613 36.0196 144.634 36.0175C144.654 36.0155 144.675 36.0139 144.695 36.0127C144.781 36.0074 144.867 36.0085 144.952 36.016C144.99 36.0194 145.062 36.0434 144.927 36.011C144.952 36.0169 144.977 36.0189 145.002 36.0237C145.049 36.0328 145.096 36.044 145.143 36.0572C145.192 36.0711 145.24 36.0889 145.288 36.1053C145.379 36.1361 145.206 36.0656 145.287 36.1047C145.315 36.1179 145.342 36.1308 145.369 36.1449C145.426 36.1745 145.482 36.2071 145.535 36.2423C145.559 36.2577 145.582 36.2737 145.605 36.2902C145.619 36.3002 145.633 36.3104 145.647 36.3208C145.601 36.2853 145.598 36.2837 145.638 36.316C145.726 36.3986 145.841 36.4462 145.961 36.4497C146.146 36.4497 146.312 36.3384 146.383 36.1678C146.454 35.9972 146.415 35.8007 146.284 35.6701C145.851 35.2899 145.292 35.0858 144.716 35.0982C144.435 35.1073 144.158 35.1741 143.904 35.2942C143.688 35.4225 143.615 35.7011 143.74 35.9191C143.871 36.1317 144.146 36.2038 144.365 36.0829H144.365Z" fill="black"/>
</svg>
