<svg width="57" height="58" viewBox="0 0 57 58" fill="none" xmlns="http://www.w3.org/2000/svg">
<path fill-rule="evenodd" clip-rule="evenodd" d="M2.56298 0.175908C1.50748 0.646489 0.755521 1.55869 0.291177 2.93208L0 3.79309V11.0725V18.352L0.291177 19.213C0.661471 20.3082 1.28193 21.1798 2.06153 21.7C2.65937 22.0991 2.73815 22.1104 5.26525 22.1586L7.85608 22.2082V26.2299C7.85608 30.6816 8.01577 33.1825 8.4654 35.7689C10.3149 46.4093 16.3842 54.7534 24.0228 57.157C30.8969 59.3202 38.067 56.3425 43.0896 49.2386C46.4288 44.5157 48.5084 38.3008 48.968 31.6704C49.0332 30.7298 49.0866 28.2162 49.0866 26.0843V22.2082L51.6774 22.1586C54.2045 22.1104 54.2833 22.0991 54.8812 21.7C55.6607 21.1798 56.2812 20.3082 56.6515 19.213L56.9427 18.352V11.0725V3.79309L56.6515 2.93208C56.2812 1.83687 55.6607 0.965219 54.8812 0.445013L54.2683 0.0359553L28.6385 0.00668154C8.18771 -0.0168005 2.91867 0.0174823 2.56298 0.175908ZM54.2163 2.81467C54.5436 3.04683 54.7981 3.38043 54.9624 3.79309C55.2097 4.41411 55.2118 4.47469 55.2118 11.0725C55.2118 17.6704 55.2097 17.7309 54.9624 18.352C54.7981 18.7646 54.5436 19.0982 54.2163 19.3304L53.7196 19.6826H47.0642H40.4088L39.7942 18.3581C38.6058 15.7968 36.7719 13.4697 34.7855 12.0023C30.3107 8.69646 25.0636 9.12806 20.7824 13.1541C19.6531 14.2162 17.9542 16.6425 17.1703 18.3128L16.5274 19.6826H9.87527H3.22311L2.72634 19.3304C2.39906 19.0982 2.14454 18.7646 1.98029 18.352C1.73302 17.7309 1.7309 17.6704 1.7309 11.0725C1.7309 4.47469 1.73302 4.41411 1.98029 3.79309C2.14454 3.38043 2.39906 3.04683 2.72634 2.81467L3.22311 2.46244H28.4713H53.7196L54.2163 2.81467ZM31.3686 12.7773C34.6318 14.0225 37.0755 16.6816 38.8127 20.8777C39.067 21.492 39.3556 22.0379 39.454 22.0909C39.5524 22.144 41.3589 22.1874 43.4683 22.1874H47.3037V26.1072C47.3037 31.6685 47.1096 33.8169 46.2966 37.2575C44.72 43.9308 41.3434 49.3976 36.8443 52.5619C33.826 54.6847 30.2292 55.6653 26.9948 55.2473C25.1389 55.0075 24.1946 54.7341 22.5096 53.9486C16.6074 51.1968 12.0139 44.4061 10.3436 35.9635C9.81788 33.3057 9.72483 32.0696 9.66867 27.0012L9.6154 22.1874H13.4566C17.8369 22.1874 17.6336 22.2481 18.1625 20.7817C18.5625 19.6729 19.7008 17.6164 20.425 16.6943C21.9537 14.7479 24.0258 13.2615 26.0922 12.6289C27.4194 12.2227 30.1134 12.2984 31.3686 12.7773ZM27.3013 24.5356C22.916 25.2247 19.2815 29.671 18.1513 35.7287C17.7932 37.6483 17.74 40.6529 18.032 42.4782C19.4186 51.1506 25.6756 56.3309 31.6081 53.718C35.2943 52.0945 38.0518 47.8503 38.9107 42.4782C39.2026 40.6529 39.1495 37.6483 38.7913 35.7287C37.7943 30.3845 34.8488 26.251 31.0956 24.9293C29.9263 24.5174 28.4146 24.3606 27.3013 24.5356ZM41.9332 25.3748C41.3986 25.583 41.2481 25.7077 40.6872 26.4063C39.8936 27.3944 39.6138 29.3826 40.0693 30.7975C40.5773 32.3762 41.4758 33.205 42.6791 33.205C43.6286 33.205 44.1797 32.8511 44.8189 31.8308C45.5668 30.6372 45.7342 29.0218 45.2587 27.5872C44.6677 25.8041 43.2508 24.8615 41.9332 25.3748ZM30.7 27.3694C33.0003 28.1753 35.1968 30.6134 36.3144 33.6012C36.9976 35.4275 37.2983 37.1666 37.3053 39.3293C37.3122 41.4738 37.1266 42.7469 36.5483 44.5227C35.4268 47.9663 33.3001 50.5088 30.7161 51.495C30.0665 51.7429 29.5336 51.82 28.4713 51.82C26.8846 51.82 25.8579 51.5101 24.6665 50.6711C22.2102 48.9414 20.5039 45.991 19.8276 42.3037C19.5134 40.5906 19.5612 37.8421 19.9361 36.072C20.4459 33.664 21.2523 31.8177 22.4789 30.2506C24.7206 27.3863 27.734 26.3302 30.7 27.3694ZM43.1204 27.9089C43.6985 28.2943 43.9279 29.4072 43.5751 30.1149C43.3559 30.5545 42.8045 30.856 42.4488 30.7306C41.4762 30.3876 41.3259 28.5343 42.2204 27.9143C42.6542 27.6138 42.6775 27.6136 43.1204 27.9089ZM26.6884 33.0323C24.1755 34.2403 22.6522 37.1379 22.6372 40.7382C22.6119 46.8716 27.1169 50.9218 30.9948 48.2519C34.1047 46.1108 35.2529 40.7844 33.5068 36.5989C32.8292 34.9743 31.4415 33.5045 30.039 32.9257C29.1311 32.5511 27.5872 32.6003 26.6884 33.0323ZM30.174 35.6428C30.9364 36.1575 31.7576 37.2566 32.0864 38.2017C33.1393 41.2299 32.3052 44.5944 30.1428 46.0422C29.509 46.4664 29.3002 46.527 28.4713 46.527C27.6425 46.527 27.4337 46.4664 26.7998 46.0422C23.4516 43.8006 23.6599 37.2028 27.1347 35.433C27.8761 35.0554 29.4669 35.1653 30.174 35.6428Z" fill="#1C1F34"/>
</svg>
